<svg width="150" height="150" viewBox="0 0 150 150" fill="none" xmlns="http://www.w3.org/2000/svg">
<path d="M133.594 40.9752V57.9472C133.594 68.6596 125.199 77.3438 114.844 77.3438H82.0312C71.676 77.3438 63.2812 68.6596 63.2812 57.9472V40.9752C63.2812 22.2284 77.9719 7.03125 96.0938 7.03125H100.781C118.903 7.03125 133.594 22.2284 133.594 40.9752Z" fill="#F05454"/>
<path d="M91.4062 58.5938H105.469V93.75H91.4062V58.5938Z" fill="#F0C6A4"/>
<path d="M138.281 91.4062V133.594H58.5938V91.4062C58.5938 87.6766 60.0753 84.0998 62.7126 81.4626C65.3498 78.8253 68.9266 77.3438 72.6562 77.3438H91.4062L98.4375 86.7188L105.469 77.3438H124.219C127.948 77.3438 131.525 78.8253 134.162 81.4626C136.8 84.0998 138.281 87.6766 138.281 91.4062Z" fill="#FF8080"/>
<path d="M77.3438 37.5H119.531V51.5625C119.531 56.5353 117.556 61.3044 114.039 64.8208C110.523 68.3371 105.754 70.3125 100.781 70.3125H96.0938C91.1209 70.3125 86.3518 68.3371 82.8355 64.8208C79.3192 61.3044 77.3438 56.5353 77.3438 51.5625V37.5Z" fill="#F7CCA9"/>
<path d="M110.156 51.5625C111.451 51.5625 112.5 50.5132 112.5 49.2188C112.5 47.9243 111.451 46.875 110.156 46.875C108.862 46.875 107.812 47.9243 107.812 49.2188C107.812 50.5132 108.862 51.5625 110.156 51.5625Z" fill="#596063"/>
<path d="M98.4375 86.7188L89.0625 93.75L77.3438 77.3438H91.4062L98.4375 86.7188Z" fill="#FF8080"/>
<path d="M119.531 77.3438L107.812 93.75L98.4375 86.7188L105.469 77.3438H119.531Z" fill="#FF8080"/>
<path d="M86.7188 63.2812H21.0938C15.9161 63.2812 11.7188 67.4786 11.7188 72.6562V119.531C11.7188 124.709 15.9161 128.906 21.0938 128.906H86.7188C91.8964 128.906 96.0938 124.709 96.0938 119.531V72.6562C96.0938 67.4786 91.8964 63.2812 86.7188 63.2812Z" fill="white"/>
<path d="M70.3125 96.0937C70.3105 99.4361 69.2871 102.698 67.3795 105.442C65.4719 108.187 62.7711 110.283 59.639 111.449C56.5069 112.616 53.093 112.798 49.8548 111.97C46.6166 111.142 43.7088 109.344 41.5208 106.818C39.3328 104.291 37.9693 101.156 37.6128 97.8328C37.2564 94.5096 37.924 91.1567 39.5263 88.2235C41.1286 85.2903 43.5891 82.9168 46.578 81.4211C49.567 79.9253 52.9417 79.3787 56.25 79.8545C60.1546 80.4186 63.7254 82.3706 66.308 85.353C68.8907 88.3354 70.3123 92.1485 70.3125 96.0937Z" fill="#F05454"/>
<path d="M86.7188 51.5625C88.0132 51.5625 89.0625 50.5132 89.0625 49.2188C89.0625 47.9243 88.0132 46.875 86.7188 46.875C85.4243 46.875 84.375 47.9243 84.375 49.2188C84.375 50.5132 85.4243 51.5625 86.7188 51.5625Z" fill="#596063"/>
<path d="M7.03125 128.906H142.969V138.281H7.03125V128.906Z" fill="#F05454"/>
<path d="M86.7188 51.5625C88.0132 51.5625 89.0625 50.5132 89.0625 49.2188C89.0625 47.9243 88.0132 46.875 86.7188 46.875C85.4243 46.875 84.375 47.9243 84.375 49.2188C84.375 50.5132 85.4243 51.5625 86.7188 51.5625Z" fill="#060930"/>
<path d="M110.156 51.5625C111.451 51.5625 112.5 50.5132 112.5 49.2188C112.5 47.9243 111.451 46.875 110.156 46.875C108.862 46.875 107.812 47.9243 107.812 49.2188C107.812 50.5132 108.862 51.5625 110.156 51.5625Z" fill="#060930"/>
<path d="M142.969 126.562H140.625V91.4062C140.62 87.6255 139.311 83.962 136.92 81.0335C134.529 78.105 131.201 76.0905 127.497 75.3296C130.137 73.2683 132.27 70.6302 133.733 67.6173C135.196 64.6043 135.95 61.2965 135.938 57.9472V40.9752C135.938 20.966 120.166 4.6875 100.781 4.6875H96.0938C76.7086 4.6875 60.9375 20.966 60.9375 40.9752V57.9472C60.9375 58.9472 61.0038 59.9462 61.1361 60.9375H21.0938C17.9868 60.941 15.0081 62.1768 12.8112 64.3737C10.6143 66.5706 9.37849 69.5493 9.375 72.6562V119.531C9.37235 122.068 10.1975 124.537 11.7252 126.562H7.03125C6.40965 126.562 5.81351 126.809 5.37397 127.249C4.93443 127.689 4.6875 128.285 4.6875 128.906V138.281C4.6875 138.903 4.93443 139.499 5.37397 139.939C5.81351 140.378 6.40965 140.625 7.03125 140.625H142.969C143.59 140.625 144.186 140.378 144.626 139.939C145.066 139.499 145.312 138.903 145.312 138.281V128.906C145.312 128.285 145.066 127.689 144.626 127.249C144.186 126.809 143.59 126.562 142.969 126.562ZM135.938 91.4062V126.562H128.9C130.427 124.537 131.253 122.068 131.25 119.531C131.25 118.91 131.003 118.314 130.564 117.874C130.124 117.434 129.528 117.188 128.906 117.188H98.4375V89.6484L106.406 95.625C106.656 95.8124 106.941 95.948 107.244 96.0238C107.547 96.0996 107.862 96.114 108.171 96.0662C108.48 96.0184 108.776 95.9095 109.042 95.7456C109.308 95.5818 109.538 95.3665 109.72 95.1123L120.737 79.6875H124.219C127.326 79.691 130.304 80.9268 132.501 83.1237C134.698 85.3206 135.934 88.2993 135.938 91.4062ZM82.6312 60.9375C80.7035 58.1924 79.6749 54.9168 79.6875 51.5625V39.8438H117.188V51.5625C117.183 55.9122 115.453 60.0824 112.377 63.1581C109.301 66.2338 105.131 67.9639 100.781 67.9688H97.4561C96.5426 65.8805 95.0408 64.1036 93.134 62.8549C91.2272 61.6063 88.998 60.94 86.7188 60.9375H82.6312ZM114.977 79.6875L107.301 90.4356L101.719 86.25L106.641 79.6875H114.977ZM103.125 76.5624L98.4375 82.8123V72.6562H100.781C101.564 72.6551 102.347 72.6106 103.125 72.5229V76.5624ZM98.2031 121.875H126.162C125.676 123.245 124.778 124.431 123.59 125.271C122.403 126.11 120.985 126.561 119.531 126.562H96.0873C97.1324 125.177 97.8552 123.575 98.2031 121.875ZM65.625 57.9472V40.9752C65.625 23.5509 79.2932 9.375 96.0938 9.375H100.781C117.582 9.375 131.25 23.5509 131.25 40.9752V57.9472C131.25 67.3515 123.89 75 114.844 75H107.812V71.4469C111.922 69.9888 115.479 67.2949 117.997 63.7348C120.515 60.1748 121.869 55.9229 121.875 51.5625V37.5C121.875 36.8784 121.628 36.2823 121.189 35.8427C120.749 35.4032 120.153 35.1562 119.531 35.1562H114.844V28.125C114.844 27.5034 114.597 26.9073 114.157 26.4677C113.718 26.0282 113.122 25.7812 112.5 25.7812C111.878 25.7812 111.282 26.0282 110.843 26.4677C110.403 26.9073 110.156 27.5034 110.156 28.125V35.1562H105.469V28.125C105.469 27.5034 105.222 26.9073 104.782 26.4677C104.343 26.0282 103.747 25.7812 103.125 25.7812C102.503 25.7812 101.907 26.0282 101.468 26.4677C101.028 26.9073 100.781 27.5034 100.781 28.125V35.1562H96.0938V28.125C96.0938 27.5034 95.8468 26.9073 95.4073 26.4677C94.9677 26.0282 94.3716 25.7812 93.75 25.7812C93.1284 25.7812 92.5323 26.0282 92.0927 26.4677C91.6532 26.9073 91.4062 27.5034 91.4062 28.125V35.1562H86.7188V28.125C86.7188 27.5034 86.4718 26.9073 86.0323 26.4677C85.5927 26.0282 84.9966 25.7812 84.375 25.7812C83.7534 25.7812 83.1573 26.0282 82.7177 26.4677C82.2782 26.9073 82.0312 27.5034 82.0312 28.125V35.1562H77.3438C76.7221 35.1562 76.126 35.4032 75.6865 35.8427C75.2469 36.2823 75 36.8784 75 37.5V51.5625C75.0036 54.8151 75.7568 58.0231 77.2011 60.9375H65.8767C65.709 59.9496 65.6248 58.9492 65.625 57.9472ZM14.0625 119.531V72.6562C14.0646 70.7921 14.8061 69.0049 16.1242 67.6867C17.4424 66.3686 19.2296 65.6271 21.0938 65.625H86.7188C88.5829 65.6271 90.3701 66.3686 91.6883 67.6867C93.0064 69.0049 93.7479 70.7921 93.75 72.6562V119.531C93.7479 121.395 93.0064 123.183 91.6883 124.501C90.3701 125.819 88.5829 126.56 86.7188 126.562H21.0938C19.2296 126.56 17.4424 125.819 16.1242 124.501C14.8061 123.183 14.0646 121.395 14.0625 119.531ZM140.625 135.938H9.375V131.25H140.625V135.938Z" fill="#060930"/>
<path d="M53.9063 77.3438C50.1979 77.3438 46.5727 78.4434 43.4893 80.5037C40.4059 82.564 38.0027 85.4923 36.5835 88.9184C35.1644 92.3446 34.7931 96.1145 35.5165 99.7517C36.24 103.389 38.0258 106.73 40.648 109.352C43.2702 111.974 46.6112 113.76 50.2483 114.483C53.8855 115.207 57.6555 114.836 61.0816 113.416C64.5077 111.997 67.436 109.594 69.4963 106.511C71.5566 103.427 72.6563 99.8021 72.6563 96.0938C72.6507 91.1227 70.6734 86.3568 67.1583 82.8417C63.6433 79.3266 58.8774 77.3493 53.9063 77.3438ZM39.8438 96.0938C39.8484 92.772 41.027 89.5588 43.1714 87.0219C45.3158 84.485 48.2879 82.7878 51.5625 82.2302V84.779C50.0001 85.3328 48.6835 86.4209 47.8453 87.8511C47.0072 89.2812 46.7012 90.9616 46.9816 92.5954C47.262 94.2292 48.1106 95.7115 49.3776 96.7804C50.6446 97.8493 52.2486 98.4362 53.9063 98.4375C54.3698 98.4375 54.823 98.575 55.2084 98.8325C55.5938 99.09 55.8942 99.4561 56.0716 99.8843C56.249 100.313 56.2954 100.784 56.205 101.238C56.1145 101.693 55.8913 102.111 55.5635 102.439C55.2358 102.766 54.8182 102.99 54.3635 103.08C53.9089 103.17 53.4376 103.124 53.0093 102.947C52.5811 102.769 52.215 102.469 51.9575 102.083C51.7 101.698 51.5625 101.245 51.5625 100.781C51.5625 100.16 51.3156 99.5635 50.876 99.124C50.4365 98.6844 49.8404 98.4375 49.2188 98.4375C48.5972 98.4375 48.001 98.6844 47.5615 99.124C47.1219 99.5635 46.875 100.16 46.875 100.781C46.8769 102.235 47.3284 103.652 48.1676 104.839C49.0069 106.025 50.1927 106.923 51.5625 107.409V109.958C48.2877 109.401 45.3155 107.703 43.1711 105.166C41.0267 102.629 39.8482 99.4157 39.8438 96.0938ZM56.25 109.957V107.408C57.8125 106.855 59.129 105.767 59.9672 104.336C60.8054 102.906 61.1113 101.226 60.8309 99.5921C60.5506 97.9583 59.702 96.476 58.4349 95.4071C57.1679 94.3382 55.564 93.7513 53.9063 93.75C53.4427 93.75 52.9896 93.6125 52.6041 93.355C52.2187 93.0975 51.9183 92.7314 51.7409 92.3032C51.5635 91.8749 51.5171 91.4036 51.6075 90.949C51.698 90.4944 51.9212 90.0767 52.249 89.749C52.5768 89.4212 52.9944 89.198 53.449 89.1075C53.9037 89.0171 54.3749 89.0635 54.8032 89.2409C55.2314 89.4183 55.5975 89.7187 55.855 90.1041C56.1126 90.4896 56.25 90.9427 56.25 91.4062C56.25 92.0279 56.4969 92.624 56.9365 93.0635C57.376 93.5031 57.9722 93.75 58.5938 93.75C59.2154 93.75 59.8115 93.5031 60.251 93.0635C60.6906 92.624 60.9375 92.0279 60.9375 91.4062C60.9356 89.9528 60.4841 88.5355 59.6449 87.3488C58.8056 86.1621 57.6198 85.2642 56.25 84.7781V82.2293C59.5266 82.7826 62.5014 84.4786 64.6465 87.0164C66.7917 89.5543 67.9687 92.7699 67.9687 96.0929C67.9687 99.4159 66.7917 102.631 64.6465 105.169C62.5014 107.707 59.5266 109.403 56.25 109.956V109.957Z" fill="#060930"/>
</svg>
