<svg width="150" height="150" viewBox="0 0 150 150" fill="none" xmlns="http://www.w3.org/2000/svg">
<path d="M127.342 33.7466V73.0487C127.342 87.9246 122.934 102.066 115.037 113.82C107.14 125.758 95.7532 135.124 82.1628 141.001L74.0819 144.491L66.9192 141.368C40.1054 129.614 22.6584 103.168 22.6584 73.7834V64.2334V33.7466L74.2654 5.46378L127.342 33.7466Z" fill="#FF8181"/>
<path d="M74.0819 150C73.3472 150 72.6125 149.817 71.8781 149.633L64.7154 146.51C35.8818 133.838 17.1489 105.372 17.1489 73.783V33.7466C17.1489 31.7263 18.251 29.89 20.0873 28.9714L71.6943 0.688641C73.3472 -0.229547 75.3674 -0.229547 77.0203 0.688641L129.913 28.9714C131.749 29.8896 132.851 31.7263 132.851 33.7466V73.0487C132.851 88.8431 128.26 104.086 119.628 116.942C111.18 129.614 99.0589 139.715 84.3665 146.143L76.2856 149.633C75.5509 149.817 74.8166 150 74.0819 150ZM28.1682 37.0523V73.7834C28.1682 100.781 44.33 125.39 69.1232 136.41L74.0819 138.613L79.9587 136.042C92.6309 130.533 103.099 121.901 110.446 110.881C117.975 99.8621 121.832 86.8225 121.832 73.2322V37.0523L74.2654 11.708L28.1682 37.0523Z" fill="#060930"/>
<path d="M66.7357 95.6382C65.2663 95.6382 63.6134 94.9035 62.5117 93.6179L48.554 77.2726C46.5338 74.8851 46.9011 71.3958 49.1048 69.5591C51.4924 67.5389 54.9817 67.9062 56.8184 70.1099L67.2868 82.4148L95.5696 59.2741C97.9572 57.4377 101.446 57.6212 103.283 60.0088C105.12 62.3964 104.936 65.8856 102.548 67.7223L70.2253 94.3523C69.1232 95.2708 68.0212 95.6382 66.7357 95.6382Z" fill="#060930"/>
</svg>
