<svg width="150" height="150" viewBox="0 0 150 150" fill="none" xmlns="http://www.w3.org/2000/svg">
<path d="M129.637 34.1201V136.43C129.637 142.346 124.84 147.143 118.924 147.143H31.0766C25.1601 147.143 20.3635 142.346 20.3635 136.43V34.1201C20.3635 28.2036 25.1598 23.407 31.0766 23.407H48.5746V35.9054H101.247V23.407H118.923C124.84 23.407 129.637 28.2036 129.637 34.1201Z" fill="#FF8080"/>
<path d="M101.247 23.407V35.9054H48.575V13.5869H61.6093C62.951 7.35598 68.4485 2.89877 74.822 2.87383C81.22 2.82974 86.7551 7.31805 88.0347 13.5869H101.247V23.407Z" fill="#F05454"/>
<path d="M118.924 19.6576H105.355V13.587C105.355 11.6229 103.212 10.7302 101.248 10.7302H90.7137C88.3586 4.04579 81.9025 -0.30684 74.8226 0.0171462C67.7592 -0.2484 61.3345 4.0827 58.9316 10.7302H48.5756C46.6115 10.7302 44.6474 11.6229 44.6474 13.587V19.6576H31.0773C23.0357 19.7434 16.4568 26.0871 16.0789 34.1202V136.43C16.0789 144.286 23.2209 150 31.0773 150H118.924C126.781 150 133.923 144.286 133.923 136.43V34.1202C133.545 26.0871 126.966 19.7434 118.924 19.6576ZM51.7892 17.872H61.6096C63.3515 17.7226 64.7589 16.3891 65.0022 14.6581C66.0596 10.0532 70.0995 6.74773 74.8226 6.62333C79.502 6.76516 83.4811 10.0812 84.4643 14.6581C84.7845 16.4174 86.2524 17.7383 88.0353 17.872H98.2129V32.1561H51.7892V17.872ZM126.781 136.43C126.781 140.358 122.853 142.858 118.924 142.858H31.0773C27.1491 142.858 23.2209 140.358 23.2209 136.43V34.1202C23.5852 30.0314 26.9727 26.8745 31.0773 26.7997H44.6471V35.9058C44.8357 37.9065 46.5685 39.4031 48.5753 39.2985H101.248C103.291 39.4102 105.078 37.9342 105.354 35.9058V26.7997H118.924C123.028 26.8749 126.416 30.0314 126.78 34.1202V136.43H126.781Z" fill="#060930"/>
<path d="M44.8249 99.1132C43.8742 99.1436 42.9589 98.7512 42.3253 98.0418L35.0049 90.5426C33.6218 89.0935 33.6218 86.8136 35.0049 85.3646C36.4416 84.0519 38.6647 84.1312 40.0044 85.543L44.8253 90.5426L56.2526 79.6511C57.6894 78.3384 59.9125 78.4177 61.2522 79.8295C62.6329 81.096 62.7252 83.2423 61.4583 84.6226C61.3927 84.6944 61.3236 84.7631 61.2522 84.8287L47.3252 98.0414C46.6656 98.7147 45.7672 99.0995 44.8249 99.1132Z" fill="#060930"/>
<path d="M112.496 94.6489H71.4292C69.4569 94.6489 67.8582 93.0502 67.8582 91.0779C67.8582 89.1056 69.4569 87.5069 71.4292 87.5069H112.496C114.468 87.5069 116.067 89.1056 116.067 91.0779C116.067 93.0502 114.468 94.6489 112.496 94.6489Z" fill="#060930"/>
<path d="M44.8249 70.5448C43.8742 70.5752 42.9589 70.1828 42.3253 69.4733L35.0049 61.9741C33.6218 60.5251 33.6218 58.2452 35.0049 56.7962C36.4416 55.4835 38.6647 55.5628 40.0044 56.9746L44.8253 61.9741L56.2526 51.0827C57.6894 49.77 59.9125 49.8493 61.2522 51.2611C62.6329 52.5276 62.7252 54.6738 61.4583 56.0542C61.3927 56.126 61.3236 56.1947 61.2522 56.2603L47.3252 69.473C46.6656 70.1463 45.7672 70.5314 44.8249 70.5448Z" fill="#060930"/>
<path d="M112.496 66.0812H71.4292C69.4569 66.0812 67.8582 64.4824 67.8582 62.5101C67.8582 60.5378 69.4569 58.9391 71.4292 58.9391H112.496C114.468 58.9391 116.067 60.5378 116.067 62.5101C116.067 64.4821 114.468 66.0812 112.496 66.0812Z" fill="#060930"/>
<path d="M44.8249 127.681C43.8742 127.712 42.9589 127.319 42.3253 126.61L35.0049 119.111C33.6218 117.661 33.6218 115.382 35.0049 113.933C36.4416 112.62 38.6647 112.699 40.0044 114.111L44.8253 119.111L56.2526 108.219C57.6894 106.906 59.9125 106.986 61.2522 108.397C62.6329 109.664 62.7252 111.81 61.4583 113.191C61.3927 113.262 61.3236 113.331 61.2522 113.397L47.3252 126.609C46.6656 127.283 45.7672 127.667 44.8249 127.681Z" fill="#060930"/>
<path d="M112.496 123.217H71.4292C69.4569 123.217 67.8582 121.618 67.8582 119.646C67.8582 117.674 69.4569 116.075 71.4292 116.075H112.496C114.468 116.075 116.067 117.674 116.067 119.646C116.067 121.618 114.468 123.217 112.496 123.217Z" fill="#060930"/>
</svg>
