<svg width="15" height="15" viewBox="0 0 15 15" fill="none" xmlns="http://www.w3.org/2000/svg">
<g clip-path="url(#clip0_101_7)">
<path d="M14.9609 5.75392C14.8627 5.45019 14.5933 5.23446 14.2746 5.20574L9.94517 4.81262L8.2332 0.8056C8.10697 0.511937 7.81949 0.321846 7.50008 0.321846C7.18066 0.321846 6.89318 0.511937 6.76695 0.806287L5.05498 4.81262L0.724885 5.20574C0.406732 5.23515 0.138017 5.45019 0.0392524 5.75392C-0.0595127 6.05766 0.0316991 6.3908 0.272374 6.60081L3.5449 9.47083L2.57991 13.7216C2.50929 14.0342 2.6306 14.3572 2.88993 14.5447C3.02933 14.6454 3.19241 14.6967 3.35687 14.6967C3.49866 14.6967 3.63931 14.6585 3.76554 14.5829L7.50008 12.3509L11.2332 14.5829C11.5064 14.7473 11.8508 14.7323 12.1095 14.5447C12.369 14.3567 12.4902 14.0335 12.4196 13.7216L11.4546 9.47083L14.7271 6.60138C14.9678 6.3908 15.0597 6.05823 14.9609 5.75392Z" fill="#FFC107"/>
</g>
<defs>
<clipPath id="clip0_101_7">
<rect width="15" height="15" fill="white"/>
</clipPath>
</defs>
</svg>
