<svg width="430" height="362" viewBox="0 0 430 362" fill="none" xmlns="http://www.w3.org/2000/svg">
<path opacity="0.24" d="M264.615 346.259C289.143 333.764 308.701 312.486 334.252 302.256C352.268 295.036 372.562 293.634 389.335 283.863C413.495 269.827 425.39 241.135 428.853 213.455C431.223 194.499 430.291 174.67 422.526 157.208C407.087 122.493 369.156 104.583 342.052 77.8909C322.932 59.0962 308.689 35.278 287.153 19.2651C256.551 -3.36909 212.558 -6.35786 179.195 11.8851C155.036 25.0817 137.468 47.417 117.704 66.6026C102.84 81.0191 86.4983 93.8304 68.9477 104.824C53.4627 114.526 36.8388 122.964 24.0228 135.988C15.1275 145.159 8.41088 156.212 4.37023 168.328C0.329583 180.444 -0.931526 193.313 0.680295 205.983C2.98119 223.455 10.8042 239.71 14.7733 256.884C21.86 287.611 18.2936 324.28 41.5096 345.627C70.1212 371.94 115.794 358.272 150.48 359.732C189.146 361.318 228.894 364.479 264.615 346.259Z" fill="#7A7A7A"/>
<path d="M57.5353 342.949L55.6831 359.18H150.767L148.616 343.868L57.5353 342.949Z" fill="#F05454"/>
<path d="M57.5353 342.949L55.6831 359.18H150.767L148.616 343.868L57.5353 342.949Z" fill="url(#paint0_linear_97_272)"/>
<path d="M130.876 165.255L169.692 256.7L269.401 216.846C269.401 216.846 275.096 211.868 275.096 215.788V221.835C275.096 221.835 296.828 219.696 305.007 215.075C313.187 210.454 308.206 221.122 305.364 224.329C302.523 227.536 285.059 239.629 278.294 239.273C271.529 238.917 258.357 241.4 258.357 241.4C258.357 241.4 180.725 283.748 171.82 284.104C162.916 284.461 150.457 279.506 150.457 279.506L128.598 168.933L130.876 165.255Z" fill="url(#paint1_linear_97_272)"/>
<path opacity="0.24" d="M309.23 249.584C364.297 249.584 408.939 204.979 408.939 149.955C408.939 94.9309 364.297 50.3253 309.23 50.3253C254.162 50.3253 209.521 94.9309 209.521 149.955C209.521 204.979 254.162 249.584 309.23 249.584Z" fill="#7A7A7A"/>
<path d="M130.105 161.013C130.105 161.013 170.371 249.63 176.399 248.561C182.428 247.492 198.12 241.446 198.12 241.446C198.12 241.446 201.33 243.227 201.686 245.365C202.043 247.504 205.954 268.138 205.241 270.655C204.528 273.172 173.558 288.438 168.208 286.656C162.859 284.875 150.434 279.472 150.434 279.472L132.982 222.547L130.105 161.013Z" fill="#C04949"/>
<path d="M158.256 233.617C155.754 237.431 152.9 241.003 149.731 244.285C149.731 267.586 150.008 290.841 149.731 314.096C149.731 316.395 149.731 318.694 149.628 320.993C149.559 327.511 149.432 334.005 149.225 340.535C149.298 341.684 149.072 342.832 148.569 343.868C147.84 344.97 146.75 345.783 145.486 346.167C140.528 348.11 134.983 347.627 129.679 347.179C111.272 345.585 92.8381 344.799 74.3772 344.822C69.6259 344.822 64.8976 344.903 60.1347 345.006C59.4156 345.11 58.684 344.937 58.0869 344.524C57.7238 344.089 57.5101 343.549 57.4772 342.983C51.4834 308.348 73.5834 273.345 67.1409 238.825C65.9445 232.284 63.7471 226.03 61.8489 219.639C58.7887 209.604 56.3843 199.223 56.5338 188.728C56.5901 185.738 56.8708 182.756 57.3737 179.808C58.528 172.35 61.556 165.306 66.1746 159.335C68.9817 155.817 72.5941 152.737 76.9773 151.702C80.4286 150.863 83.8799 151.346 87.4003 151.851C94.0729 152.76 100.722 153.702 107.384 154.633C114.286 155.599 123.57 158.806 130.151 160.933C135.328 173.313 140.85 185.751 148.995 196.442C151.825 200.178 154.966 203.672 157.52 207.58C160.221 211.426 161.813 215.94 162.122 220.628C162.101 225.237 160.76 229.745 158.256 233.617Z" fill="#F05454"/>
<path d="M149.674 320.993C149.437 321.982 149.109 322.948 148.696 323.878C136.249 323.798 122.593 323.269 113.378 314.9C110.272 312.072 107.844 308.451 104.37 306.049C100.895 303.646 95.7529 302.819 92.7387 305.75C91.5867 307.034 90.7097 308.54 90.1617 310.176C86.4343 319.272 82.6992 328.369 78.9564 337.465C77.8059 340.098 76.7245 342.799 74.5962 344.673C74.5548 344.734 74.4939 344.778 74.4236 344.799C69.6723 344.799 64.944 344.88 60.1811 344.983C59.462 345.087 58.7304 344.914 58.1333 344.501C57.7702 344.066 57.5565 343.526 57.5236 342.96C51.5298 308.325 73.6298 273.322 67.1873 238.802C65.9449 232.284 63.7475 226.03 61.8493 219.639C58.7891 209.604 56.3846 199.223 56.5342 188.728C56.5904 185.738 56.8712 182.756 57.374 179.808C60.9404 179.072 65.059 180.394 68.4988 182.003C79.4741 187.107 89.644 194.717 95.7414 205.189C99.1927 211.098 101.229 217.719 103.357 224.237C106.671 234.33 110.264 244.323 114.137 254.217C120.407 270.172 127.689 286.22 139.907 298.221C144.29 302.52 148.616 307.98 149.824 314.05C150.28 316.347 150.229 318.717 149.674 320.993Z" fill="url(#paint2_linear_97_272)"/>
<path d="M123.973 53.5785C127.425 50.0264 132.544 48.739 137.457 48.5435C144.635 48.2677 152.09 50.1069 157.624 54.6935C160.621 57.3259 163.139 60.4567 165.067 63.9472C170.429 72.9768 173.295 83.2669 173.374 93.7659C173.404 104.285 170.212 114.562 164.228 123.217C159.074 130.505 154.587 138.161 146.971 142.839C139.292 147.536 130.308 149.648 121.339 148.863C120.687 148.836 120.045 148.696 119.441 148.449C118.358 147.798 117.543 146.783 117.14 145.587C114.918 140.168 114.126 134.271 114.839 128.459C115.565 122.676 116.766 116.963 118.428 111.377C122.558 95.8351 126.481 79.8451 124.905 63.8437C124.503 60.0848 123.617 57.3374 123.973 53.5785Z" fill="#7A7A7A"/>
<path d="M145.993 66.8554C149.111 71.0627 150.307 76.316 151.906 81.2935C153.505 86.2709 155.841 91.3978 160.281 94.1452C161.432 94.8349 162.697 95.4556 163.181 96.6741C164.02 98.8467 161.685 100.847 160.995 103.065C160.304 105.284 161.34 107.733 161.075 110.066C160.937 111.354 160.397 112.584 160.166 113.871C159.913 115.365 160.097 116.917 159.787 118.4C158.97 122.424 154.909 124.906 151.032 126.274C147.155 127.642 142.898 128.573 139.884 131.309C136.674 134.264 135.524 138.781 134.535 143.035L128.495 168.899C127.862 171.589 127.344 174.646 128.897 176.946C137.687 189.406 143.082 204.339 141.886 219.478C134.454 199.097 119.556 182.371 103.921 167.278C100.47 163.944 96.938 160.611 94.476 156.507C89.4946 148.242 89.4831 137.804 91.8185 128.436C96.2247 110.79 108.005 96.0304 115.978 79.6381C117.853 75.7757 119.636 71.5914 123.065 69.051C126.251 66.637 130.358 65.9473 134.304 65.3265C138.446 64.6943 143.531 63.4758 145.993 66.8554Z" fill="url(#paint3_linear_97_272)"/>
<path d="M132.164 131.838C131.275 135.638 130.122 139.372 128.713 143.012C125.545 150.452 120.529 156.961 114.138 161.922C107.748 166.883 100.196 170.131 92.1978 171.359C80.6933 173.014 68.28 170.416 57.6844 175.325C56.1773 158.369 55.0844 139.747 65.0703 125.953C68.3375 121.424 72.7092 117.607 74.9641 112.503C79.0137 103.307 75.2977 92.7658 75.7809 82.7649C76.4942 68.4073 86.7216 55.1763 100.182 50.0954C109.385 46.5778 121.074 46.4054 130.208 50.4747C136.858 53.4405 137.962 58.0386 138.699 64.8093C141.23 87.4435 137.778 109.882 132.164 131.838Z" fill="#9C9C9C"/>
<path d="M239.582 273.862C246.956 271.839 254.342 269.804 261.521 267.183C275.729 261.999 288.993 254.539 302.189 247.193C304.49 249.63 300.394 254.09 302.35 256.826C302.818 257.401 303.418 257.855 304.099 258.148C312.29 262.229 322.138 259.562 331.215 260.804C331.963 262.999 329.662 264.953 327.602 266.022C312.992 273.563 295.862 274.207 280.227 279.311C275.786 280.759 271.461 282.576 267.135 284.334C251.029 290.864 234.665 296.665 218.045 301.738C209.877 304.233 201.513 306.566 192.966 306.474C192.14 306.531 191.315 306.355 190.584 305.969C189.854 305.373 189.321 304.572 189.054 303.669C187.536 299.922 184.821 293.266 187.559 289.415C190.124 285.817 198.005 285.3 201.939 284.219L239.582 273.862Z" fill="url(#paint4_linear_97_272)"/>
<path d="M263.983 66.5911V208.925L350.876 232.41V108.1L339.234 96.6052L322.966 80.6038L263.983 66.5911Z" fill="white"/>
<path d="M333.308 113.319L325.474 83.2017L350.392 108.1L333.308 113.319Z" fill="#F05454"/>
<path d="M278.964 117.779L278.386 120.241L332.986 133.047L333.564 130.585L278.964 117.779Z" fill="#F05454"/>
<path d="M292.019 111.767L279.007 108.744L279.583 106.284L292.606 109.307L292.019 111.767Z" fill="#F05454"/>
<path d="M297.955 113.066L294.435 112.296L295.01 109.836L298.53 110.606L297.955 113.066Z" fill="#F05454"/>
<path d="M304.248 114.549L300.728 113.779L301.303 111.319L304.824 112.089L304.248 114.549Z" fill="#F05454"/>
<path d="M278.969 131.058L278.39 133.52L332.99 146.326L333.569 143.864L278.969 131.058Z" fill="#F05454"/>
<path d="M278.963 144.345L278.384 146.807L332.984 159.614L333.563 157.152L278.963 144.345Z" fill="#F05454"/>
<path d="M278.967 157.624L278.389 160.087L332.989 172.893L333.567 170.431L278.967 157.624Z" fill="#F05454"/>
<path d="M323.875 201.316L314.476 181.452L299.141 194.993L290.57 176.072L280.446 184.28L278.847 182.325L291.525 172.037L300.038 190.832L315.327 177.325L324.45 196.602L332.446 186.774L334.402 188.372L323.875 201.316Z" fill="#F05454"/>
<path d="M72.7789 202.258C72.7789 202.258 114.517 304.842 129.392 315.061C146.488 326.798 206.288 307.486 206.288 307.486C206.288 307.486 201.18 283.886 197.384 282.932C193.587 281.978 149.214 284.875 149.214 284.875L103.013 179.268C103.013 179.268 79.1063 163.473 71.0532 179.842C71.0532 179.842 67.0727 192.05 72.7789 202.258Z" fill="#F05454"/>
<path d="M149.214 284.875C149.214 284.875 121.201 224.237 120.729 223.019C120.257 221.8 148.984 249.584 148.984 249.584L149.214 284.875Z" fill="url(#paint5_linear_97_272)"/>
<defs>
<linearGradient id="paint0_linear_97_272" x1="55.6831" y1="351.064" x2="150.767" y2="351.064" gradientUnits="userSpaceOnUse">
<stop stop-opacity="0"/>
<stop offset="0.95" stop-color="#C5C5C5"/>
</linearGradient>
<linearGradient id="paint1_linear_97_272" x1="128.495" y1="224.685" x2="309.437" y2="224.685" gradientUnits="userSpaceOnUse">
<stop stop-color="#E5C5D5"/>
<stop offset="0.42" stop-color="#EAD4D1"/>
<stop offset="1" stop-color="#F0E9CB"/>
</linearGradient>
<linearGradient id="paint2_linear_97_272" x1="5377.71" y1="39402.4" x2="18773.4" y2="37182.7" gradientUnits="userSpaceOnUse">
<stop stop-opacity="0"/>
<stop offset="0.95"/>
</linearGradient>
<linearGradient id="paint3_linear_97_272" x1="7451.6" y1="19505.3" x2="12087.4" y2="19505.3" gradientUnits="userSpaceOnUse">
<stop stop-color="#E5C5D5"/>
<stop offset="0.42" stop-color="#EAD4D1"/>
<stop offset="1" stop-color="#F0E9CB"/>
</linearGradient>
<linearGradient id="paint4_linear_97_272" x1="26897.6" y1="14640.8" x2="45167.1" y2="14640.8" gradientUnits="userSpaceOnUse">
<stop stop-color="#E5C5D5"/>
<stop offset="0.42" stop-color="#EAD4D1"/>
<stop offset="1" stop-color="#F0E9CB"/>
</linearGradient>
<linearGradient id="paint5_linear_97_272" x1="4494.91" y1="13535.4" x2="2464.96" y2="14053.6" gradientUnits="userSpaceOnUse">
<stop stop-opacity="0"/>
<stop offset="0.95"/>
</linearGradient>
</defs>
</svg>
