<svg width="564" height="409" viewBox="0 0 564 409" fill="none" xmlns="http://www.w3.org/2000/svg">
<g clip-path="url(#clip0_50_26)">
<path d="M524.179 368.07H455.348V407.796H524.179V368.07Z" fill="#F05454"/>
<path d="M382.838 398.606C382.22 400.708 381.933 403.16 383.216 404.936C383.925 405.825 384.859 406.51 385.921 406.918C388.652 407.987 391.591 408.418 394.514 408.179C395.074 408.205 395.633 408.115 396.157 407.914C396.68 407.713 397.156 407.405 397.554 407.011C404.336 401.394 408.923 393.566 410.51 384.902C410.638 384.455 410.614 383.977 410.441 383.545C410.217 383.211 409.905 382.945 409.538 382.78C408.03 381.834 406.403 381.091 404.7 380.569C395.383 378.163 385.146 390.748 382.838 398.606Z" fill="#2F2E41"/>
<path d="M480.552 369.144C481.804 370.598 483.347 371.774 485.081 372.595C485.951 372.997 486.901 373.198 487.86 373.182C488.818 373.165 489.761 372.932 490.617 372.5C493.18 371.04 493.906 367.648 493.702 364.704C493.323 359.26 490.724 354.353 487.736 349.906C486.791 348.499 484.698 344.311 482.862 344.259C481.989 344.234 478.727 347.398 477.84 348.001C474.602 350.201 472.358 351.775 473.032 355.999C473.784 360.71 477.383 365.752 480.552 369.144Z" fill="#2F2E41"/>
<path d="M452.156 143.956C438.368 142.886 425.198 143.283 411.386 142.573C410.225 142.514 410.784 155.806 409.582 163.024C408.964 166.734 388.173 384.059 390.753 384.499C397.38 385.886 404.083 386.879 410.827 387.473C413.563 387.714 439.063 246.111 437.841 234.603C441.179 239.501 452.939 262.119 458.885 288.136C466.73 322.463 469.039 361.291 473.916 359.113C477.056 354.801 481.315 351.43 486.233 349.367C494.293 346.368 481.231 181.244 467.431 173.652C467.261 168.82 467.084 163.868 465.263 159.388C462.695 153.069 457.628 148.024 452.156 143.956Z" fill="#2F2E41"/>
<path d="M563.738 409H183.794V407.555H564L563.738 409Z" fill="#3F3D56"/>
<path d="M311.731 194.902H0V256.474H311.731V194.902Z" fill="#E6E6E6"/>
<path d="M311.731 97.6111H0V159.183H311.731V97.6111Z" fill="#E6E6E6"/>
<path d="M311.731 0H0V61.5721H311.731V0Z" fill="#E6E6E6"/>
<path d="M6.64551 54.9235H305.086V6.64832H6.64551V54.9235Z" fill="white"/>
<path d="M6.64551 152.749H305.086V104.474H6.64551V152.749Z" fill="white"/>
<path d="M6.64551 249.826H305.086V201.55H6.64551V249.826Z" fill="white"/>
<path d="M32.7718 48.7778C42.9251 48.7778 51.1559 40.5436 51.1559 30.3862C51.1559 20.2287 42.9251 11.9945 32.7718 11.9945C22.6185 11.9945 14.3877 20.2287 14.3877 30.3862C14.3877 40.5436 22.6185 48.7778 32.7718 48.7778Z" fill="#F05454"/>
<path d="M258.177 23.1895H76.7336V27.1876H258.177V23.1895Z" fill="#F05454"/>
<path d="M258.177 33.5847H76.7336V37.5829H258.177V33.5847Z" fill="#F05454"/>
<path d="M32.7718 147.189C42.9251 147.189 51.1559 138.954 51.1559 128.797C51.1559 118.639 42.9251 110.405 32.7718 110.405C22.6185 110.405 14.3877 118.639 14.3877 128.797C14.3877 138.954 22.6185 147.189 32.7718 147.189Z" fill="#CCCCCC"/>
<path d="M258.177 121.6H76.7336V125.598H258.177V121.6Z" fill="#CCCCCC"/>
<path d="M258.177 131.995H76.7336V135.994H258.177V131.995Z" fill="#CCCCCC"/>
<path d="M32.7718 244.479C42.9251 244.479 51.1559 236.245 51.1559 226.088C51.1559 215.93 42.9251 207.696 32.7718 207.696C22.6185 207.696 14.3877 215.93 14.3877 226.088C14.3877 236.245 22.6185 244.479 32.7718 244.479Z" fill="#CCCCCC"/>
<path d="M258.177 218.891H76.7336V222.889H258.177V218.891Z" fill="#CCCCCC"/>
<path d="M258.177 229.286H76.7336V233.284H258.177V229.286Z" fill="#CCCCCC"/>
<path d="M448.758 38.5448C441.602 26.4484 427.445 25.8846 427.445 25.8846C427.445 25.8846 413.649 24.1197 404.799 42.5428C396.55 59.7146 385.166 76.2943 402.966 80.3141L406.181 70.3026L408.173 81.0595C410.707 81.2418 413.25 81.2853 415.789 81.1897C434.852 80.574 453.006 81.3698 452.422 74.5264C451.645 65.4291 455.644 50.1841 448.758 38.5448Z" fill="#2F2E41"/>
<path d="M422.359 79.7587C422.394 81.1203 422.383 82.5563 421.707 83.7383C420.366 86.0817 417.093 86.4324 415.125 88.2794C413.054 90.2217 412.82 93.3739 412.721 96.2117C412.618 99.1785 412.531 102.243 413.613 105.007C414.276 106.529 415.114 107.97 416.11 109.298C417.312 111.032 418.525 112.757 419.749 114.475C420.403 115.443 421.132 116.357 421.928 117.211C424.121 119.445 427.128 120.682 430.131 121.564C432.071 122.134 434.166 122.578 436.091 121.959C437.364 121.462 438.538 120.74 439.556 119.827C441.044 118.759 442.366 117.478 443.479 116.023C445.096 113.677 445.543 110.741 445.878 107.912C446.869 99.5454 447.254 91.1184 447.031 82.6965C447.072 81.7788 446.908 80.8636 446.55 80.0174C445.553 78.07 442.883 77.6543 441.476 75.9791C440.273 74.547 440.224 72.503 440.235 70.6324L440.261 65.8703C440.303 65.4691 440.222 65.0646 440.029 64.7101C439.855 64.5193 439.645 64.3647 439.41 64.2553C439.176 64.146 438.922 64.0839 438.664 64.0728C435.705 63.5817 432.706 63.3809 429.709 63.4734C427.278 63.5477 422.615 63.3442 420.514 64.6983C418.607 65.9275 420.995 69.3222 421.437 71.2291C422.031 74.0339 422.34 76.8917 422.359 79.7587Z" fill="#FFB8B8"/>
<path d="M427.937 71.5812C438.563 71.5812 447.177 62.9635 447.177 52.3332C447.177 41.7028 438.563 33.0852 427.937 33.0852C417.311 33.0852 408.697 41.7028 408.697 52.3332C408.697 62.9635 417.311 71.5812 427.937 71.5812Z" fill="#FFB8B8"/>
<path d="M423.58 93.9601C413.65 62.4785 408.418 106.697 402.157 118.771C402.215 127.095 402.441 150.119 404.387 158.846C411.947 192.747 449.385 190.086 460.643 161.494C466.64 146.264 453.336 108.519 453.787 90.9067C437.3 74.1946 436.283 127.214 423.58 93.9601Z" fill="#F05454"/>
<path d="M412.679 83.1616C391.162 93.6239 401.428 121.733 393.628 140.128C387.399 165.367 371.557 173.303 407.778 173.891C415.583 150.822 407.96 125.763 418.6 102.273C419.333 93.0729 422.488 89.6131 422.208 81.8221C420.122 78.5886 414.717 82.1599 412.679 83.1616Z" fill="#575A88"/>
<path d="M445.595 37.379L431.608 30.0488L412.292 33.0475L408.296 50.7058L418.244 50.3224L421.023 43.8351V50.2151L425.613 50.039L428.278 39.7109L429.942 50.7058L446.261 50.3721L445.595 37.379Z" fill="#2F2E41"/>
<path d="M436.943 92.0221C448.018 90.7291 437.221 77.4237 446.011 77.6497C472.333 73.2207 480.207 89.5302 470.197 112.294C461.021 130.527 493.48 156.139 475.347 166.341C468.911 168.705 459.696 176.139 453.407 172.902C443.309 147.511 442.944 118.502 436.943 92.0221Z" fill="#575A88"/>
<path d="M467.768 164.506C463.912 166.351 460.862 169.285 458.28 172.693C457.734 173.414 458.467 174.76 460.104 174.738C461.628 174.718 462.538 172.763 464.062 172.743C464.528 176.817 465.371 180.839 466.581 184.757C469.62 182.086 471.441 178.327 473.182 174.674L476.624 167.454C477.888 164.803 479.152 162.151 480.291 159.444C480.601 158.811 480.793 158.127 480.856 157.425C481.006 152.767 476.415 152.739 474.435 155.654C472.27 158.843 471.596 162.674 467.768 164.506Z" fill="#FFB8B8"/>
<path d="M468.559 84.4229C471.503 87.4824 474.467 90.5679 476.751 94.1465C479.036 97.7251 490.855 129.91 491.334 130.592C493.041 133.111 491.047 139.623 490.947 139.996C490.749 141.166 488.284 152.843 487.666 155.422C487.234 157.226 487.239 159.105 486.956 160.939C486.673 162.773 486.037 164.659 484.625 165.862C484.445 166.035 484.224 166.158 483.983 166.221C483.2 166.374 482.666 165.468 482.392 164.718C481.538 162.384 480.676 160.004 479.171 158.027C477.666 156.049 475.385 154.5 472.901 154.508C472.695 154.016 472.61 153.482 472.652 152.951C472.695 152.42 472.863 151.906 473.144 151.454C473.642 150.514 474.372 149.718 474.921 148.808C475.616 147.568 476.09 146.215 476.319 144.811C477.546 138.363 476.311 131.689 472.858 126.107C472.055 124.784 471.084 123.57 469.97 122.496C468.756 121.358 467.337 120.444 466.217 119.215C464.49 117.17 463.446 114.635 463.231 111.967C463.024 109.316 463.095 106.651 463.442 104.015C463.945 98.7839 464.593 93.545 465.34 88.3429C465.397 87.6653 465.573 87.0029 465.858 86.3856C466.445 85.2914 467.436 84.9508 468.559 84.4229Z" fill="#575A88"/>
<path d="M404.322 156.699C402.342 153.784 397.752 153.812 397.902 158.47C397.965 159.172 398.156 159.856 398.466 160.489C399.605 163.196 400.87 165.848 402.133 168.499L405.576 175.72C407.317 179.372 409.137 183.131 412.177 185.802C413.387 181.884 414.23 177.862 414.696 173.788C416.219 173.808 417.13 175.763 418.653 175.783C420.291 175.805 421.024 174.46 420.477 173.738C417.896 170.33 414.846 167.396 410.99 165.551C407.162 163.72 406.488 159.888 404.322 156.699Z" fill="#FFB8B8"/>
<path d="M412.899 87.4307C413.185 88.048 413.36 88.7104 413.418 89.388C414.165 94.5902 414.812 99.829 415.316 105.06C415.663 107.696 415.733 110.361 415.527 113.012C415.312 115.681 414.268 118.215 412.541 120.26C411.421 121.489 410.001 122.404 408.788 123.541C407.673 124.615 406.703 125.829 405.9 127.152C402.447 132.734 401.212 139.408 402.439 145.856C402.668 147.26 403.141 148.613 403.837 149.853C404.386 150.763 405.116 151.559 405.614 152.499C405.894 152.952 406.063 153.465 406.105 153.996C406.147 154.528 406.062 155.061 405.857 155.553C403.372 155.545 401.091 157.094 399.586 159.072C398.081 161.049 397.219 163.429 396.366 165.763C396.092 166.513 395.558 167.419 394.775 167.266C394.534 167.203 394.313 167.08 394.133 166.907C392.721 165.704 392.084 163.818 391.801 161.984C391.518 160.15 391.524 158.271 391.092 156.467C390.474 153.888 388.008 142.211 387.811 141.041C387.71 140.668 385.717 134.156 387.423 131.637C387.903 130.955 399.721 98.7702 402.006 95.1916C404.291 91.6131 407.255 88.5276 410.198 85.468C411.321 85.996 412.313 86.3366 412.899 87.4307Z" fill="#575A88"/>
</g>
<defs>
<clipPath id="clip0_50_26">
<rect width="564" height="409" fill="white"/>
</clipPath>
</defs>
</svg>
