<svg width="2500" height="2500" viewBox="0 0 2500 2500" fill="none" xmlns="http://www.w3.org/2000/svg">
<path d="M2500 1308.59C2500 1396 2479 1477.05 2437.01 1551.27C2395.02 1625.49 2338.87 1683.59 2268.07 1724.12C2270.02 1737.3 2271 1757.81 2271 1785.64C2271 1917.97 2226.56 2030.27 2138.67 2123.05C2050.29 2216.31 1943.85 2262.7 1819.34 2262.7C1763.67 2262.7 1710.45 2252.44 1660.16 2231.93C1621.09 2312.01 1564.94 2376.46 1491.21 2425.78C1417.97 2475.59 1337.4 2500 1250 2500C1160.64 2500 1079.59 2476.07 1007.32 2427.25C934.57 2378.91 878.906 2313.96 839.844 2231.93C789.551 2252.44 736.816 2262.7 680.664 2262.7C556.152 2262.7 449.219 2216.31 359.863 2123.05C270.508 2030.27 226.074 1917.48 226.074 1785.64C226.074 1771 228.027 1750.49 231.445 1724.12C160.645 1683.11 104.492 1625.49 62.5 1551.27C20.9961 1477.05 0 1396 0 1308.59C0 1215.82 23.4375 1130.37 69.8242 1053.22C116.211 976.074 178.711 918.945 256.836 881.836C236.328 826.172 226.074 770.02 226.074 714.355C226.074 582.52 270.508 469.727 359.863 376.953C449.219 284.18 556.152 237.305 680.664 237.305C736.328 237.305 789.551 247.559 839.844 268.066C878.906 187.988 935.059 123.535 1008.79 74.2187C1082.03 24.9023 1162.6 0 1250 0C1337.4 0 1417.97 24.9023 1491.21 73.7305C1564.45 123.047 1621.09 187.5 1660.16 267.578C1710.45 247.07 1763.18 236.816 1819.34 236.816C1943.85 236.816 2050.29 283.203 2138.67 376.465C2227.05 469.727 2271 582.031 2271 713.867C2271 775.391 2261.72 831.055 2243.16 881.348C2321.29 918.457 2383.79 975.586 2430.18 1052.73C2476.56 1130.37 2500 1215.82 2500 1308.59V1308.59ZM1196.78 1685.06L1712.89 912.109C1726.07 891.602 1729.98 869.141 1725.59 845.215C1720.7 821.289 1708.5 802.246 1687.99 789.551C1667.48 776.367 1645.02 771.973 1621.09 775.391C1596.68 779.297 1577.15 791.016 1562.5 811.523L1107.91 1495.12L898.438 1286.13C879.883 1267.58 858.398 1258.79 834.473 1259.77C810.059 1260.74 789.063 1269.53 770.508 1286.13C753.906 1302.73 745.605 1323.73 745.605 1349.12C745.605 1374.02 753.906 1395.02 770.508 1412.11L1058.11 1699.71L1072.27 1710.94C1088.87 1722.17 1105.96 1727.54 1122.56 1727.54C1155.27 1727.05 1180.18 1713.38 1196.78 1685.06V1685.06Z" fill="#333333"/>
</svg>
