<svg width="168" height="26" viewBox="0 0 168 26" fill="none" xmlns="http://www.w3.org/2000/svg">
<path d="M3.935 12.125V18.53C3.935 18.95 3.79 19.3 3.5 19.58C3.21 19.86 2.855 20 2.435 20C2.015 20 1.66 19.86 1.37 19.58C1.09 19.3 0.95 18.95 0.95 18.53V2.27C0.95 1.85 1.09 1.5 1.37 1.22C1.66 0.939999 2.015 0.799999 2.435 0.799999H7.46C8.26 0.799999 9.01 0.949999 9.71 1.25C10.42 1.54 11.035 1.94 11.555 2.45C12.085 2.96 12.5 3.565 12.8 4.265C13.1 4.955 13.25 5.695 13.25 6.485C13.25 7.285 13.1 8.03 12.8 8.72C12.5 9.4 12.085 9.995 11.555 10.505C11.035 11.005 10.42 11.4 9.71 11.69C9.01 11.98 8.26 12.125 7.46 12.125H3.935ZM3.935 3.755V9.14H7.475C7.855 9.14 8.215 9.065 8.555 8.915C8.895 8.765 9.19 8.565 9.44 8.315C9.7 8.065 9.9 7.775 10.04 7.445C10.19 7.115 10.265 6.77 10.265 6.41C10.265 6.04 10.19 5.695 10.04 5.375C9.89 5.045 9.685 4.76 9.425 4.52C9.175 4.28 8.88 4.095 8.54 3.965C8.2 3.825 7.84 3.755 7.46 3.755H3.935ZM31.2793 6.485C31.2793 7.105 31.1843 7.695 30.9943 8.255C30.8143 8.815 30.5543 9.325 30.2143 9.785C29.8743 10.245 29.4693 10.65 28.9993 11C28.5393 11.34 28.0343 11.605 27.4843 11.795L31.0393 17.795C31.1493 17.975 31.2143 18.165 31.2343 18.365C31.2543 18.565 31.2343 18.76 31.1743 18.95C31.1143 19.13 31.0193 19.3 30.8893 19.46C30.7693 19.61 30.6193 19.73 30.4393 19.82C30.2593 19.92 30.0743 19.98 29.8843 20C29.6943 20.02 29.5093 20.005 29.3293 19.955C29.1493 19.895 28.9793 19.81 28.8193 19.7C28.6693 19.58 28.5443 19.43 28.4443 19.25L24.2593 12.125H21.9643V18.53C21.9643 18.95 21.8193 19.3 21.5293 19.58C21.2393 19.86 20.8843 20 20.4643 20C20.0443 20 19.6893 19.86 19.3993 19.58C19.1193 19.3 18.9793 18.95 18.9793 18.53V2.27C18.9793 1.85 19.1193 1.5 19.3993 1.22C19.6893 0.939999 20.0443 0.799999 20.4643 0.799999H25.4893C26.2893 0.799999 27.0393 0.949999 27.7393 1.25C28.4493 1.54 29.0643 1.94 29.5843 2.45C30.1143 2.96 30.5293 3.565 30.8293 4.265C31.1293 4.955 31.2793 5.695 31.2793 6.485ZM21.9643 3.755V9.14H25.5043C25.8843 9.14 26.2443 9.065 26.5843 8.915C26.9243 8.765 27.2193 8.565 27.4693 8.315C27.7293 8.065 27.9293 7.775 28.0693 7.445C28.2193 7.115 28.2943 6.77 28.2943 6.41C28.2943 6.04 28.2193 5.695 28.0693 5.375C27.9193 5.045 27.7143 4.76 27.4543 4.52C27.2043 4.28 26.9093 4.095 26.5693 3.965C26.2293 3.825 25.8693 3.755 25.4893 3.755H21.9643ZM45.9216 0.664999C45.0216 0.664999 44.1566 0.784999 43.3266 1.025C42.4966 1.255 41.7216 1.58 41.0016 2C40.2816 2.42 39.6266 2.93 39.0366 3.53C38.4466 4.12 37.9416 4.78 37.5216 5.51C37.1016 6.23 36.7766 7.005 36.5466 7.835C36.3166 8.665 36.2016 9.53 36.2016 10.43C36.2016 11.78 36.4516 13.045 36.9516 14.225C37.4616 15.405 38.1516 16.44 39.0216 17.33C39.9016 18.21 40.9316 18.905 42.1116 19.415C43.3016 19.925 44.5716 20.18 45.9216 20.18C47.2716 20.18 48.5366 19.925 49.7166 19.415C50.9066 18.905 51.9416 18.21 52.8216 17.33C53.7116 16.44 54.4116 15.405 54.9216 14.225C55.4416 13.045 55.7016 11.78 55.7016 10.43C55.7016 9.53 55.5816 8.665 55.3416 7.835C55.1116 7.005 54.7866 6.23 54.3666 5.51C53.9466 4.78 53.4366 4.12 52.8366 3.53C52.2366 2.93 51.5766 2.42 50.8566 2C50.1366 1.58 49.3566 1.255 48.5166 1.025C47.6866 0.784999 46.8216 0.664999 45.9216 0.664999ZM45.9366 3.68C46.8766 3.68 47.7566 3.86 48.5766 4.22C49.4066 4.57 50.1266 5.05 50.7366 5.66C51.3466 6.27 51.8266 6.985 52.1766 7.805C52.5266 8.625 52.7016 9.5 52.7016 10.43C52.7016 11.38 52.5266 12.265 52.1766 13.085C51.8266 13.905 51.3466 14.62 50.7366 15.23C50.1266 15.84 49.4066 16.32 48.5766 16.67C47.7566 17.02 46.8766 17.195 45.9366 17.195C44.9966 17.195 44.1166 17.02 43.2966 16.67C42.4766 16.32 41.7616 15.84 41.1516 15.23C40.5516 14.62 40.0766 13.905 39.7266 13.085C39.3766 12.265 39.2016 11.38 39.2016 10.43C39.2016 9.5 39.3766 8.625 39.7266 7.805C40.0766 6.985 40.5516 6.27 41.1516 5.66C41.7616 5.05 42.4766 4.57 43.2966 4.22C44.1166 3.86 44.9966 3.68 45.9366 3.68ZM57.8424 25.295C58.7424 25.295 59.5824 25.125 60.3624 24.785C61.1424 24.455 61.8224 23.995 62.4024 23.405C62.9924 22.825 63.4524 22.14 63.7824 21.35C64.1224 20.57 64.2924 19.735 64.2924 18.845L64.3074 2.345C64.3074 1.915 64.1624 1.55 63.8724 1.25C63.5924 0.949999 63.2324 0.799999 62.7924 0.799999C62.5824 0.799999 62.3874 0.839999 62.2074 0.919999C62.0274 0.999999 61.8674 1.11 61.7274 1.25C61.5974 1.39 61.4924 1.555 61.4124 1.745C61.3424 1.935 61.3074 2.135 61.3074 2.345V18.74C61.3074 19.22 61.2174 19.675 61.0374 20.105C60.8574 20.535 60.6074 20.91 60.2874 21.23C59.9774 21.55 59.6074 21.805 59.1774 21.995C58.7474 22.195 58.2824 22.3 57.7824 22.31C57.4424 22.33 57.1624 22.415 56.9424 22.565C56.7124 22.715 56.5424 22.9 56.4324 23.12C56.3224 23.34 56.2724 23.575 56.2824 23.825C56.2824 24.085 56.3424 24.32 56.4624 24.53C56.5724 24.75 56.7474 24.93 56.9874 25.07C57.2174 25.22 57.5024 25.295 57.8424 25.295ZM72.6015 20C72.2015 19.97 71.8715 19.82 71.6115 19.55C71.3515 19.27 71.2215 18.925 71.2215 18.515V2.3C71.2215 2.09 71.2565 1.895 71.3265 1.715C71.4065 1.535 71.5115 1.38 71.6415 1.25C71.7815 1.11 71.9415 0.999999 72.1215 0.919999C72.3115 0.839999 72.5115 0.799999 72.7215 0.799999H80.7315C80.9415 0.799999 81.1315 0.839999 81.3015 0.919999C81.4815 0.999999 81.6365 1.11 81.7665 1.25C81.9065 1.38 82.0115 1.535 82.0815 1.715C82.1615 1.895 82.2015 2.09 82.2015 2.3C82.2015 2.72 82.0615 3.075 81.7815 3.365C81.5015 3.645 81.1515 3.785 80.7315 3.785H74.2065V8.975H78.9165C79.1265 8.965 79.3215 9 79.5015 9.08C79.6815 9.15 79.8365 9.255 79.9665 9.395C80.1065 9.525 80.2115 9.68 80.2815 9.86C80.3615 10.04 80.4015 10.235 80.4015 10.445C80.4015 10.865 80.2565 11.21 79.9665 11.48C79.6865 11.75 79.3365 11.885 78.9165 11.885H74.2065V17.03H80.7315C81.1515 17.03 81.5015 17.175 81.7815 17.465C82.0615 17.755 82.2015 18.11 82.2015 18.53C82.2015 18.74 82.1615 18.935 82.0815 19.115C82.0115 19.295 81.9065 19.455 81.7665 19.595C81.6365 19.725 81.4815 19.83 81.3015 19.91C81.1315 19.98 80.9415 20.01 80.7315 20H72.6015ZM102.691 3.56C101.731 2.59 100.651 1.865 99.4515 1.385C98.2615 0.904999 97.0365 0.664999 95.7765 0.664999C94.8365 0.664999 93.9415 0.789999 93.0915 1.04C92.2415 1.28 91.4565 1.62 90.7365 2.06C90.0165 2.5 89.3665 3.025 88.7865 3.635C88.2065 4.245 87.7115 4.91 87.3015 5.63C86.9015 6.35 86.5915 7.12 86.3715 7.94C86.1515 8.76 86.0415 9.595 86.0415 10.445C86.0415 11.345 86.1565 12.21 86.3865 13.04C86.6165 13.86 86.9415 14.63 87.3615 15.35C87.7815 16.07 88.2865 16.73 88.8765 17.33C89.4665 17.92 90.1215 18.43 90.8415 18.86C91.5615 19.28 92.3315 19.605 93.1515 19.835C93.9715 20.065 94.8265 20.18 95.7165 20.18C96.9865 20.18 98.2165 19.945 99.4065 19.475C100.606 19.005 101.696 18.285 102.676 17.315C102.806 17.175 102.906 17.015 102.976 16.835C103.046 16.655 103.081 16.47 103.081 16.28C103.081 16.08 103.046 15.89 102.976 15.71C102.906 15.52 102.796 15.355 102.646 15.215C102.506 15.085 102.346 14.99 102.166 14.93C101.986 14.86 101.796 14.825 101.596 14.825C101.406 14.825 101.221 14.86 101.041 14.93C100.861 15 100.701 15.1 100.561 15.23C99.8515 15.92 99.0915 16.42 98.2815 16.73C97.4715 17.04 96.6165 17.195 95.7165 17.195C94.7565 17.185 93.8665 17 93.0465 16.64C92.2365 16.27 91.5315 15.775 90.9315 15.155C90.3415 14.535 89.8765 13.82 89.5365 13.01C89.2065 12.19 89.0415 11.325 89.0415 10.415C89.0415 9.475 89.2165 8.595 89.5665 7.775C89.9265 6.955 90.4115 6.245 91.0215 5.645C91.6315 5.035 92.3415 4.555 93.1515 4.205C93.9715 3.855 94.8415 3.68 95.7615 3.68C96.6515 3.68 97.5065 3.84 98.3265 4.16C99.1565 4.48 99.9115 4.98 100.591 5.66C100.731 5.8 100.891 5.905 101.071 5.975C101.261 6.035 101.451 6.065 101.641 6.065C101.831 6.065 102.016 6.03 102.196 5.96C102.386 5.88 102.556 5.77 102.706 5.63C102.846 5.48 102.951 5.315 103.021 5.135C103.091 4.955 103.126 4.775 103.126 4.595C103.126 4.405 103.091 4.22 103.021 4.04C102.951 3.86 102.841 3.7 102.691 3.56ZM115.45 3.77V18.53C115.45 18.95 115.305 19.3 115.015 19.58C114.725 19.86 114.37 20 113.95 20C113.53 20 113.185 19.86 112.915 19.58C112.655 19.3 112.525 18.95 112.525 18.53V3.77H108.535C108.115 3.77 107.765 3.63 107.485 3.35C107.205 3.06 107.065 2.705 107.065 2.285C107.065 1.865 107.205 1.515 107.485 1.235C107.765 0.944999 108.115 0.799999 108.535 0.799999H119.455C119.875 0.799999 120.225 0.944999 120.505 1.235C120.795 1.525 120.94 1.88 120.94 2.3C120.94 2.51 120.9 2.705 120.82 2.885C120.75 3.065 120.645 3.22 120.505 3.35C120.375 3.48 120.22 3.585 120.04 3.665C119.86 3.735 119.665 3.77 119.455 3.77H115.45ZM135.335 12.815C135.545 12.815 135.745 12.78 135.935 12.71C136.125 12.63 136.285 12.525 136.415 12.395C136.555 12.255 136.665 12.095 136.745 11.915C136.825 11.725 136.865 11.525 136.865 11.315C136.865 11.105 136.825 10.91 136.745 10.73C136.665 10.55 136.555 10.39 136.415 10.25C136.285 10.11 136.125 10 135.935 9.92C135.745 9.84 135.545 9.8 135.335 9.8H126.89C126.68 9.8 126.48 9.84 126.29 9.92C126.11 10 125.95 10.11 125.81 10.25C125.68 10.38 125.575 10.54 125.495 10.73C125.415 10.91 125.375 11.105 125.375 11.315C125.375 11.525 125.415 11.72 125.495 11.9C125.575 12.08 125.68 12.24 125.81 12.38C125.95 12.51 126.11 12.615 126.29 12.695C126.48 12.775 126.68 12.815 126.89 12.815H135.335ZM145.972 2.27C145.972 1.85 145.827 1.5 145.537 1.22C145.247 0.939999 144.892 0.799999 144.472 0.799999C144.052 0.799999 143.697 0.939999 143.407 1.22C143.127 1.5 142.987 1.85 142.987 2.27V18.53C142.987 18.95 143.127 19.3 143.407 19.58C143.697 19.86 144.052 20 144.472 20C144.892 20 145.247 19.86 145.537 19.58C145.827 19.3 145.972 18.95 145.972 18.53V2.27ZM155.857 6.77V18.53C155.857 18.95 155.712 19.3 155.422 19.58C155.132 19.86 154.777 20 154.357 20C153.937 20 153.582 19.86 153.292 19.58C153.012 19.3 152.872 18.95 152.872 18.53V2.315C152.872 1.895 153.012 1.545 153.292 1.265C153.582 0.984999 153.937 0.844999 154.357 0.844999H154.372C154.432 0.844999 154.477 0.849999 154.507 0.86C154.557 0.86 154.592 0.864999 154.612 0.874999L154.822 0.919999C154.992 0.979999 155.137 1.055 155.257 1.145L155.422 1.28C155.522 1.39 155.612 1.51 155.692 1.64L164.602 14.09V2.27C164.602 1.85 164.747 1.5 165.037 1.22C165.337 0.939999 165.697 0.799999 166.117 0.799999C166.327 0.799999 166.522 0.839999 166.702 0.919999C166.882 0.989999 167.037 1.095 167.167 1.235C167.297 1.365 167.397 1.52 167.467 1.7C167.547 1.87 167.587 2.06 167.587 2.27V18.53C167.587 18.87 167.487 19.17 167.287 19.43C167.087 19.68 166.837 19.85 166.537 19.94C166.457 19.97 166.367 19.99 166.267 20H166.102C165.752 20 165.442 19.895 165.172 19.685L165.022 19.565C164.972 19.525 164.932 19.48 164.902 19.43L155.857 6.77Z" fill="#060930"/>
</svg>
