<svg width="100" height="100" viewBox="0 0 100 100" fill="none" xmlns="http://www.w3.org/2000/svg">
<path d="M87.5 20.3125C91.8147 20.3125 95.3125 16.8147 95.3125 12.5C95.3125 8.18528 91.8147 4.6875 87.5 4.6875C83.1853 4.6875 79.6875 8.18528 79.6875 12.5C79.6875 16.8147 83.1853 20.3125 87.5 20.3125Z" fill="#F05454"/>
<path d="M35.9375 46.875H39.0625V65.625H35.9375V46.875Z" fill="#F05454"/>
<path d="M45.3125 50H54.6875V56.9578C59.2719 51.7469 65.9688 48.4375 73.4375 48.4375C77.9938 48.4375 82.2547 49.6828 85.9375 51.8203V23.3125C84.0891 23.0469 82.3922 22.3187 80.9625 21.2469L71.4047 30.8031C71.6984 31.4156 71.875 32.0906 71.875 32.8125C71.875 35.3969 69.7719 37.5 67.1875 37.5C64.6031 37.5 62.5 35.3969 62.5 32.8125C62.5 32.0906 62.6766 31.4156 62.9703 30.8047L59.8219 27.6563C59.2094 27.9484 58.5344 28.125 57.8125 28.125C57.0906 28.125 56.4156 27.9484 55.8047 27.6547L47.9688 35.4906C48.2609 36.1031 48.4375 36.7781 48.4375 37.5C48.4375 40.0844 46.3344 42.1875 43.75 42.1875C41.1656 42.1875 39.0625 40.0844 39.0625 37.5C39.0625 34.9156 41.1656 32.8125 43.75 32.8125C44.4719 32.8125 45.1469 32.9891 45.7578 33.2828L53.5938 25.4469C53.3016 24.8344 53.125 24.1594 53.125 23.4375C53.125 20.8531 55.2281 18.75 57.8125 18.75C60.3969 18.75 62.5 20.8531 62.5 23.4375C62.5 24.1594 62.3234 24.8344 62.0297 25.4453L65.1781 28.5937C65.7906 28.3016 66.4656 28.125 67.1875 28.125C67.9094 28.125 68.5844 28.3016 69.1953 28.5953L78.7516 19.0391C77.9891 18.0219 77.3953 16.8734 77.0219 15.625H4.6875V71.875H48.5172C48.5828 70.8156 48.7 69.7703 48.8937 68.75H45.3125V50ZM14.0625 18.75H35.9375V21.875H14.0625V18.75ZM14.0625 25H35.9375V28.125H14.0625V25ZM14.0625 31.25H35.9375V34.375H14.0625V31.25ZM14.0625 37.5H35.9375V40.625H14.0625V37.5ZM7.8125 18.75H10.9375V21.875H7.8125V18.75ZM7.8125 25H10.9375V28.125H7.8125V25ZM7.8125 31.25H10.9375V34.375H7.8125V31.25ZM7.8125 37.5H10.9375V40.625H7.8125V37.5ZM17.1875 68.75H7.8125V53.125H17.1875V68.75ZM29.6875 68.75H20.3125V56.25H29.6875V68.75ZM42.1875 68.75H32.8125V43.75H42.1875V68.75Z" fill="#060930"/>
<path d="M75 51.6422V57.8922C82.8844 58.6797 89.0625 65.35 89.0625 73.4375C89.0625 75.7235 88.5563 77.8906 87.6703 79.85L93.0906 82.9797C94.5 80.0922 95.3125 76.861 95.3125 73.4375C95.3125 61.9032 86.3328 52.4485 75 51.6422Z" fill="#F05454"/>
<path d="M10.9375 56.25H14.0625V65.625H10.9375V56.25Z" fill="#F05454"/>
<path d="M67.1875 34.375C68.0504 34.375 68.75 33.6754 68.75 32.8125C68.75 31.9496 68.0504 31.25 67.1875 31.25C66.3246 31.25 65.625 31.9496 65.625 32.8125C65.625 33.6754 66.3246 34.375 67.1875 34.375Z" fill="#060930"/>
<path d="M23.4375 59.375H26.5625V65.625H23.4375V59.375Z" fill="#060930"/>
<path d="M57.8125 25C58.6754 25 59.375 24.3004 59.375 23.4375C59.375 22.5746 58.6754 21.875 57.8125 21.875C56.9496 21.875 56.25 22.5746 56.25 23.4375C56.25 24.3004 56.9496 25 57.8125 25Z" fill="#F05454"/>
<path d="M51.5625 53.125H48.4375V65.625H49.7047C50.1953 64.1391 50.8141 62.7109 51.5625 61.3609V53.125Z" fill="#060930"/>
<path d="M57.8125 73.4375C57.8125 65.35 63.9906 58.6781 71.875 57.8922V51.6422C60.5422 52.4485 51.5625 61.9032 51.5625 73.4375C51.5625 76.861 52.375 80.0922 53.7844 82.9797L59.2047 79.85C58.3187 77.8906 57.8125 75.7235 57.8125 73.4375Z" fill="#060930"/>
<path d="M60.9375 73.4375C60.9375 80.3297 66.5453 85.9375 73.4375 85.9375C80.3297 85.9375 85.9375 80.3297 85.9375 73.4375C85.9375 66.5453 80.3297 60.9375 73.4375 60.9375C66.5453 60.9375 60.9375 66.5453 60.9375 73.4375ZM73.4375 64.0625C78.6078 64.0625 82.8125 68.2672 82.8125 73.4375C82.8125 78.6078 78.6078 82.8125 73.4375 82.8125C68.2672 82.8125 64.0625 78.6078 64.0625 73.4375C64.0625 68.2672 68.2672 64.0625 73.4375 64.0625Z" fill="#F05454"/>
<path d="M73.4375 89.0625C68.225 89.0625 63.6141 86.4875 60.7735 82.5531L55.3313 85.6953C59.2688 91.4953 65.9157 95.3125 73.4375 95.3125C80.9594 95.3125 87.6063 91.4953 91.5438 85.6953L86.1016 82.5531C83.261 86.4875 78.65 89.0625 73.4375 89.0625Z" fill="#060930"/>
<path d="M43.75 39.0625C44.6129 39.0625 45.3125 38.3629 45.3125 37.5C45.3125 36.6371 44.6129 35.9375 43.75 35.9375C42.8871 35.9375 42.1875 36.6371 42.1875 37.5C42.1875 38.3629 42.8871 39.0625 43.75 39.0625Z" fill="#060930"/>
<path d="M73.4375 79.6875C76.8893 79.6875 79.6875 76.8893 79.6875 73.4375C79.6875 69.9857 76.8893 67.1875 73.4375 67.1875C69.9857 67.1875 67.1875 69.9857 67.1875 73.4375C67.1875 76.8893 69.9857 79.6875 73.4375 79.6875Z" fill="#060930"/>
</svg>
