<svg width="100" height="100" viewBox="0 0 100 100" fill="none" xmlns="http://www.w3.org/2000/svg">
<path d="M46.0421 45.3125H16.4578L31.25 54.4156L46.0421 45.3125Z" fill="#F05454"/>
<path d="M60.9375 46.875C60.9375 46.4606 61.1021 46.0632 61.3951 45.7701C61.6882 45.4771 62.0856 45.3125 62.5 45.3125H84.375V42.1875H59.375V57.8125H60.9375V46.875Z" fill="#060930"/>
<path d="M64.0625 57.8125V64.0625H87.5V48.4375H64.0625V57.8125ZM84.375 60.9375H76.5625V57.8125H84.375V60.9375ZM73.4375 51.5625H84.375V54.6875H73.4375V51.5625ZM67.1875 51.5625H70.3125V54.6875H67.1875V51.5625ZM67.1875 57.8125H73.4375V60.9375H67.1875V57.8125Z" fill="#F05454"/>
<path d="M46.875 82.8125H53.125V87.5H46.875V82.8125Z" fill="#060930"/>
<path d="M93.75 78.125V76.5625H6.25V78.125C6.25 78.5394 6.41462 78.9368 6.70765 79.2299C7.00067 79.5229 7.3981 79.6875 7.8125 79.6875H92.1875C92.6019 79.6875 92.9993 79.5229 93.2924 79.2299C93.5854 78.9368 93.75 78.5394 93.75 78.125Z" fill="#F05454"/>
<path d="M35.9375 90.625H64.0625V93.75H35.9375V90.625Z" fill="#060930"/>
<path d="M7.8125 26.5625C7.3981 26.5625 7.00067 26.7271 6.70765 27.0201C6.41462 27.3132 6.25 27.7106 6.25 28.125V73.4375H93.75V28.125C93.75 27.7106 93.5854 27.3132 93.2924 27.0201C92.9993 26.7271 92.6019 26.5625 92.1875 26.5625H89.0625V29.6875C89.0564 30.1 88.8899 30.4939 88.5982 30.7857C88.3064 31.0774 87.9125 31.2439 87.5 31.25C87.3466 31.2534 87.1936 31.2323 87.0469 31.1875L66.9531 25H65.4219L64.0469 34.5938C63.9942 34.9665 63.8087 35.3077 63.5245 35.5546C63.2402 35.8015 62.8765 35.9374 62.5 35.9375H57.8125C57.3981 35.9375 57.0007 35.7729 56.7076 35.4799C56.4146 35.1868 56.25 34.7894 56.25 34.375V26.5625H45.3125V34.375C45.3125 34.7894 45.1479 35.1868 44.8549 35.4799C44.5618 35.7729 44.1644 35.9375 43.75 35.9375H12.5C12.0856 35.9375 11.6882 35.7729 11.3951 35.4799C11.1021 35.1868 10.9375 34.7894 10.9375 34.375V26.5625H7.8125ZM56.25 40.625C56.25 40.2106 56.4146 39.8132 56.7076 39.5201C57.0007 39.2271 57.3981 39.0625 57.8125 39.0625H85.9375C86.3519 39.0625 86.7493 39.2271 87.0424 39.5201C87.3354 39.8132 87.5 40.2106 87.5 40.625V45.3125H89.0625C89.4769 45.3125 89.8743 45.4771 90.1674 45.7701C90.4604 46.0632 90.625 46.4606 90.625 46.875V65.625C90.625 66.0394 90.4604 66.4368 90.1674 66.7299C89.8743 67.0229 89.4769 67.1875 89.0625 67.1875H62.5C62.0856 67.1875 61.6882 67.0229 61.3951 66.7299C61.1021 66.4368 60.9375 66.0394 60.9375 65.625V60.9375H57.8125C57.3981 60.9375 57.0007 60.7729 56.7076 60.4799C56.4146 60.1868 56.25 59.7894 56.25 59.375V40.625ZM51.5625 42.1875C51.9769 42.1875 52.3743 42.3521 52.6674 42.6451C52.9604 42.9382 53.125 43.3356 53.125 43.75V68.75C53.125 69.1644 52.9604 69.5618 52.6674 69.8549C52.3743 70.1479 51.9769 70.3125 51.5625 70.3125H10.9375C10.5231 70.3125 10.1257 70.1479 9.83265 69.8549C9.53962 69.5618 9.375 69.1644 9.375 68.75V43.75C9.375 43.3356 9.53962 42.9382 9.83265 42.6451C10.1257 42.3521 10.5231 42.1875 10.9375 42.1875H51.5625Z" fill="#060930"/>
<path d="M50 46.5453L32.0688 57.5812C31.8225 57.7327 31.5391 57.8129 31.25 57.8129C30.9609 57.8129 30.6775 57.7327 30.4312 57.5812L12.5 46.5453V67.1875H50V46.5453Z" fill="#060930"/>
<path d="M26.5625 24.0343L30.8813 21.875L26.5625 19.7156V24.0343Z" fill="#F05454"/>
<path d="M61.1406 32.8125L62.2656 25H59.375V32.8125H61.1406Z" fill="#060930"/>
<path d="M14.0625 10.9375V32.8125H42.1875V10.9375H14.0625ZM35.0734 23.2812L25.6984 27.9688C25.4596 28.0881 25.1941 28.1443 24.9273 28.1319C24.6606 28.1195 24.4015 28.0389 24.1747 27.8979C23.948 27.7568 23.7612 27.56 23.6321 27.3263C23.503 27.0925 23.436 26.8295 23.4375 26.5625V17.1875C23.4374 16.9211 23.5054 16.6592 23.635 16.4264C23.7646 16.1937 23.9515 15.998 24.1781 15.8579C24.4046 15.7178 24.6632 15.6379 24.9293 15.6259C25.1954 15.6138 25.4602 15.67 25.6984 15.7891L35.0734 20.4766C35.3335 20.6062 35.5522 20.8057 35.7051 21.0527C35.858 21.2997 35.939 21.5845 35.939 21.875C35.939 22.1655 35.858 22.4503 35.7051 22.6973C35.5522 22.9443 35.3335 23.1438 35.0734 23.2734V23.2812Z" fill="#060930"/>
<path d="M57.8125 14.0625H54.6875V20.3125H57.8125V21.875H65.625V12.5H57.8125V14.0625Z" fill="#060930"/>
<path d="M85.9375 14.0625V6.79688L68.75 12.0938V22.2812L85.9375 27.5781V20.3125C86.7663 20.3125 87.5612 19.9833 88.1472 19.3972C88.7333 18.8112 89.0625 18.0163 89.0625 17.1875C89.0625 16.3587 88.7333 15.5638 88.1472 14.9778C87.5612 14.3917 86.7663 14.0625 85.9375 14.0625Z" fill="#F05454"/>
</svg>
