<svg width="100" height="100" viewBox="0 0 100 100" fill="none" xmlns="http://www.w3.org/2000/svg">
<g clip-path="url(#clip0_50_65)">
<path d="M67.4484 30.5926L58.477 30.0444C58.2055 31.8301 57.9966 33.5355 57.8145 35.223C58.0377 35.2534 58.2573 35.2784 58.4823 35.3105C61.4365 35.8111 64.44 35.9562 67.4287 35.7427C67.4841 33.9837 67.5002 32.2605 67.4484 30.5926Z" fill="#F05454"/>
<path d="M58.0071 38.8445L57.4892 38.7766C57.257 41.7754 57.1819 44.7843 57.2642 47.7909C59.8067 46.8939 62.4825 46.4332 65.1785 46.4284C65.6214 46.4284 66.0535 46.4713 66.491 46.4945C66.8285 44.0141 67.0946 41.6141 67.2571 39.3159C66.4768 39.3766 65.6982 39.4355 64.9589 39.4355C62.6308 39.3978 60.3081 39.2003 58.0071 38.8445Z" fill="#F05454"/>
<path d="M27.8788 0.0481045C27.6377 0.106368 27.4647 0.318003 27.4556 0.565962L27.1646 8.61239C28.0597 8.86612 29.0012 8.91072 29.9163 8.74275C30.8117 8.48643 31.6364 8.02827 32.3271 7.40346L28.4931 0.323105C28.3731 0.104145 28.1221 -0.00823449 27.8788 0.0481045Z" fill="#060930"/>
<path d="M36.4285 36.566C37.3874 36.3429 38.3459 36.938 38.5713 37.8963L43.6731 59.6588C44.4202 58.1844 45.3178 56.7913 46.3517 55.5017L38.3928 21.4285C37.5549 22.4514 36.4889 23.2636 35.2803 23.7999L36.5445 29.1945C36.7029 29.8203 36.5111 30.4829 36.043 30.9274C35.5749 31.3719 34.9034 31.5291 34.2866 31.3387C33.6698 31.1483 33.2038 30.6398 33.0678 30.0088L31.8053 24.6178C31.691 24.6178 31.5713 24.6392 31.4588 24.6392C30.2525 24.6377 29.0603 24.3784 27.9624 23.8785L35.7999 57.3213C37.1265 57.5147 38.4305 57.8395 39.6928 58.291L35.1017 38.7106C34.8773 37.7522 35.4707 36.793 36.4285 36.566Z" fill="#F05454"/>
<path d="M71.8391 15.4338C71.0518 10.608 68.8023 6.14012 65.3944 2.63379C64.823 6.41057 62.3587 10.4338 57.6248 15.6695C56.1761 17.0925 55.3713 19.0453 55.3966 21.0758C55.4219 23.1062 56.2751 25.0384 57.7587 26.4249C61.2051 26.6391 64.6938 26.8534 68.2248 27.0677C70.9165 23.8181 72.2156 19.6366 71.8391 15.4338ZM65.5087 24.4641C64.8323 24.4641 64.214 24.082 63.9115 23.477C63.609 22.8721 63.6743 22.1481 64.0801 21.607C65.6449 19.4626 66.2849 16.7805 65.8569 14.1606C65.6756 13.5386 65.8453 12.8672 66.3005 12.4062C66.7556 11.9452 67.4248 11.7668 68.049 11.9401C68.6732 12.1134 69.1546 12.6112 69.3069 13.2409C70.0229 16.9236 69.1613 20.7378 66.9319 23.7552C66.5947 24.2013 66.068 24.4637 65.5087 24.4641Z" fill="#060930"/>
<path d="M94.5376 24.1072L87.0519 28.7786C86.7224 32.1123 85.9197 35.382 84.668 38.4893C85.3764 40.4134 86.8569 41.9537 88.7514 42.7379C90.6459 43.522 92.7819 43.4785 94.6429 42.6179C95.9552 39.5374 97.6989 36.6592 99.8215 34.0697L97.8304 25.475L95.1876 31.875C94.8099 32.7863 93.7649 33.2188 92.8537 32.8411C91.9424 32.4634 91.5099 31.4184 91.8876 30.5072L94.5376 24.1072Z" fill="#060930"/>
<path d="M87.1425 60.6482L92.8407 46.8982C92.4815 46.9409 92.1202 46.9629 91.7585 46.9643C90.2553 46.95 88.7699 46.6368 87.3889 46.0428C85.6515 45.3622 84.1185 44.2461 82.9371 42.8018L79.4746 51.1714C82.7962 53.6254 85.4357 56.8876 87.1425 60.6482Z" fill="#F05454"/>
<path d="M89.2857 78.5715C88.484 78.5724 87.6848 78.6598 86.9018 78.8322C86.281 78.9686 85.6346 78.7647 85.2043 78.297C84.774 77.8292 84.6248 77.168 84.8125 76.5607C85.4138 74.609 85.7178 72.5779 85.7143 70.5357C85.7143 60.6111 78.6167 52.1066 68.8521 50.3313C59.0876 48.5559 49.4506 54.0177 45.9571 63.3072C45.7596 63.8321 45.3269 64.2337 44.7888 64.3917C44.2507 64.5496 43.6696 64.4456 43.2196 64.1107C38.1287 60.2874 31.3257 59.6365 25.6022 62.4251C19.8786 65.2136 16.1983 70.9721 16.0714 77.3375C16.0612 77.8968 15.7895 78.4189 15.3375 78.7482C14.8854 79.0776 14.3051 79.1761 13.7696 79.0143C12.7785 78.7172 11.749 78.568 10.7143 78.5715C4.79695 78.5715 0 83.3684 0 89.2857C0 95.2031 4.79695 100 10.7143 100H89.2857C95.203 100 100 95.2031 100 89.2857C100 83.3684 95.203 78.5715 89.2857 78.5715ZM29.1464 69.5482C26.7848 70.354 25.1458 72.509 25 75C25 75.9862 24.2005 76.7857 23.2143 76.7857C22.2281 76.7857 21.4286 75.9862 21.4286 75C21.4286 68.4322 27.7375 66.25 28.0071 66.1625C28.9441 65.8479 29.9586 66.3524 30.2732 67.2893C30.5878 68.2262 30.0833 69.2408 29.1464 69.5554V69.5482ZM51.8393 62.0661C53.0384 57.1338 57.4245 53.6389 62.5 53.5715C63.4862 53.569 64.2877 54.3665 64.2902 55.3527C64.2926 56.3389 63.4952 57.1404 62.5089 57.1429C59.0763 57.2283 56.1253 59.6 55.3036 62.934C55.1045 63.7285 54.3905 64.2857 53.5714 64.2857C53.4245 64.2863 53.2781 64.2683 53.1357 64.2322C52.1798 63.9917 51.5996 63.0222 51.8393 62.0661ZM70.3839 86.1429C69.9519 86.3389 69.4595 86.355 69.0156 86.1875C68.5717 86.0199 68.2127 85.6826 68.0179 85.25C67.1418 83.357 65.2466 82.1447 63.1607 82.1429C61.9553 82.1402 60.7854 82.5512 59.8464 83.3072C59.7858 83.3428 59.7232 83.375 59.6589 83.4036C59.6063 83.4482 59.5508 83.4893 59.4929 83.5268C59.4465 83.5406 59.3994 83.552 59.3518 83.5607C59.028 83.6902 58.6711 83.7122 58.3339 83.6232C58.2238 83.6002 58.1162 83.5667 58.0125 83.5232C57.9117 83.4731 57.816 83.4133 57.7268 83.3447C57.6266 83.2773 57.5338 83.1995 57.45 83.1125C57.4143 83.075 57.3679 83.0572 57.3357 83.0179C57.3009 82.9602 57.2693 82.9005 57.2411 82.8393C57.1964 82.7856 57.1547 82.7296 57.1161 82.6715C55.9526 80.1588 53.4296 78.5564 50.6607 78.5715C46.7158 78.5715 43.5179 81.7694 43.5179 85.7143C43.5174 86.7015 43.7179 87.6785 44.1071 88.5857C44.2928 89.0215 44.2978 89.5131 44.121 89.9524C43.9441 90.3918 43.6 90.743 43.1643 90.9286C42.9431 91.0234 42.7049 91.072 42.4643 91.0714C41.7486 91.0715 41.102 90.6442 40.8214 89.9857C40.2435 88.6359 39.9459 87.1827 39.9464 85.7143C39.9349 81.064 42.9307 76.9397 47.3566 75.5126C51.7825 74.0856 56.6233 75.6832 59.3304 79.4643C60.5232 78.8808 61.8328 78.5755 63.1607 78.5715C66.6477 78.5746 69.8138 80.6075 71.2679 83.7768C71.4645 84.2078 71.4818 84.6992 71.316 85.143C71.1503 85.5867 70.815 85.9464 70.3839 86.1429Z" fill="#060930"/>
<path d="M32.7696 20.9123C35.0154 20.297 36.6923 18.423 37.0553 16.123L34.0428 10.573C33.0636 11.3427 31.9368 11.9031 30.7321 12.2194C30.1371 12.3561 29.5283 12.4238 28.9178 12.4212C28.2858 12.4185 27.6552 12.3587 27.0339 12.2426L26.8071 18.5319C28.1559 20.426 30.4873 21.3567 32.7696 20.9123Z" fill="#F05454"/>
<path d="M9.71599 41.748L16.3231 39.0123L14.9553 35.7141L0.0927734 41.8641L13.0356 73.0713C14.5134 66.8465 18.7825 61.6528 24.6035 58.9981L23.1588 55.5106L16.5517 58.2463C16.3353 58.3353 16.1036 58.3813 15.8696 58.382C15.016 58.3859 14.279 57.7853 14.1106 56.9484C13.9423 56.1116 14.3898 55.2727 15.1785 54.9463L21.7856 52.2106L20.4196 48.9105L17.1142 50.2802C16.8977 50.369 16.6661 50.4151 16.4321 50.4159C15.5795 50.4173 14.8449 49.8158 14.678 48.9797C14.5111 48.1436 14.9586 47.3062 15.7463 46.9802L19.0517 45.6105L17.6856 42.3105L11.0785 45.048C10.8615 45.1372 10.6292 45.1833 10.3946 45.1838C9.54233 45.1843 8.80851 44.5825 8.64212 43.7467C8.47574 42.9108 8.92317 42.0739 9.71063 41.748H9.71599Z" fill="#F05454"/>
<mask id="mask0_50_65" style="mask-type:alpha" maskUnits="userSpaceOnUse" x="0" y="35" width="25" height="39">
<path d="M9.71599 41.748L16.3231 39.0123L14.9553 35.7141L0.0927734 41.8641L13.0356 73.0713C14.5134 66.8465 18.7825 61.6528 24.6035 58.9981L23.1588 55.5106L16.5517 58.2463C16.3353 58.3353 16.1036 58.3813 15.8696 58.382C15.016 58.3859 14.279 57.7853 14.1106 56.9484C13.9423 56.1116 14.3898 55.2727 15.1785 54.9463L21.7856 52.2106L20.4196 48.9105L17.1142 50.2802C16.8977 50.369 16.6661 50.4151 16.4321 50.4159C15.5795 50.4173 14.8449 49.8158 14.678 48.9797C14.5111 48.1436 14.9586 47.3062 15.7463 46.9802L19.0517 45.6105L17.6856 42.3105L11.0785 45.048C10.8615 45.1372 10.6292 45.1833 10.3946 45.1838C9.54233 45.1843 8.80851 44.5825 8.64212 43.7467C8.47574 42.9108 8.92317 42.0739 9.71063 41.748H9.71599Z" fill="#F05454"/>
</mask>
<g mask="url(#mask0_50_65)">
<path d="M4 51.5L0 42V40.5L15 35.5L18 42.5C13.3051 46.8985 10.1774 48.8005 4 51.5Z" fill="#060930"/>
</g>
<path d="M19 41C14.9809 45.799 11.1988 48.3434 2 52.5V56.5C16.0389 49.7411 21.1002 47.0074 22.5 45L19 41Z" fill="white"/>
</g>
<defs>
<clipPath id="clip0_50_65">
<rect width="100" height="100" fill="white"/>
</clipPath>
</defs>
</svg>
