<svg width="100" height="100" viewBox="0 0 100 100" fill="none" xmlns="http://www.w3.org/2000/svg">
<path d="M40.0391 25.3906C31.9619 25.3906 25.3906 31.9619 25.3906 40.0391C25.3906 48.1162 31.9619 54.6875 40.0391 54.6875C48.1162 54.6875 54.6875 48.1162 54.6875 40.0391C54.6875 31.9619 48.1162 25.3906 40.0391 25.3906ZM40.0391 45.8984C36.8029 45.8984 34.1797 43.275 34.1797 40.0391C34.1797 36.8029 36.8029 34.1797 40.0391 34.1797C43.2752 34.1797 45.8984 36.8029 45.8984 40.0391C45.8984 43.275 43.2752 45.8984 40.0391 45.8984Z" fill="#060930"/>
<path d="M98.8732 48.8626C98.1621 48.3074 97.2348 48.1107 96.3598 48.3296L65.1098 56.1421C63.8057 56.4681 62.8906 57.64 62.8906 58.9843V82.9257C61.9736 82.6005 60.9879 82.4218 59.9609 82.4218C55.1146 82.4218 51.1719 86.3646 51.1719 91.2109C51.1719 96.0572 55.1146 100 59.9609 100C64.8072 100 68.75 96.0572 68.75 91.2109V69.9707L94.1406 63.623V79.0195C93.2236 78.6943 92.2381 78.5156 91.2109 78.5156C86.3646 78.5156 82.4219 82.4584 82.4219 87.3047C82.4219 92.1509 86.3646 96.0937 91.2109 96.0937C96.0572 96.0937 100 92.1509 100 87.3047V51.1718C100 50.2697 99.5844 49.4179 98.8732 48.8626Z" fill="#060930"/>
<path d="M63.6891 50.4578L79.5596 46.4902C79.9031 44.3703 80.0781 42.2166 80.0781 40.0391C80.0781 17.9615 62.1166 0 40.0391 0C17.9613 0 0 17.9615 0 40.0391C0 62.1166 17.9613 80.0781 40.0391 80.0781C45.9982 80.0781 51.7734 78.7695 57.0312 76.301V58.9844C57.0312 54.9437 59.7691 51.4373 63.6891 50.4578ZM40.0391 60.5469C28.7311 60.5469 19.5312 51.3471 19.5312 40.0391C19.5312 28.7311 28.7311 19.5312 40.0391 19.5312C51.3471 19.5312 60.5469 28.7311 60.5469 40.0391C60.5469 51.3471 51.3471 60.5469 40.0391 60.5469Z" fill="#F05454"/>
</svg>
