<svg width="100" height="100" viewBox="0 0 100 100" fill="none" xmlns="http://www.w3.org/2000/svg">
<path d="M44.1503 16.865H44.1436C43.0872 16.8739 42.2342 17.7343 42.2327 18.7922C42.2305 19.8494 43.0805 20.7113 44.1385 20.7246H44.1451C45.2016 20.715 46.0546 19.8553 46.0568 18.7974C46.0583 17.7395 45.2082 16.8776 44.1503 16.865Z" fill="#060930"/>
<path d="M3.03027 82.8177C3.03471 87.1301 6.53036 90.625 10.8428 90.6302H88.9678C93.2802 90.625 96.7758 87.1301 96.7803 82.8177V31.9196H3.03027V82.8177ZM59.4149 51.149C58.7173 50.5556 58.6344 49.5095 59.2277 48.8119C59.8203 48.1157 60.8664 48.0314 61.5641 48.6254L72.2863 57.7563C72.6562 58.0722 72.8693 58.5331 72.8693 59.0192C72.8693 59.5045 72.6562 59.9661 72.2863 60.2806L61.5641 69.4114C60.8664 70.0055 59.8203 69.9212 59.2277 69.225C58.6344 68.5281 58.7173 67.4827 59.4149 66.8886L68.6553 59.0192L59.4149 51.149ZM44.4854 74.6567L51.1689 42.9259C51.3568 42.0299 52.2364 41.4566 53.1316 41.6452C54.0275 41.8339 54.6002 42.7135 54.4115 43.6087L47.7287 75.3403C47.5393 76.2363 46.6612 76.8089 45.7652 76.6202C44.8701 76.4316 44.2967 75.5527 44.4854 74.6567ZM27.5242 57.7563L38.2464 48.6254C38.9441 48.0314 39.9902 48.1157 40.5828 48.8119C41.1761 49.5095 41.0933 50.5556 40.3956 51.149L31.1553 59.0192L40.3971 66.8886C41.0933 67.4827 41.1769 68.5281 40.5835 69.225C39.9909 69.9212 38.9441 70.0055 38.2472 69.4114L27.525 60.2806C27.1551 59.9661 26.942 59.5045 26.942 59.0192C26.942 58.5331 27.1551 58.0722 27.525 57.7563H27.5242Z" fill="#060930"/>
<path d="M28.0369 16.8138H28.0303C26.9849 16.8405 26.1504 17.695 26.1497 18.7411C26.1482 19.7864 26.979 20.6432 28.0244 20.6727H28.0303C29.0756 20.6461 29.9094 19.7916 29.9116 18.747C29.9124 17.7009 29.0808 16.8442 28.0362 16.8138H28.0369Z" fill="#060930"/>
<path d="M88.9678 8.69653H10.8428C6.53036 8.70097 3.03471 12.1966 3.03027 16.509V28.6051H96.7803V16.509C96.7758 12.1966 93.2802 8.70097 88.9678 8.69653ZM11.917 23.9383H11.9007C9.00136 23.9339 6.65465 21.5805 6.65687 18.6811C6.65909 15.7818 9.0095 13.4329 11.9089 13.4329C14.8089 13.4329 17.1601 15.7818 17.1616 18.6811C17.1645 21.5805 14.8171 23.9339 11.917 23.9383ZM33.2749 18.7603C33.263 21.6493 30.9185 23.9857 28.0303 23.9886H28.014C25.1516 23.9376 22.8589 21.5997 22.8641 18.7366C22.8678 15.8743 25.1672 13.5438 28.0295 13.5017H28.0473C30.9422 13.5135 33.2808 15.8669 33.2749 18.7618V18.7603ZM49.3881 18.8114C49.3793 21.7004 47.0348 24.0382 44.145 24.0389H44.1288C41.2457 24.016 38.9226 21.67 38.9263 18.7862C38.9308 15.9031 41.2627 13.5645 44.1458 13.5505H44.1613C47.057 13.5623 49.3955 15.9157 49.3889 18.8114H49.3881Z" fill="#F05454"/>
<path d="M11.9237 16.7643H11.9171C10.8688 16.785 10.0291 17.641 10.0276 18.69C10.0254 19.7398 10.8621 20.598 11.9119 20.6232H11.9171C12.9669 20.601 13.8059 19.7458 13.8081 18.696C13.8095 17.6469 12.9728 16.7887 11.9237 16.7643Z" fill="#060930"/>
</svg>
