<svg width="100" height="100" viewBox="0 0 100 100" fill="none" xmlns="http://www.w3.org/2000/svg">
<g clip-path="url(#clip0_405_240)">
<path d="M24.0655 98.302L21.6021 90.7641L24.0666 99.1232L24.0679 99.9821C24.2436 99.9781 24.4176 99.9651 24.5898 99.9431L24.3889 88.9096L24.3915 88.8243L24.387 88.808L24.3679 87.7654L26.9435 79.5039L24.3652 86.9847L24.3575 87.2055L24.2057 78.8692L26.4199 70.3216L24.1884 77.4044L24.0846 60.1257L24.0841 60.0682L24.0838 60.1248L24.0332 73.7479L21.9174 68.2971L24.0351 74.9213L24.0449 82.3827L22.0818 75.1764L24.046 83.4797L24.0514 87.6287L21.1998 77.5949L24.0537 89.076L24.0655 98.302Z" fill="#E2E2E2"/>
<path d="M45.2041 98.302L42.7408 90.7641L45.2053 99.1232L45.2066 99.9821C45.3824 99.9781 45.5563 99.9651 45.7285 99.9431L45.5276 88.9096L45.5302 88.8243L45.5257 88.808L45.5066 87.7654L48.0822 79.5039L45.5039 86.9846L45.4962 87.2055L45.3444 78.8692L47.5586 70.3216L45.3271 77.4044L45.2233 60.1257L45.2228 60.0682L45.2225 60.1248L45.1719 73.7479L43.0561 68.2971L45.1738 74.9213L45.1836 82.3827L43.2205 75.1764L45.1847 83.4797L45.1901 87.6287L42.3385 77.5949L45.1924 89.076L45.2041 98.302Z" fill="#E2E2E2"/>
<path d="M2.90666 98.7869L1.1279 93.3438L2.90749 99.3798L2.90844 100C3.03534 99.9972 3.16096 99.9878 3.2853 99.9719L3.14022 92.0046L3.14212 91.9431L3.13886 91.9313L3.12504 91.1785L4.98489 85.2129L3.12312 90.6147L3.11755 90.7741L3.00796 84.7545L4.60684 78.5824L2.99546 83.6968L2.92051 71.2199L2.92016 71.1784L2.9199 71.2193L2.88341 81.0564L1.3556 77.1204L2.88476 81.9037L2.89186 87.2916L1.47426 82.088L2.89264 88.0837L2.89656 91.0797L0.837372 83.8343L2.89818 92.1248L2.90666 98.7869Z" fill="#E2E2E2"/>
<path d="M96.6154 98.302L94.1521 90.7641L96.6166 99.1232L96.6179 99.9821C96.7936 99.9781 96.9676 99.9651 97.1398 99.9431L96.9389 88.9096L96.9415 88.8243L96.937 88.808L96.9179 87.7654L99.4935 79.5039L96.9152 86.9847L96.9075 87.2055L96.7557 78.8692L98.9699 70.3216L96.7384 77.4044L96.6346 60.1257L96.6341 60.0682L96.6338 60.1248L96.5832 73.7479L94.4674 68.2971L96.5851 74.9213L96.5949 82.3827L94.6318 75.1764L96.596 83.4797L96.6014 87.6287L93.7498 77.5949L96.6037 89.076L96.6154 98.302Z" fill="#E2E2E2"/>
<path d="M29.8101 86.9214H43.0984V85.8357H29.8101V86.9214Z" fill="#F05454"/>
<path d="M29.1345 85.8357H42.4228V84.75H29.1345V85.8357Z" fill="#F05454"/>
<path d="M29.9227 84.75H43.211V83.6643H29.9227V84.75Z" fill="#F05454"/>
<path d="M31.2741 83.6643H44.5624V82.5786H31.2741V83.6643Z" fill="#F05454"/>
<path d="M19.9677 84.0971H20.429V77.7807H19.9677V84.0971Z" fill="#3F3D56"/>
<path d="M19.9667 77.7006L20.1402 78.5249L37.2133 65.1628L37.0398 64.3385L19.9667 77.7006Z" fill="#3F3D56"/>
<path d="M11.4323 93.5271H15.4463V90.5024H11.4323V93.5271Z" fill="#3F3D56"/>
<path d="M11.8014 96.5519H31.5942V93.1713H11.8014V96.5519Z" fill="#3F3D56"/>
<path d="M15.054 94.8616H19.8062V83.3409H16.2536L15.054 89.1514V94.8616Z" fill="#E2E2E2"/>
<path d="M17.038 87.967H19.068V84.0526H17.038V87.967Z" fill="white"/>
<path d="M15.5154 88.0114H16.8073V84.0972H16.2536L15.5154 88.0114Z" fill="white"/>
<path d="M18.5144 91.8813H18.9757V90.191H18.5144V91.8813Z" fill="#3F3D56"/>
<path d="M16.4151 88.2783H16.3921C16.2758 88.2783 16.1643 88.1893 16.0821 88.0308C15.9999 87.8723 15.9538 87.6573 15.9538 87.4332C15.9538 87.209 15.9999 86.9941 16.0821 86.8356C16.1643 86.6771 16.2758 86.588 16.3921 86.588H16.4151V88.2783V88.2783Z" fill="#3F3D56"/>
<path d="M33.5781 94.8616H33.5551C33.4388 94.8616 33.3273 94.7726 33.2451 94.6141C33.1629 94.4556 33.1168 94.2406 33.1168 94.0165V94.0165C33.1168 93.7923 33.1629 93.5773 33.2451 93.4189C33.3273 93.2604 33.4388 93.1713 33.5551 93.1713H33.5781V94.8616V94.8616Z" fill="#3F3D56"/>
<path d="M13.2086 93.1585C12.8655 93.167 12.5278 93.3245 12.2206 93.6194C11.9134 93.9142 11.6447 94.3388 11.4343 94.8616H10.5327L11.4093 90.1531L15.4924 88.6003L15.377 94.8616H14.9829C14.7725 94.3388 14.5038 93.9142 14.1966 93.6194C13.8894 93.3245 13.5517 93.167 13.2086 93.1585V93.1585Z" fill="#E2E2E2"/>
<path d="M13.1625 99.8435C14.2709 99.8435 15.1694 98.1109 15.1694 95.9736C15.1694 93.8364 14.2709 92.1038 13.1625 92.1038C12.0541 92.1038 11.1555 93.8364 11.1555 95.9736C11.1555 98.1109 12.0541 99.8435 13.1625 99.8435Z" fill="#3F3D56"/>
<path d="M13.1625 98.0104C13.7458 98.0104 14.2188 97.0985 14.2188 95.9736C14.2188 94.8487 13.7458 93.9368 13.1625 93.9368C12.5791 93.9368 12.1062 94.8487 12.1062 95.9736C12.1062 97.0985 12.5791 98.0104 13.1625 98.0104Z" fill="#E2E2E2"/>
<path d="M31.2943 99.799C32.2626 99.799 33.0475 98.2855 33.0475 96.4184C33.0475 94.5514 32.2626 93.0378 31.2943 93.0378C30.326 93.0378 29.5411 94.5514 29.5411 96.4184C29.5411 98.2855 30.326 99.799 31.2943 99.799Z" fill="#3F3D56"/>
<path d="M31.2943 98.1977C31.8039 98.1977 32.2171 97.4011 32.2171 96.4184C32.2171 95.4358 31.8039 94.6392 31.2943 94.6392C30.7847 94.6392 30.3716 95.4358 30.3716 96.4184C30.3716 97.4011 30.7847 98.1977 31.2943 98.1977Z" fill="#E2E2E2"/>
<path d="M19.6678 95.2174H20.6367V81.7395H19.6678V95.2174Z" fill="#3F3D56"/>
<path d="M19.6678 93.5716H33.6012V92.771H19.6678V93.5716Z" fill="#3F3D56"/>
<path d="M16.1383 88.5452H16.5997V88.1894H16.1383V88.5452Z" fill="#3F3D56"/>
<path d="M36.5309 86.9148C36.5265 86.9055 36.5232 86.8945 36.5212 86.8826C36.5192 86.8707 36.5185 86.8581 36.5191 86.8456L37.1554 75.2432C37.1566 75.2214 37.162 75.2012 37.1704 75.1866C37.1788 75.1719 37.1898 75.1637 37.2011 75.1636H37.2013C37.2127 75.1636 37.2236 75.1716 37.232 75.1862C37.2405 75.2007 37.2459 75.2207 37.2472 75.2424L37.9354 86.8208C37.9361 86.8331 37.9355 86.8457 37.9335 86.8576C37.9316 86.8695 37.9284 86.8805 37.9241 86.8898C37.9198 86.8991 37.9146 86.9066 37.9087 86.9118C37.9028 86.917 37.8964 86.9197 37.8899 86.9199L36.5655 86.9439H36.565C36.5586 86.9439 36.5522 86.9413 36.5464 86.9363C36.5405 86.9313 36.5352 86.9239 36.5309 86.9148V86.9148ZM37.2032 76.0649L36.6164 86.765L37.8378 86.7429L37.2032 76.0649Z" fill="#3F3D56"/>
<path d="M11.4177 90.2218L11.4393 90.2375C11.548 90.3168 11.636 90.4762 11.6838 90.6805C11.7316 90.8848 11.7353 91.1174 11.6942 91.327C11.6531 91.5367 11.5705 91.7062 11.4645 91.7984C11.3585 91.8906 11.2379 91.8978 11.1292 91.8185L11.1076 91.8028L11.4177 90.2218V90.2218Z" fill="#3F3D56"/>
<path d="M36.9922 77.3359H37.4536V64.3473H36.9922V77.3359Z" fill="#3F3D56"/>
<path d="M20.1984 79.2041C20.5551 79.2041 20.8443 78.6465 20.8443 77.9586C20.8443 77.2708 20.5551 76.7132 20.1984 76.7132C19.8416 76.7132 19.5524 77.2708 19.5524 77.9586C19.5524 78.6465 19.8416 79.2041 20.1984 79.2041Z" fill="#3F3D56"/>
<path d="M21.139 92.7843H34.4272V91.6985H21.139V92.7843Z" fill="#F05454"/>
<path d="M21.9272 91.6986H35.2155V90.6128H21.9272V91.6986Z" fill="#F05454"/>
<path d="M21.3642 90.83H34.6525V89.7443H21.3642V90.83Z" fill="#F05454"/>
<path d="M22.1525 89.7443H35.4408V88.6586H22.1525V89.7443Z" fill="#F05454"/>
<path d="M43.056 26.5441C43.4795 26.5431 43.8889 26.8372 44.2088 27.3723C44.4615 27.2392 44.7265 27.2167 44.9844 27.3066C45.1978 26.7093 45.5047 26.2592 45.8603 26.0222C46.2158 25.7852 46.6013 25.7736 46.9605 25.9892C47.3197 26.2047 47.6338 26.6361 47.8568 27.2203C48.0798 27.8045 48.2 28.5109 48.2 29.2363H41.331C41.4152 28.4746 41.6324 27.7916 41.9464 27.3016C42.2604 26.8116 42.6521 26.5442 43.056 26.5441V26.5441Z" fill="#E2E2E2"/>
<path d="M32.722 37.2597C33.1224 37.2588 33.5094 37.5369 33.8118 38.0427C34.0508 37.9168 34.3013 37.8956 34.5451 37.9805C34.7469 37.4159 35.037 36.9904 35.3732 36.7663C35.7093 36.5423 36.0738 36.5313 36.4134 36.7351C36.7529 36.9389 37.0498 37.3467 37.2607 37.899C37.4715 38.4513 37.5852 39.1191 37.5851 39.8049H31.0912C31.1708 39.0848 31.3762 38.4391 31.673 37.9758C31.9698 37.5126 32.3401 37.2598 32.722 37.2597V37.2597Z" fill="#E2E2E2"/>
<path d="M22.3901 19.5859C22.8067 19.585 23.2094 19.8743 23.524 20.4006C23.7727 20.2697 24.0333 20.2476 24.2869 20.336C24.4969 19.7484 24.7988 19.3058 25.1485 19.0726C25.4983 18.8395 25.8775 18.8281 26.2308 19.0401C26.5841 19.2522 26.8931 19.6765 27.1124 20.2512C27.3318 20.8258 27.4501 21.5207 27.45 22.2342H20.6933C20.7761 21.4849 20.9898 20.8131 21.2987 20.3311C21.6075 19.8491 21.9928 19.586 22.3901 19.5859V19.5859Z" fill="#E2E2E2"/>
<path d="M67.0044 53.2404V80.3628H72.4744V52.8637L71.2046 52.9511V47.4015H70.2836L70.1318 35.1104C70.5035 34.6434 70.7651 33.5343 70.7651 32.2393C70.7655 31.8675 70.743 31.4969 70.6982 31.1353C70.8741 30.7684 70.9819 30.2993 71.0047 29.8015C71.0275 29.3037 70.9641 28.8054 70.8243 28.3846C70.9412 28.5816 71.0772 28.7318 71.2244 28.8265C71.3717 28.9213 71.5272 28.9587 71.682 28.9367C71.8368 28.9146 71.9877 28.8335 72.1261 28.698C72.2645 28.5625 72.3876 28.3753 72.4882 28.1474C72.5888 27.9195 72.6649 27.6553 72.712 27.3702C72.7592 27.0851 72.7766 26.7847 72.7631 26.4866C72.7496 26.1884 72.7056 25.8984 72.6335 25.6334C72.5614 25.3683 72.4627 25.1335 72.3432 24.9426C72.5442 24.7996 72.721 24.5531 72.8544 24.23C72.9879 23.9068 73.0728 23.5193 73.1001 23.1096C73.1273 22.6999 73.0958 22.2836 73.009 21.9059C72.9222 21.5283 72.7834 21.2037 72.6076 20.9676C72.4319 20.7314 72.2259 20.5925 72.0121 20.5662C71.7983 20.5398 71.5849 20.627 71.395 20.8181C71.205 21.0092 71.0459 21.297 70.9349 21.6503C70.8238 22.0035 70.7651 22.4087 70.7651 22.8218C70.7651 22.8549 70.7656 22.8877 70.7663 22.9204C70.6054 22.8256 70.4358 22.7987 70.2689 22.8415C70.1021 22.8843 69.942 22.9959 69.7996 23.1685C69.6571 23.3412 69.5355 23.571 69.4432 23.8422C69.3508 24.1135 69.2898 24.4199 69.2643 24.7406C69.1181 24.5729 68.9548 24.4686 68.7856 24.4348C68.6164 24.4011 68.4454 24.4387 68.2845 24.5452C68.1236 24.6516 67.9767 24.8243 67.8539 25.0512C67.7311 25.2782 67.6354 25.5539 67.5734 25.8594C67.5114 26.1648 67.4846 26.4926 67.4949 26.82C67.5052 27.1473 67.5524 27.4665 67.633 27.7552C67.7137 28.0439 67.826 28.2954 67.9622 28.492C68.0983 28.6887 68.255 28.8258 68.4214 28.894C68.4211 28.9104 68.4207 28.9267 68.4207 28.9432C68.5296 29.5767 68.6681 30.1897 68.8347 30.7747C68.7533 31.2469 68.7124 31.7416 68.7138 32.2393C68.7138 33.5343 68.9753 34.6434 69.347 35.1104L69.1952 47.4015H68.2742V53.1529L67.0044 53.2404ZM70.4201 27.342L70.4232 27.3422C70.4401 27.3422 70.4569 27.3411 70.4736 27.3397C70.4841 27.4065 70.4962 27.4719 70.5098 27.5359C70.4819 27.4681 70.4519 27.4033 70.4201 27.342V27.342Z" fill="#E2E2E2"/>
<path d="M63.9925 99.6687H80.5982V62.6265L63.9925 62.6265V99.6687Z" fill="#3F3D56"/>
<path d="M70.0569 99.6687H74.5339V92.1347H70.0569V99.6687Z" fill="#E2E2E2"/>
<path d="M58.4584 13.8873C58.4581 13.9147 58.4573 13.9418 58.4573 13.9693C58.457 14.4731 58.5093 14.9718 58.6111 15.4358C58.7129 15.8997 58.862 16.3195 59.0496 16.67C59.079 16.7906 59.1115 16.908 59.1473 17.0219C59.0115 17.8089 58.9434 18.6334 58.9457 19.4629C58.9457 22.3235 59.711 24.6425 60.6551 24.6425C61.5992 24.6425 62.3645 22.3235 62.3645 19.4629C62.3652 18.8432 62.3278 18.2256 62.2531 17.6229C62.5463 17.0113 62.7259 16.2294 62.7639 15.3999C62.802 14.5703 62.6963 13.7398 62.4633 13.0385C62.6581 13.3666 62.8848 13.617 63.1302 13.7749C63.3755 13.9328 63.6347 13.9952 63.8927 13.9584C64.1507 13.9216 64.4023 13.7863 64.6329 13.5605C64.8636 13.3347 65.0686 13.0228 65.2363 12.6429C65.4039 12.263 65.5307 11.8227 65.6094 11.3476C65.6881 10.8724 65.717 10.3719 65.6945 9.87497C65.6721 9.37807 65.5986 8.89472 65.4785 8.45299C65.3584 8.01125 65.1939 7.61992 64.9947 7.30172C65.3297 7.06336 65.6244 6.65257 65.8468 6.11397C66.0692 5.57537 66.2108 4.92954 66.2562 4.24667C66.3016 3.56379 66.2492 2.86997 66.1045 2.24057C65.9598 1.61117 65.7284 1.07026 65.4355 0.676601C65.1425 0.282944 64.7993 0.0515916 64.4429 0.007674C64.0866 -0.0362436 63.7309 0.108954 63.4143 0.427494C63.0978 0.746035 62.8326 1.22574 62.6475 1.81449C62.4624 2.40324 62.3646 3.07854 62.3645 3.76701C62.3645 3.82216 62.3655 3.87688 62.3667 3.93145C62.0984 3.77345 61.8157 3.7286 61.5377 3.79995C61.2597 3.8713 60.9928 4.05717 60.7554 4.34495C60.5179 4.63273 60.3153 5.01567 60.1614 5.46777C60.0075 5.91987 59.9058 6.43055 59.8633 6.96513C59.6197 6.68561 59.3474 6.51169 59.0654 6.45543C58.7834 6.39917 58.4985 6.46192 58.2303 6.63933C57.9622 6.81673 57.7173 7.10454 57.5126 7.48278C57.3079 7.86101 57.1484 8.32061 57.0451 8.82966C56.9417 9.3387 56.8971 9.88501 56.9143 10.4306C56.9315 10.9763 57.01 11.5082 57.1445 11.9894C57.279 12.4706 57.4661 12.8897 57.693 13.2174C57.9199 13.5452 58.1811 13.7738 58.4584 13.8873V13.8873ZM61.7947 11.301C61.8229 11.301 61.8509 11.2992 61.8788 11.2969C61.8963 11.4083 61.9164 11.5173 61.9391 11.6239C61.8926 11.5108 61.8427 11.4029 61.7897 11.3008L61.7947 11.301Z" fill="#E2E2E2"/>
<path d="M59.678 50.3837H61.6319L61.5621 44.7337V44.7315L61.3064 24.0139C61.1103 24.245 60.8848 24.3673 60.655 24.3673C60.4251 24.3673 60.1997 24.245 60.0035 24.0139L59.7479 44.7315V44.7337L59.678 50.3837Z" fill="#F05454"/>
<path d="M56.097 54.4639V99.6687H65.2131V53.8363L63.097 53.9818V44.7337H58.2129V54.3184L56.097 54.4639Z" fill="#F05454"/>
<path d="M81.7389 13.8873C81.7386 13.9147 81.7378 13.9418 81.7378 13.9693C81.7375 14.4731 81.7898 14.9718 81.8916 15.4358C81.9934 15.8997 82.1425 16.3195 82.3301 16.67C82.3594 16.7906 82.392 16.908 82.4278 17.0219C82.292 17.8089 82.2239 18.6334 82.2262 19.4629C82.2262 22.3235 82.9915 24.6425 83.9356 24.6425C84.8797 24.6425 85.645 22.3235 85.645 19.4629C85.6457 18.8432 85.6083 18.2256 85.5336 17.6229C85.8267 17.0113 86.0064 16.2294 86.0444 15.3999C86.0825 14.5703 85.9768 13.7398 85.7438 13.0385C85.9386 13.3667 86.1653 13.617 86.4107 13.7749C86.656 13.9328 86.9152 13.9952 87.1732 13.9584C87.4312 13.9216 87.6828 13.7864 87.9134 13.5606C88.1441 13.3347 88.3492 13.0228 88.5168 12.643C88.6844 12.2631 88.8113 11.8228 88.8899 11.3476C88.9686 10.8724 88.9975 10.3719 88.975 9.87498C88.9526 9.37807 88.8791 8.89472 88.759 8.45299C88.6389 8.01125 88.4744 7.61992 88.2752 7.30172C88.6102 7.06336 88.9049 6.65257 89.1273 6.11397C89.3497 5.57537 89.4913 4.92955 89.5367 4.24667C89.5821 3.56379 89.5297 2.86997 89.385 2.24057C89.2403 1.61117 89.0089 1.07026 88.716 0.676601C88.423 0.282944 88.0798 0.0515917 87.7234 0.00767402C87.3671 -0.0362436 87.0114 0.108954 86.6948 0.427494C86.3783 0.746035 86.1131 1.22574 85.928 1.81449C85.7429 2.40324 85.645 3.07854 85.645 3.76701C85.645 3.82216 85.646 3.87688 85.6472 3.93145C85.3789 3.77345 85.0962 3.7286 84.8182 3.79995C84.5401 3.8713 84.2733 4.05717 84.0359 4.34495C83.7984 4.63273 83.5958 5.01567 83.4419 5.46777C83.288 5.91987 83.1863 6.43055 83.1438 6.96513C82.9002 6.68561 82.6279 6.51169 82.3459 6.45543C82.0639 6.39917 81.779 6.46192 81.5108 6.63933C81.2427 6.81673 80.9977 7.10454 80.7931 7.48278C80.5884 7.86101 80.4289 8.32061 80.3255 8.82966C80.2222 9.3387 80.1776 9.88501 80.1948 10.4306C80.2119 10.9763 80.2905 11.5082 80.425 11.9894C80.5594 12.4706 80.7466 12.8897 80.9735 13.2174C81.2004 13.5452 81.4616 13.7738 81.7389 13.8873V13.8873ZM85.0752 11.301C85.1034 11.301 85.1314 11.2992 85.1593 11.2969C85.1768 11.4083 85.1969 11.5173 85.2196 11.6239C85.173 11.5108 85.1231 11.4029 85.0702 11.3008L85.0752 11.301Z" fill="#E2E2E2"/>
<path d="M82.9588 50.3837H84.9124L84.5868 24.0147C84.1659 24.3063 83.7054 24.3063 83.2844 24.0147L82.9588 50.3837Z" fill="#F05454"/>
<path d="M79.3774 54.4639V99.6687H88.4945V53.8363L87.7456 53.8884L86.3774 53.9818V44.7337H81.4934V54.3184L79.3774 54.4639Z" fill="#F05454"/>
<path d="M74.7729 71.4401H77.0251V67.0972H74.7729V71.4401Z" fill="white"/>
<path d="M71.1693 71.4401H73.4215V67.0972H71.1693V71.4401Z" fill="white"/>
<path d="M67.5656 71.4401H69.8179V67.0972H67.5656V71.4401Z" fill="white"/>
<path d="M74.7729 78.3887H77.0251V74.0458H74.7729V78.3887Z" fill="white"/>
<path d="M71.1693 78.3887H73.4215V74.0458H71.1693V78.3887Z" fill="white"/>
<path d="M67.5656 78.3887H69.8179V74.0458H67.5656V78.3887Z" fill="white"/>
<path d="M74.7729 85.3372H77.0251V80.9944H74.7729V85.3372Z" fill="white"/>
<path d="M71.1693 85.3372H73.4215V80.9944H71.1693V85.3372Z" fill="white"/>
<path d="M67.5656 85.3372H69.8179V80.9944H67.5656V85.3372Z" fill="white"/>
<path d="M59.529 69.7029H61.7812V65.3601H59.529V69.7029Z" fill="white"/>
<path d="M59.529 76.6516H61.7812V72.3087H59.529V76.6516Z" fill="white"/>
<path d="M59.529 83.6001H61.7812V79.2572H59.529V83.6001Z" fill="white"/>
<path d="M59.529 90.5487H61.7812V86.2058H59.529V90.5487Z" fill="white"/>
<path d="M82.7907 69.7029H85.0429V65.3601H82.7907V69.7029Z" fill="white"/>
<path d="M82.7907 76.6516H85.0429V72.3087H82.7907V76.6516Z" fill="white"/>
<path d="M82.7907 83.6001H85.0429V79.2572H82.7907V83.6001Z" fill="white"/>
<path d="M82.7907 90.5487H85.0429V86.2058H82.7907V90.5487Z" fill="white"/>
<path d="M100 99.5157H0V99.95H100V99.5157Z" fill="#3F3D56"/>
</g>
<defs>
<clipPath id="clip0_405_240">
<rect width="100" height="100" fill="white"/>
</clipPath>
</defs>
</svg>
