<svg width="100" height="100" viewBox="0 0 100 100" fill="none" xmlns="http://www.w3.org/2000/svg">
<g clip-path="url(#clip0_50_180)">
<path d="M98.6188 45.56C97.76 45.025 96.6857 44.9715 95.7773 45.418L82.0312 52.1784V82.978L95.7773 89.7383C96.1863 89.9395 96.6287 90.0391 97.0701 90.0391C97.6092 90.0391 98.1465 89.8905 98.6188 89.5963C99.4777 89.0616 100 88.1213 100 87.1094V48.0469C100 47.035 99.4777 46.0948 98.6188 45.56Z" fill="#F05454"/>
<path d="M20.5078 41.2109C30.2004 41.2109 38.0859 33.3254 38.0859 23.6328C38.0859 13.9402 30.2004 6.05469 20.5078 6.05469C10.8152 6.05469 2.92969 13.9402 2.92969 23.6328C2.92969 33.3254 10.8152 41.2109 20.5078 41.2109ZM20.5078 14.8438C25.3541 14.8438 29.2969 18.7865 29.2969 23.6328C29.2969 28.4791 25.3541 32.4219 20.5078 32.4219C15.6615 32.4219 11.7188 28.4791 11.7188 23.6328C11.7188 18.7865 15.6615 14.8438 20.5078 14.8438Z" fill="#F05454"/>
<path d="M20.5078 26.5625C22.1258 26.5625 23.4375 25.2508 23.4375 23.6328C23.4375 22.0148 22.1258 20.7031 20.5078 20.7031C18.8898 20.7031 17.5781 22.0148 17.5781 23.6328C17.5781 25.2508 18.8898 26.5625 20.5078 26.5625Z" fill="#060930"/>
<path d="M55.6641 26.5625C57.2821 26.5625 58.5938 25.2508 58.5938 23.6328C58.5938 22.0148 57.2821 20.7031 55.6641 20.7031C54.046 20.7031 52.7344 22.0148 52.7344 23.6328C52.7344 25.2508 54.046 26.5625 55.6641 26.5625Z" fill="#F05454"/>
<path d="M55.6641 41.2109C65.3566 41.2109 73.2422 33.3254 73.2422 23.6328C73.2422 13.9402 65.3566 6.05469 55.6641 6.05469C45.9715 6.05469 38.0859 13.9402 38.0859 23.6328C38.0859 33.3254 45.9715 41.2109 55.6641 41.2109ZM55.6641 14.8438C60.5104 14.8438 64.4531 18.7865 64.4531 23.6328C64.4531 28.4791 60.5104 32.4219 55.6641 32.4219C50.8178 32.4219 46.875 28.4791 46.875 23.6328C46.875 18.7865 50.8178 14.8438 55.6641 14.8438Z" fill="#060930"/>
<path d="M44.9219 58.7891H60.5469V70.5078H44.9219V58.7891Z" fill="#F05454"/>
<path d="M69.94 42.2072C65.984 45.2549 61.0324 47.0703 55.6641 47.0703C49.734 47.0703 44.3123 44.8555 40.1799 41.2109H35.992C31.8596 44.8555 26.4379 47.0703 20.5078 47.0703C15.1395 47.0703 10.1879 45.2549 6.23184 42.2072C2.55625 43.9152 0 47.6402 0 51.9531V83.2031C0 89.1264 4.81895 93.9453 10.7422 93.9453H65.4297C71.3529 93.9453 76.1719 89.1264 76.1719 83.2031V51.9531C76.1719 47.6402 73.6156 43.9152 69.94 42.2072ZM26.3672 85.1562H12.6953C11.0773 85.1562 9.76562 83.8445 9.76562 82.2266C9.76562 80.6086 11.0773 79.2969 12.6953 79.2969H26.3672C27.9852 79.2969 29.2969 80.6086 29.2969 82.2266C29.2969 83.8445 27.9852 85.1562 26.3672 85.1562ZM26.3672 73.4375H12.6953C11.0773 73.4375 9.76562 72.1258 9.76562 70.5078C9.76562 68.8898 11.0773 67.5781 12.6953 67.5781H26.3672C27.9852 67.5781 29.2969 68.8898 29.2969 70.5078C29.2969 72.1258 27.9852 73.4375 26.3672 73.4375ZM66.4062 73.4375C66.4062 75.0555 65.0945 76.3672 63.4766 76.3672H41.9922C40.3742 76.3672 39.0625 75.0555 39.0625 73.4375V55.8594C39.0625 54.2414 40.3742 52.9297 41.9922 52.9297H63.4766C65.0945 52.9297 66.4062 54.2414 66.4062 55.8594V73.4375Z" fill="#060930"/>
</g>
<defs>
<clipPath id="clip0_50_180">
<rect width="100" height="100" fill="white"/>
</clipPath>
</defs>
</svg>
