<svg width="500" height="422" viewBox="0 0 500 422" fill="none" xmlns="http://www.w3.org/2000/svg">
<path opacity="0.24" d="M307.692 402.949C336.213 388.408 358.954 363.647 388.665 351.741C409.614 343.34 433.211 341.708 452.715 330.337C480.808 314.004 494.64 280.614 498.666 248.401C501.422 226.342 500.338 203.267 491.309 182.946C473.357 142.547 429.252 121.705 397.735 90.6433C375.502 68.7714 358.941 41.0537 333.898 22.4192C298.315 -3.92068 247.16 -7.39877 208.366 13.831C180.274 29.1881 159.847 55.1801 136.865 77.5068C119.582 94.2835 100.579 109.192 80.1718 121.986C62.166 133.277 42.8358 143.096 27.9335 158.252C17.5902 168.924 9.78009 181.787 5.08166 195.887C0.383235 209.986 -1.08317 224.963 0.79104 239.706C3.46649 260.04 12.563 278.955 17.1782 298.941C25.4186 334.698 21.2716 377.372 48.267 402.213C81.5362 432.834 134.644 416.928 174.976 418.627C219.937 420.473 266.156 424.152 307.692 402.949Z" fill="white"/>
<path d="M66.9015 399.096L64.7478 417.985H175.311L172.809 400.167L66.9015 399.096Z" fill="#F05454"/>
<path d="M66.9015 399.096L64.7478 417.985H175.311L172.809 400.167L66.9015 399.096Z" fill="url(#paint0_linear_75_158)"/>
<path d="M152.181 192.31L197.316 298.727L313.257 252.348C313.257 252.348 319.879 246.555 319.879 251.117V258.153C319.879 258.153 345.149 255.665 354.66 250.288C364.171 244.91 358.379 257.324 355.075 261.056C351.77 264.789 331.464 278.861 323.598 278.447C315.732 278.032 300.415 280.922 300.415 280.922C300.415 280.922 210.145 330.203 199.791 330.618C189.437 331.033 174.95 325.267 174.95 325.267L149.533 196.591L152.181 192.31Z" fill="url(#paint1_linear_75_158)"/>
<path opacity="0.24" d="M359.569 290.446C423.602 290.446 475.51 238.538 475.51 174.505C475.51 110.473 423.602 58.5646 359.569 58.5646C295.537 58.5646 243.628 110.473 243.628 174.505C243.628 238.538 295.537 290.446 359.569 290.446Z" fill="white"/>
<path d="M151.285 187.374C151.285 187.374 198.106 290.5 205.116 289.256C212.125 288.011 230.372 280.975 230.372 280.975C230.372 280.975 234.104 283.049 234.519 285.537C234.933 288.025 239.482 312.037 238.652 314.967C237.823 317.896 201.811 335.661 195.591 333.588C189.37 331.514 174.923 325.227 174.923 325.227L154.63 258.983L151.285 187.374Z" fill="#C04949"/>
<path d="M184.019 271.865C181.11 276.304 177.791 280.46 174.107 284.279C174.107 311.395 174.428 338.457 174.107 365.519C174.107 368.195 174.107 370.87 173.986 373.546C173.906 381.131 173.759 388.689 173.518 396.287C173.603 397.624 173.34 398.961 172.756 400.167C171.908 401.448 170.64 402.394 169.17 402.842C163.405 405.103 156.957 404.541 150.79 404.019C129.386 402.164 107.952 401.25 86.4856 401.277C80.9608 401.277 75.4627 401.371 69.9245 401.491C69.0883 401.611 68.2376 401.41 67.5434 400.929C67.1211 400.423 66.8726 399.795 66.8344 399.137C59.8648 358.831 85.5625 318.097 78.0713 277.925C76.68 270.313 74.125 263.036 71.9177 255.598C68.3594 243.92 65.5635 231.84 65.7374 219.627C65.8028 216.147 66.1292 212.677 66.714 209.246C68.0563 200.567 71.5772 192.37 76.9476 185.421C80.2116 181.328 84.4121 177.743 89.5088 176.539C93.522 175.562 97.5352 176.124 101.629 176.713C109.387 177.769 117.12 178.866 124.865 179.95C132.891 181.074 143.687 184.806 151.339 187.281C157.358 201.688 163.779 216.162 173.251 228.603C176.541 232.951 180.193 237.017 183.163 241.566C186.304 246.041 188.155 251.293 188.514 256.749C188.49 262.113 186.93 267.359 184.019 271.865Z" fill="#F05454"/>
<path d="M174.04 373.546C173.764 374.697 173.383 375.821 172.903 376.903C158.429 376.81 142.55 376.194 131.834 366.456C128.223 363.165 125.4 358.951 121.36 356.155C117.32 353.359 111.34 352.396 107.836 355.808C106.496 357.302 105.476 359.055 104.839 360.958C100.505 371.544 96.1618 382.13 91.8097 392.715C90.472 395.779 89.2145 398.922 86.7397 401.103C86.6915 401.173 86.6207 401.225 86.539 401.25C81.0142 401.25 75.5162 401.344 69.978 401.464C69.1418 401.584 68.2911 401.384 67.5968 400.902C67.1746 400.396 66.926 399.768 66.8878 399.11C59.9183 358.804 85.616 318.07 78.1247 277.898C76.68 270.313 74.1249 263.036 71.9177 255.598C68.3593 243.92 65.5635 231.84 65.7374 219.627C65.8027 216.147 66.1292 212.677 66.7139 209.246C70.8609 208.39 75.6499 209.928 79.6497 211.801C92.4117 217.741 104.237 226.596 111.327 238.783C115.34 245.659 117.708 253.364 120.183 260.949C124.036 272.695 128.214 284.324 132.717 295.837C140.008 314.405 148.476 333.08 162.682 347.045C167.779 352.048 172.809 358.403 174.214 365.466C174.744 368.14 174.685 370.897 174.04 373.546Z" fill="url(#paint2_linear_75_158)"/>
<path d="M144.155 62.3503C148.168 58.2167 154.121 56.7185 159.833 56.4911C168.181 56.17 176.849 58.3104 183.284 63.6479C186.768 66.7113 189.697 70.3546 191.939 74.4166C198.173 84.9246 201.506 96.8993 201.597 109.117C201.633 121.359 197.921 133.319 190.962 143.39C184.969 151.871 179.752 160.78 170.896 166.225C161.968 171.691 151.521 174.148 141.092 173.235C140.334 173.203 139.587 173.041 138.885 172.753C137.626 171.995 136.678 170.814 136.209 169.422C133.626 163.117 132.704 156.253 133.534 149.49C134.378 142.761 135.774 136.112 137.707 129.611C142.51 111.525 147.071 92.9174 145.239 74.2962C144.771 69.9219 143.74 66.7247 144.155 62.3503Z" fill="#7A7A7A"/>
<path d="M169.759 77.801C173.384 82.6971 174.775 88.8105 176.635 94.6028C178.494 100.395 181.21 106.361 186.374 109.559C187.711 110.361 189.183 111.084 189.745 112.502C190.721 115.03 188.006 117.358 187.203 119.939C186.4 122.521 187.604 125.371 187.297 128.086C187.136 129.584 186.507 131.016 186.24 132.514C185.946 134.253 186.16 136.059 185.798 137.785C184.849 142.467 180.126 145.356 175.618 146.948C171.11 148.54 166.161 149.624 162.656 152.807C158.923 156.245 157.586 161.503 156.435 166.452L149.412 196.551C148.676 199.681 148.074 203.24 149.88 205.915C160.101 220.416 166.375 237.793 164.983 255.411C156.342 231.693 139.018 212.229 120.838 194.665C116.825 190.785 112.718 186.906 109.856 182.13C104.063 172.512 104.05 160.366 106.765 149.463C111.889 128.929 125.587 111.753 134.858 92.6765C137.038 88.1818 139.112 83.3124 143.098 80.3561C146.804 77.5468 151.579 76.7442 156.168 76.0218C160.984 75.2861 166.896 73.8681 169.759 77.801Z" fill="url(#paint3_linear_75_158)"/>
<path d="M153.679 153.423C152.646 157.845 151.305 162.19 149.666 166.425C145.983 175.084 140.15 182.659 132.719 188.432C125.289 194.205 116.507 197.985 107.207 199.414C93.8295 201.34 79.3954 198.317 67.075 204.029C65.3225 184.298 64.0517 162.626 75.6632 146.574C79.4623 141.303 84.5457 136.862 87.1676 130.922C91.8764 120.22 87.5556 107.953 88.1174 96.3152C88.9468 79.607 100.839 64.2098 116.491 58.297C127.192 54.2036 140.784 54.0029 151.405 58.7385C159.137 62.1898 160.422 67.5407 161.278 75.4199C164.221 101.76 160.208 127.872 153.679 153.423Z" fill="#9C9C9C"/>
<path d="M278.583 318.699C287.158 316.345 295.746 313.977 304.094 310.927C320.615 304.894 336.039 296.212 351.382 287.664C354.058 290.5 349.296 295.69 351.57 298.874C352.114 299.543 352.811 300.071 353.603 300.412C363.128 305.161 374.579 302.058 385.133 303.502C386.003 306.057 383.327 308.332 380.933 309.576C363.944 318.351 344.025 319.1 325.845 325.04C320.682 326.725 315.652 328.839 310.622 330.886C291.894 338.484 272.867 345.235 253.541 351.139C244.043 354.042 234.318 356.757 224.379 356.65C223.419 356.716 222.46 356.512 221.609 356.062C220.761 355.369 220.141 354.437 219.83 353.386C218.064 349.025 214.907 341.28 218.091 336.798C221.074 332.611 230.238 332.009 234.813 330.752L278.583 318.699Z" fill="url(#paint4_linear_75_158)"/>
<path d="M306.957 77.4934V243.131L407.995 270.461V125.799L394.457 112.421L375.542 93.8003L306.957 77.4934Z" fill="white"/>
<path d="M387.568 131.872L378.458 96.8235L407.433 125.799L387.568 131.872Z" fill="#F05454"/>
<path d="M324.377 137.061L323.705 139.927L387.193 154.829L387.866 151.964L324.377 137.061Z" fill="#F05454"/>
<path d="M339.557 130.066L324.427 126.548L325.096 123.685L340.239 127.203L339.557 130.066Z" fill="#F05454"/>
<path d="M346.459 131.578L342.366 130.681L343.035 127.819L347.128 128.715L346.459 131.578Z" fill="#F05454"/>
<path d="M353.777 133.303L349.684 132.407L350.352 129.544L354.446 130.441L353.777 133.303Z" fill="#F05454"/>
<path d="M324.382 152.514L323.71 155.38L387.198 170.282L387.871 167.417L324.382 152.514Z" fill="#F05454"/>
<path d="M324.375 167.978L323.703 170.843L387.191 185.746L387.864 182.881L324.375 167.978Z" fill="#F05454"/>
<path d="M324.38 183.431L323.708 186.296L387.196 201.199L387.869 198.334L324.38 183.431Z" fill="#F05454"/>
<path d="M376.599 234.275L365.669 211.159L347.837 226.918L337.871 204.899L326.099 214.45L324.24 212.176L338.982 200.203L348.881 222.075L366.659 206.357L377.267 228.79L386.565 217.353L388.839 219.212L376.599 234.275Z" fill="#F05454"/>
<path d="M84.6264 235.372C84.6264 235.372 133.159 354.751 150.456 366.643C170.335 380.301 239.87 357.828 239.87 357.828C239.87 357.828 233.93 330.364 229.516 329.254C225.101 328.143 173.505 331.514 173.505 331.514L119.782 208.617C119.782 208.617 91.9839 190.237 82.6198 209.286C82.6198 209.286 77.9912 223.493 84.6264 235.372Z" fill="#F05454"/>
<path d="M173.505 331.514C173.505 331.514 140.931 260.949 140.382 259.531C139.834 258.113 173.237 290.446 173.237 290.446L173.505 331.514Z" fill="url(#paint5_linear_75_158)"/>
<defs>
<linearGradient id="paint0_linear_75_158" x1="64.7478" y1="408.541" x2="175.311" y2="408.541" gradientUnits="userSpaceOnUse">
<stop stop-opacity="0"/>
<stop offset="0.95" stop-color="#C5C5C5"/>
</linearGradient>
<linearGradient id="paint1_linear_75_158" x1="149.412" y1="261.471" x2="359.81" y2="261.471" gradientUnits="userSpaceOnUse">
<stop stop-color="#E5C5D5"/>
<stop offset="0.42" stop-color="#EAD4D1"/>
<stop offset="1" stop-color="#F0E9CB"/>
</linearGradient>
<linearGradient id="paint2_linear_75_158" x1="6253.15" y1="45853.4" x2="21830.1" y2="43274.3" gradientUnits="userSpaceOnUse">
<stop stop-opacity="0"/>
<stop offset="0.95"/>
</linearGradient>
<linearGradient id="paint3_linear_75_158" x1="8664.65" y1="22698.7" x2="14055.1" y2="22698.7" gradientUnits="userSpaceOnUse">
<stop stop-color="#E5C5D5"/>
<stop offset="0.42" stop-color="#EAD4D1"/>
<stop offset="1" stop-color="#F0E9CB"/>
</linearGradient>
<linearGradient id="paint4_linear_75_158" x1="31276.3" y1="17037.8" x2="52519.9" y2="17037.8" gradientUnits="userSpaceOnUse">
<stop stop-color="#E5C5D5"/>
<stop offset="0.42" stop-color="#EAD4D1"/>
<stop offset="1" stop-color="#F0E9CB"/>
</linearGradient>
<linearGradient id="paint5_linear_75_158" x1="5226.64" y1="15751.4" x2="2866" y2="16353.5" gradientUnits="userSpaceOnUse">
<stop stop-opacity="0"/>
<stop offset="0.95"/>
</linearGradient>
</defs>
</svg>
