<svg width="500" height="410" viewBox="0 0 500 410" fill="none" xmlns="http://www.w3.org/2000/svg">
<g clip-path="url(#clip0_70_10)">
<path opacity="0.18" d="M370.016 71.2453C354.754 53.9515 342.939 33.3058 324.697 19.1925C296.044 -3.02285 254.806 -5.18887 221.302 8.76683C187.798 22.7225 161.698 50.8533 144.495 82.706C135.447 99.4651 128.338 117.746 115.079 131.441C103.869 143.012 89.137 150.394 75.1684 158.434C52.6466 171.362 30.9574 186.983 16.3833 208.417C1.80917 229.851 -4.70722 258.002 4.60977 282.157C10.8922 298.457 23.5465 311.426 36.5105 323.168C51.7658 336.972 68.1634 349.9 87.0864 358.125C110.778 368.359 137.077 370.559 162.868 371.601C208.589 373.44 254.384 372.066 299.911 367.488C337.193 363.746 375.603 357.358 406.795 336.678C450.49 307.718 473.019 254.657 478.09 202.625C480.154 181.815 479.631 160.189 471.567 140.88C452.279 94.6944 400.237 105.497 370.016 71.2453Z" fill="white"/>
<path d="M184.998 163.973C184.998 163.973 167.706 160.943 162.862 172.883C158.017 184.824 162.862 226.06 162.862 226.06L227.379 271.56L184.998 163.973Z" fill="#7A7A7A"/>
<path d="M266.291 347.624L241.264 355.007C239.518 355.517 237.64 355.318 236.04 354.452C234.441 353.586 233.252 352.124 232.732 350.387C232.219 348.647 232.42 346.776 233.289 345.183C234.158 343.59 235.625 342.405 237.37 341.887L262.362 334.498C264.107 333.987 265.985 334.186 267.584 335.05C269.183 335.915 270.373 337.375 270.894 339.111C271.413 340.848 271.219 342.719 270.356 344.314C269.494 345.909 268.032 347.1 266.291 347.624Z" fill="#F05454"/>
<path d="M264.88 374.898C271.25 374.898 276.413 369.755 276.413 363.41C276.413 357.066 271.25 351.922 264.88 351.922C258.511 351.922 253.348 357.066 253.348 363.41C253.348 369.755 258.511 374.898 264.88 374.898Z" fill="#636363"/>
<path d="M262.802 370.203C265.987 370.203 268.569 367.631 268.569 364.459C268.569 361.287 265.987 358.715 262.802 358.715C259.618 358.715 257.036 361.287 257.036 364.459C257.036 367.631 259.618 370.203 262.802 370.203Z" fill="white"/>
<path d="M218.646 363.547C225.016 363.547 230.179 358.404 230.179 352.059C230.179 345.714 225.016 340.571 218.646 340.571C212.277 340.571 207.114 345.714 207.114 352.059C207.114 358.404 212.277 363.547 218.646 363.547Z" fill="#25233A"/>
<path d="M222.342 353.094C222.342 354.23 222.003 355.341 221.37 356.285C220.736 357.23 219.836 357.966 218.782 358.401C217.728 358.836 216.569 358.949 215.45 358.728C214.332 358.506 213.304 357.959 212.498 357.156C211.691 356.352 211.142 355.329 210.92 354.215C210.697 353.1 210.811 351.946 211.248 350.896C211.684 349.846 212.423 348.949 213.372 348.318C214.32 347.687 215.435 347.35 216.575 347.35C218.105 347.35 219.571 347.955 220.653 349.032C221.734 350.11 222.342 351.571 222.342 353.094Z" fill="url(#paint0_linear_70_10)"/>
<path d="M215.309 379.258C221.678 379.258 226.842 374.114 226.842 367.77C226.842 361.425 221.678 356.281 215.309 356.281C208.94 356.281 203.776 361.425 203.776 367.77C203.776 374.114 208.94 379.258 215.309 379.258Z" fill="#636363"/>
<path d="M224.42 368.153C224.42 369.29 224.081 370.4 223.448 371.345C222.814 372.289 221.914 373.026 220.86 373.46C219.806 373.895 218.647 374.009 217.528 373.787C216.41 373.566 215.382 373.018 214.576 372.215C213.769 371.412 213.22 370.388 212.998 369.274C212.775 368.16 212.889 367.005 213.326 365.955C213.762 364.906 214.501 364.009 215.45 363.377C216.398 362.746 217.513 362.409 218.653 362.409C220.183 362.409 221.649 363.015 222.731 364.092C223.812 365.169 224.42 366.63 224.42 368.153Z" fill="white"/>
<path d="M267.199 358.893L214.456 348.289C212.673 347.926 211.107 346.873 210.101 345.363C209.095 343.852 208.731 342.006 209.089 340.228C209.454 338.454 210.509 336.895 212.024 335.894C213.539 334.892 215.39 334.528 217.174 334.882L269.917 345.465C271.7 345.829 273.266 346.881 274.272 348.392C275.278 349.902 275.642 351.748 275.285 353.526C274.924 355.304 273.871 356.868 272.355 357.874C270.84 358.88 268.986 359.246 267.199 358.893Z" fill="#F05454"/>
<path d="M234.686 276.352H249.088V336.774C249.088 338.675 248.33 340.499 246.98 341.843C245.63 343.188 243.799 343.943 241.891 343.943C239.982 343.943 238.151 343.188 236.801 341.843C235.451 340.499 234.693 338.675 234.693 336.774V276.352H234.686Z" fill="#F05454"/>
<path d="M239.854 354.924L214.834 362.32C213.087 362.833 211.207 362.635 209.606 361.769C208.005 360.903 206.814 359.439 206.295 357.7C205.782 355.961 205.982 354.089 206.852 352.496C207.721 350.904 209.188 349.718 210.932 349.201L235.952 341.825C237.698 341.314 239.575 341.513 241.174 342.377C242.773 343.242 243.964 344.702 244.485 346.438C244.993 348.175 244.792 350.042 243.924 351.632C243.057 353.222 241.594 354.405 239.854 354.924Z" fill="#F05454"/>
<path d="M243.996 354.191L241.244 355.007C240.423 355.248 239.564 355.334 238.712 355.26L239.861 354.924C240.66 354.692 241.409 354.313 242.07 353.807L243.996 354.191Z" fill="url(#paint1_linear_70_10)"/>
<path d="M271.183 341.072C271.182 342.647 270.633 344.173 269.628 345.39L247.746 340.982C248.297 340.235 248.695 339.388 248.916 338.487L262.396 334.512C263.265 334.262 264.174 334.186 265.072 334.286C265.97 334.387 266.839 334.663 267.631 335.098C268.422 335.534 269.119 336.12 269.682 336.824C270.246 337.528 270.665 338.335 270.915 339.2C271.09 339.809 271.18 340.438 271.183 341.072Z" fill="url(#paint2_linear_70_10)"/>
<path opacity="0.31" d="M234.872 338.405C234.748 337.87 234.686 337.323 234.686 336.774V276.352H239.689V341.469C239.639 341.789 239.656 342.115 239.737 342.429C238.979 342.103 238.167 341.924 237.342 341.901C236.76 341.86 236.176 341.86 235.594 341.901L235.952 341.798C236.172 341.757 235.161 339.639 234.872 338.405Z" fill="url(#paint3_linear_70_10)"/>
<path opacity="0.31" d="M271.83 358.153C270.826 358.707 269.696 358.997 268.548 358.996C268.086 358.995 267.625 358.949 267.172 358.859L243.969 354.191L242.035 353.807C241.375 354.313 240.626 354.692 239.826 354.924L238.677 355.26L214.834 362.32C213.087 362.833 211.207 362.635 209.606 361.769C208.005 360.903 206.814 359.44 206.295 357.7C207.297 358.627 208.592 359.177 209.958 359.254C211.323 359.332 212.673 358.933 213.774 358.125C216.685 356.117 228.273 353.101 234.837 351.497C236.356 351.136 237.736 350.343 238.811 349.215C239.886 348.087 240.609 346.672 240.893 345.143C240.909 344.959 240.937 344.776 240.975 344.595C242.069 345.774 244.079 347.097 247.712 348.221C256.657 350.962 271.183 352.779 271.183 352.779C271.183 352.779 273.805 355.342 271.83 358.153Z" fill="url(#paint4_linear_70_10)"/>
<path d="M274.321 355.85C273.869 356.556 273.288 357.172 272.608 357.666C273.069 357.193 273.661 356.563 274.321 355.85Z" fill="url(#paint5_linear_70_10)"/>
<path d="M234.872 338.405C235.155 339.621 235.752 340.741 236.606 341.654C236.393 341.695 236.172 341.75 235.952 341.812L214.263 348.207C212.65 347.799 211.24 346.823 210.295 345.459C209.349 344.095 208.931 342.436 209.12 340.788C209.308 339.141 210.089 337.618 211.318 336.501C212.547 335.383 214.141 334.747 215.804 334.71C216.267 334.712 216.727 334.758 217.181 334.848L234.872 338.405Z" fill="url(#paint6_linear_70_10)"/>
<path d="M268.286 47.3575C268.286 47.3575 268.004 26.0538 250.864 27.8908C233.723 29.7278 235.037 22.6745 227.716 23.4491C220.394 24.2236 211.889 31.4208 214.332 40.3111C216.775 49.2013 207.871 51.1891 202.022 57.9339C196.173 64.6787 203.398 70.1966 213.252 76.7906C223.105 83.3846 212.639 81.6778 218.481 92.1034C224.323 102.529 244.099 89.2108 244.099 89.2108L268.286 47.3575Z" fill="#7A7A7A"/>
<path d="M128.47 403.797L140.629 404.208V307.485C140.629 307.485 141.241 282.473 164.94 279.964C188.638 277.455 403.562 246.466 403.562 246.466C403.562 246.466 412.08 245.568 416.987 261.841C421.893 278.113 426.668 342.1 426.668 342.1L492.637 350.949C492.637 350.949 494.378 237.919 470.556 231.681C446.734 225.443 135.193 257.228 135.193 257.228C135.193 257.228 112.086 377.277 128.47 403.797Z" fill="#F05454"/>
<path d="M128.47 403.797L140.629 404.208V307.485C140.629 307.485 141.241 282.473 164.94 279.964C188.638 277.455 403.562 246.466 403.562 246.466C403.562 246.466 412.08 245.568 416.987 261.841C421.893 278.113 426.668 342.1 426.668 342.1L492.637 350.949C492.637 350.949 494.378 237.919 470.556 231.681C446.734 225.443 135.193 257.228 135.193 257.228C135.193 257.228 112.086 377.277 128.47 403.797Z" fill="url(#paint7_linear_70_10)"/>
<path d="M64.3105 269.1C64.3105 269.1 70.2696 236.253 112.182 227.644L408.041 193.879C408.041 193.879 437.086 192.679 450.374 200.692C463.661 208.705 482.625 215.347 490.401 251.607C498.176 287.867 500.034 349.811 500.034 349.811L492.679 350.949C492.679 350.949 481.944 238.782 470.57 231.681C459.195 224.58 151.659 268.147 151.659 268.147C151.659 268.147 130.328 272.376 128.47 303.865C126.612 335.355 128.47 403.79 128.47 403.79L64.3105 377.99V269.1Z" fill="white"/>
<path opacity="0.19" d="M368.695 206.518C353.385 204.53 337.951 203.091 322.523 203.674C310.929 204.126 299.41 205.73 287.911 207.327L186.505 221.454C184.785 221.694 182.823 222.085 181.963 223.593C180.312 226.472 184.193 229.309 187.337 230.406C221.055 242.182 257.077 254.109 291.785 245.712C307.653 241.874 322.392 233.902 338.487 231.133C354.582 228.363 371.104 230.913 387.164 228.302C402.261 225.848 416.636 218.877 431.939 218.808C436.632 218.808 441.463 219.412 445.915 217.931C450.367 216.45 454.303 211.926 453.071 207.416C438.703 206.916 422.574 204.27 408.482 207.142C394.534 209.98 382.664 206.518 368.695 206.518Z" fill="url(#paint8_linear_70_10)"/>
<path d="M276.991 223.737L277.583 225.992C277.583 225.992 295.102 236.842 294.992 237.192C294.882 237.542 367.663 219.871 367.663 219.871L369.356 214.798L276.991 223.737Z" fill="#F05454"/>
<path d="M276.991 223.737L277.583 225.992C277.583 225.992 295.102 236.842 294.992 237.192C294.882 237.542 367.663 219.871 367.663 219.871L369.356 214.798L276.991 223.737Z" fill="url(#paint9_linear_70_10)"/>
<path d="M278.629 223.737L342.65 209.363L369.342 214.798L296.609 233.025L278.629 223.737Z" fill="#F05454"/>
<path d="M278.629 223.737L342.65 209.363L369.342 214.798L296.609 233.025L278.629 223.737Z" fill="url(#paint10_linear_70_10)"/>
<path d="M258.474 235.108L273.674 235.615C273.674 235.615 277.535 235.842 278.532 232.922C279.53 230.002 272.34 223.839 271.569 223.723C270.798 223.606 250.795 228.898 253.678 234.19L258.474 235.108Z" fill="#F05454"/>
<path d="M258.474 235.108L273.674 235.615C273.674 235.615 277.535 235.842 278.532 232.922C279.53 230.002 272.34 223.839 271.569 223.723C270.798 223.606 250.795 228.898 253.678 234.19L258.474 235.108Z" fill="url(#paint11_linear_70_10)"/>
<path d="M82.7793 384.255L75.3821 406.628C53.9269 414.216 35.6852 406.628 35.6852 406.628L30.3799 383.165C30.3799 383.165 57.1404 392 82.7793 384.255Z" fill="#F05454"/>
<path d="M82.7793 384.255L75.3821 406.628C53.9269 414.216 35.6852 406.628 35.6852 406.628L30.3799 383.165C30.3799 383.165 57.1404 392 82.7793 384.255Z" fill="url(#paint12_linear_70_10)"/>
<path d="M91.1673 363.424L88.7934 381.108L82.7793 384.248C57.161 391.993 30.3799 383.165 30.3799 383.165L25.7627 379.738L23.6089 363.424H91.1673Z" fill="#F05454"/>
<path d="M91.1673 363.424L88.7934 381.108L82.7793 384.248C57.161 391.993 30.3799 383.165 30.3799 383.165L25.7627 379.738L23.6089 363.424H91.1673Z" fill="url(#paint13_linear_70_10)"/>
<path d="M57.3812 369.476C76.0332 369.476 91.1536 366.767 91.1536 363.424C91.1536 360.081 76.0332 357.371 57.3812 357.371C38.7293 357.371 23.6089 360.081 23.6089 363.424C23.6089 366.767 38.7293 369.476 57.3812 369.476Z" fill="#BCBCBC"/>
<path d="M57.3812 369.476C76.0332 369.476 91.1536 366.767 91.1536 363.424C91.1536 360.081 76.0332 357.371 57.3812 357.371C38.7293 357.371 23.6089 360.081 23.6089 363.424C23.6089 366.767 38.7293 369.476 57.3812 369.476Z" fill="url(#paint14_linear_70_10)"/>
<path d="M41.314 228.377C37.9973 226.814 34.4329 225.635 31.5635 223.353C25.7834 218.712 24.3177 210.72 22.508 203.55C20.6983 196.38 17.1958 188.498 10.0601 186.441C7.39026 185.681 4.25936 185.982 2.22944 187.874C0.0894287 189.869 -0.34408 193.145 0.240812 196.038C0.825704 198.93 2.25009 201.521 3.35106 204.263C5.92202 210.631 6.70462 217.576 5.61494 224.354C4.71351 229.913 2.55974 235.547 3.94283 240.996C6.28928 250.243 17.9802 255.665 18.3036 265.193C18.5238 271.622 13.2116 277.572 14.4158 283.898C15.3035 288.58 19.6317 292.233 19.8657 296.99C20.1271 302.385 15.0076 306.95 15.2553 312.344C15.503 317.739 20.9116 321.344 24.4416 325.587C27.4009 329.151 29.1606 333.551 29.4716 338.165C29.6574 341.044 29.2859 344.026 30.2286 346.754C30.9167 348.748 32.2929 350.442 33.3595 352.237C34.5361 354.177 35.4238 356.275 36.8413 358.071C38.6233 360.308 41.0384 361.961 43.774 362.817C46.5097 363.672 49.44 363.69 52.1861 362.869C53.2802 355.699 52.3237 348.385 52.6265 341.14C53.2251 327.102 58.558 312.954 55.145 299.328C53.8926 294.331 51.4842 289.588 51.0576 284.46C50.6791 279.882 51.904 275.344 52.7572 270.827C54.5188 261.498 54.4913 251.854 53.7687 242.422C53.1976 234.937 47.9129 231.489 41.314 228.377Z" fill="white"/>
<path d="M62.4044 265.144C62.3494 271.403 63.7806 277.873 61.7714 283.816C60.2506 288.319 56.9064 292.007 55.1793 296.435C51.1951 306.655 56.5555 318.116 55.4614 329.028C55.0073 333.525 53.459 337.843 52.4819 342.257C51.2683 347.846 50.9709 353.594 51.6011 359.277C51.5366 360.312 51.8491 361.335 52.4812 362.158C53.1132 362.982 54.0224 363.55 55.0417 363.76C58.4132 365.041 61.9058 365.98 65.4665 366.563C64.2628 359.947 65.5306 353.12 69.0309 347.371C74.4876 338.46 85.0914 332.455 87.0662 322.222C88.4012 315.292 85.2909 308.259 85.5111 301.206C85.6696 296.513 87.2905 291.985 90.1489 288.251C92.7156 284.92 96.1905 282.342 98.5783 278.888C104.317 270.56 102.528 259.428 100.822 249.468C99.115 239.509 98.1241 228.048 104.868 220.501C107.001 218.116 109.781 216.327 111.714 213.777C116.022 208.095 114.935 199.342 109.925 194.262C104.916 189.183 96.8511 187.778 90.0388 190.013C87.1653 190.856 84.6291 192.575 82.7862 194.927C79.3456 199.794 80.7219 206.443 82.1807 212.228C83.4537 217.252 84.4789 223.051 82.738 228.117C81.4375 231.887 78.1415 233.929 75.3409 236.554C71.3712 240.213 68.1804 244.63 65.9581 249.541C63.7358 254.452 62.5273 259.759 62.4044 265.144Z" fill="white"/>
<path d="M55.2963 320.597C54.3191 327.397 52.9085 334.251 52.6195 341.072V341.757C52.6041 341.926 52.5647 342.092 52.5025 342.251C51.2821 347.838 50.9776 353.586 51.6011 359.27C51.6381 360.191 51.8727 361.093 52.2892 361.916C52.2548 362.204 52.2135 362.485 52.1722 362.773C49.4262 363.594 46.4958 363.576 43.7602 362.721C41.0245 361.866 38.6095 360.212 36.8274 357.975C35.4512 356.179 34.5223 354.081 33.3456 352.141C32.2446 350.339 30.9028 348.646 30.2147 346.658C29.272 343.916 29.6436 340.948 29.4578 338.069C29.1467 333.455 27.387 329.055 24.4277 325.491C20.8977 321.276 15.4823 317.739 15.2415 312.255C15.0006 306.772 20.1133 302.296 19.8518 296.901C19.6178 292.144 15.2896 288.491 14.402 283.809C13.1978 277.483 18.5306 271.533 18.2898 265.103C17.9664 255.576 6.27543 250.154 3.92898 240.907C2.55277 235.458 4.69966 229.823 5.60108 224.265C6.69566 217.496 5.92265 210.559 3.36473 204.195C2.26376 201.453 0.839376 198.869 0.254484 195.969C-0.330408 193.07 0.103101 189.8 2.24312 187.799C4.30744 185.907 7.40393 185.605 10.0738 186.366C17.2163 188.423 20.7051 196.333 22.5217 203.502C24.3383 210.672 25.7971 218.658 31.5772 223.305C34.4328 225.601 38.011 226.766 41.3277 228.329C47.9335 231.441 53.2182 234.889 53.7824 242.305C54.4705 251.737 54.5325 261.381 52.7709 270.71C51.9176 275.228 50.7066 279.765 51.0713 284.344C51.436 288.923 53.4384 293.255 54.7458 297.696C54.8903 298.197 55.0348 298.704 55.1586 299.211C56.8927 306.265 56.3353 313.4 55.2963 320.597Z" fill="url(#paint15_linear_70_10)"/>
<path d="M52.3238 361.916C51.8964 361.098 51.65 360.198 51.6013 359.277C50.9824 353.592 51.2914 347.844 52.5165 342.257C52.5509 342.093 52.5922 341.928 52.6335 341.764C52.3858 348.495 53.1702 355.281 52.3238 361.916Z" fill="url(#paint16_linear_70_10)"/>
<path d="M111.618 213.743C109.685 216.293 106.905 218.082 104.771 220.467C98.028 228.007 99.0188 239.474 100.725 249.434C102.432 259.394 104.221 270.525 98.4821 278.853C96.0944 282.281 92.6194 284.885 90.0528 288.217C87.1944 291.951 85.5735 296.478 85.415 301.172C85.1948 308.225 88.305 315.257 86.9701 322.187C84.9952 332.421 74.3915 338.439 68.9348 347.336C65.4476 353.091 64.1898 359.916 65.3979 366.529C61.8461 365.946 58.3626 365.007 55.0006 363.725C54.081 363.453 53.247 362.951 52.5784 362.265C52.4836 362.154 52.3984 362.035 52.3238 361.909C51.8973 361.093 51.651 360.196 51.6013 359.277C50.9824 353.592 51.2914 347.844 52.5165 342.257C52.5509 342.093 52.5922 341.928 52.6335 341.764C53.6106 337.521 55.0556 333.36 55.496 329.028C55.7301 326.22 55.6748 323.394 55.3309 320.597C56.3699 313.4 56.9273 306.264 55.1726 299.259C55.0487 298.752 54.9042 298.245 54.7597 297.744C54.8905 297.306 55.0419 296.867 55.2139 296.435C56.941 292.007 60.2852 288.319 61.806 283.816C63.8084 277.873 62.384 271.403 62.439 265.144C62.5285 254.335 67.4209 243.896 75.2791 236.52C78.0797 233.895 81.3758 231.852 82.6763 228.082C84.4172 223.017 83.3644 217.218 82.1189 212.194C80.6532 206.409 79.2633 199.76 82.7245 194.893C84.4447 192.48 87.1559 190.911 89.9771 189.978C96.7619 187.744 104.861 189.149 109.863 194.228C114.866 199.307 115.926 208.095 111.618 213.743Z" fill="url(#paint17_linear_70_10)"/>
<path d="M233.585 106.244C233.585 106.244 204.636 110.652 191.246 142.093C177.855 173.535 184.819 212.489 185.053 215.916C185.287 219.343 226.085 234.21 237.748 234.21C249.412 234.21 251.841 222.702 251.841 222.702L231.232 214.058L293.85 206.936H305.093L298.9 217.218C298.9 217.218 311.121 218.479 319.289 218.767C327.457 219.055 333.003 203.146 333.918 195.236C334.833 187.326 297.841 117.897 292.315 113.784C286.79 109.672 271.796 99.6229 233.585 106.244Z" fill="#F05454"/>
<path d="M268.287 47.3575C268.287 47.3575 273.413 50.2706 272.952 59.6955C272.491 69.1204 269.601 83.3023 266.683 86.9763C263.766 90.6503 253.561 92.0897 253.561 92.0897C253.561 92.0897 259.128 105.449 263.27 108.897C267.413 112.345 259.107 125.046 251.029 120.879C242.95 116.711 233.585 106.244 233.585 106.244C233.585 106.244 240.322 93.6389 238.044 87.0037C235.767 80.3686 227.069 57.084 233.585 50.723C240.102 44.3621 254.153 35.2456 268.287 47.3575Z" fill="url(#paint18_linear_70_10)"/>
<path opacity="0.25" d="M221.867 151.504L217.325 206.936L231.197 214.058L242.476 212.132L228.404 195.208L221.867 151.504Z" fill="white"/>
<path opacity="0.25" d="M294.992 148.742C294.992 148.742 313.124 191.726 305.086 206.971L298.894 205.785L294.992 148.742Z" fill="white"/>
<path d="M244.306 220.714C244.306 220.714 237.383 226.883 240.473 231.681C243.563 236.479 247.251 236.342 250.327 234.197C253.403 232.051 259.444 226.958 266.642 229.296C273.839 231.633 275.587 233.12 275.587 233.12C275.587 233.12 279.379 230.646 278.395 228.165C277.411 225.683 269.883 217.643 267.702 216.601C265.52 215.559 256.465 218.76 256.465 218.76C256.465 218.76 249.811 216.882 244.306 220.714Z" fill="url(#paint19_linear_70_10)"/>
<path d="M307.144 209.137C307.144 209.137 300.552 209.891 298.887 214.058C297.221 218.226 296.623 218.733 296.623 218.733C296.623 218.733 300.345 219.418 301.894 217.479C303.442 215.539 305.052 216.354 305.052 216.354L304.591 218.843C304.591 218.843 314.706 220.309 319.275 218.733C323.844 217.156 325.805 215.306 325.805 215.306L327.595 211.097C327.595 211.097 323.28 208.088 320.025 207.622C316.771 207.156 307.144 209.137 307.144 209.137Z" fill="url(#paint20_linear_70_10)"/>
<path d="M340.607 255.48C340.607 255.48 363.06 272.506 361.064 295.537C359.069 318.568 356.137 352.765 356.137 352.765C356.137 352.765 347.082 356.563 341.081 352.765C335.081 348.968 331.448 297.004 328.475 292.041C325.503 287.079 307.619 264.706 288.51 262.78L340.607 255.48Z" fill="#7A7A7A"/>
<path d="M227.378 271.533C227.378 271.533 238.202 281.815 257.497 285.043C276.791 288.271 285.785 290.965 291.682 307.491C297.579 324.018 303.236 359.585 305.087 363.561C306.938 367.537 314.809 365.508 314.809 365.508C314.809 365.508 319.262 360.422 319.262 332.14C319.262 292.713 322.014 284.632 312.098 274.727C302.183 264.822 293.162 262.122 293.162 262.122L227.378 271.533Z" fill="#BCBCBC"/>
<path d="M305.086 363.561L306.924 377.99H310.364C310.364 377.99 332.521 379.196 333.216 378.675C333.911 378.154 332.15 367.249 323.755 367.557C315.36 367.866 314.809 365.501 314.809 365.501L305.086 363.561Z" fill="#EFD4D2"/>
<path d="M343.786 353.951L347.364 368.153L386.462 362.807C386.462 362.807 387.838 353.478 375.452 354.403C372.184 354.643 369.748 356.933 365.819 356.953C361.89 356.974 358.126 355.37 356.144 352.765L343.786 353.951Z" fill="#F0D5D1"/>
<path d="M480.121 175.282L332.129 183.179C330.41 183.268 328.726 182.675 327.446 181.529C326.166 180.382 325.396 178.777 325.303 177.065C325.303 176.955 325.303 176.838 325.303 176.729V72.2598C325.305 70.2259 326.105 68.2733 327.534 66.8204C328.963 65.3675 330.907 64.5299 332.948 64.4869L480.334 61.4572C481.27 61.4381 482.201 61.6029 483.073 61.9422C483.946 62.2816 484.742 62.7888 485.418 63.4349C486.093 64.0809 486.634 64.8532 487.01 65.7077C487.385 66.5621 487.589 67.4819 487.607 68.4145V167.42C487.605 169.436 486.828 171.374 485.435 172.836C484.043 174.298 482.141 175.174 480.121 175.282Z" fill="white"/>
<path d="M486.947 175.282L338.955 183.179C337.236 183.267 335.553 182.671 334.274 181.524C332.996 180.376 332.227 178.77 332.136 177.058C332.136 176.948 332.136 176.838 332.136 176.729V72.2598C332.134 70.2259 332.933 68.2724 334.361 66.8189C335.789 65.3655 337.733 64.5281 339.774 64.4868L487.174 61.4572C489.061 61.4223 490.885 62.1344 492.246 63.4373C493.607 64.7403 494.393 66.5277 494.433 68.4076V167.42C494.431 169.436 493.654 171.374 492.261 172.836C490.869 174.298 488.967 175.174 486.947 175.282Z" fill="#F05454"/>
<path d="M486.947 175.282L338.955 183.179C337.236 183.267 335.553 182.671 334.274 181.524C332.996 180.376 332.227 178.77 332.136 177.058C332.136 176.948 332.136 176.838 332.136 176.729V72.2598C332.134 70.2259 332.933 68.2724 334.361 66.8189C335.789 65.3655 337.733 64.5281 339.774 64.4868L487.174 61.4572C489.061 61.4223 490.885 62.1344 492.246 63.4373C493.607 64.7403 494.393 66.5277 494.433 68.4076V167.42C494.431 169.436 493.654 171.374 492.261 172.836C490.869 174.298 488.967 175.174 486.947 175.282Z" fill="url(#paint21_linear_70_10)"/>
<path d="M443.857 214.744L406.28 218.733C406.28 218.733 394.837 216.43 395.456 214.744C396.075 213.057 408.041 211.433 408.041 211.433V143.464C407.938 143.313 406.362 141.312 402.048 140.037C401.212 139.789 400.362 139.593 399.502 139.447C398.763 139.339 398.044 139.122 397.369 138.803C394.802 137.48 397.637 135.177 401.621 135.074C402.245 135.052 402.869 135.089 403.486 135.184H432.387C432.387 135.184 443.328 138.255 443.857 153.581C444.387 168.908 443.857 214.744 443.857 214.744Z" fill="#F05454"/>
<path d="M413.278 214.888L406.259 218.733C406.259 218.733 394.816 216.43 395.435 214.744C396.054 213.057 408.041 211.433 408.041 211.433V143.464C407.897 143.306 406.142 141.504 402.048 140.037C400.523 139.502 398.959 139.09 397.368 138.803C394.802 137.48 397.637 135.177 401.621 135.074C405.013 135.533 411.695 139.235 412.128 141.346C412.562 143.457 413.278 214.888 413.278 214.888Z" fill="white"/>
<path d="M413.278 214.888L406.259 218.733C406.259 218.733 394.816 216.43 395.435 214.744C396.054 213.057 408.041 211.433 408.041 211.433V143.464C407.897 143.306 406.142 141.504 402.048 140.037C400.523 139.502 398.959 139.09 397.368 138.803C394.802 137.48 397.637 135.177 401.621 135.074C405.013 135.533 411.695 139.235 412.128 141.346C412.562 143.457 413.278 214.888 413.278 214.888Z" fill="url(#paint22_linear_70_10)"/>
<path d="M272.608 357.666C271.734 358.557 271.328 358.886 271.844 358.153C272.112 358.012 272.367 357.849 272.608 357.666Z" fill="url(#paint23_linear_70_10)"/>
</g>
<defs>
<linearGradient id="paint0_linear_70_10" x1="210.809" y1="353.094" x2="222.342" y2="353.094" gradientUnits="userSpaceOnUse">
<stop stop-color="#183866"/>
<stop offset="1" stop-color="#1A7FC1"/>
</linearGradient>
<linearGradient id="paint1_linear_70_10" x1="238.705" y1="354.547" x2="243.996" y2="354.547" gradientUnits="userSpaceOnUse">
<stop/>
<stop offset="0.99" stop-opacity="0"/>
</linearGradient>
<linearGradient id="paint2_linear_70_10" x1="10091.8" y1="1393.71" x2="10775.2" y2="2035.47" gradientUnits="userSpaceOnUse">
<stop/>
<stop offset="0.99" stop-opacity="0"/>
</linearGradient>
<linearGradient id="paint3_linear_70_10" x1="2352.45" y1="10482.6" x2="2040.19" y2="10474.6" gradientUnits="userSpaceOnUse">
<stop/>
<stop offset="0.99" stop-opacity="0"/>
</linearGradient>
<linearGradient id="paint4_linear_70_10" x1="30038.6" y1="2039.22" x2="25875.9" y2="-3100.44" gradientUnits="userSpaceOnUse">
<stop/>
<stop offset="0.99" stop-opacity="0"/>
</linearGradient>
<linearGradient id="paint5_linear_70_10" x1="1052.16" y1="500.526" x2="1043.6" y2="497.813" gradientUnits="userSpaceOnUse">
<stop/>
<stop offset="0.99" stop-opacity="0"/>
</linearGradient>
<linearGradient id="paint6_linear_70_10" x1="11233.1" y1="1600.95" x2="10253.7" y2="2143.89" gradientUnits="userSpaceOnUse">
<stop/>
<stop offset="0.99" stop-opacity="0"/>
</linearGradient>
<linearGradient id="paint7_linear_70_10" x1="278716" y1="26101.6" x2="-5763.84" y2="-3112.37" gradientUnits="userSpaceOnUse">
<stop/>
<stop offset="0.99" stop-opacity="0"/>
</linearGradient>
<linearGradient id="paint8_linear_70_10" x1="87089.1" y1="12342.1" x2="194393" y2="12342.1" gradientUnits="userSpaceOnUse">
<stop stop-color="#183866"/>
<stop offset="1" stop-color="#1A7FC1"/>
</linearGradient>
<linearGradient id="paint9_linear_70_10" x1="42465.6" y1="6221.45" x2="42705.1" y2="10181.5" gradientUnits="userSpaceOnUse">
<stop/>
<stop offset="0.99" stop-opacity="0"/>
</linearGradient>
<linearGradient id="paint10_linear_70_10" x1="35511.7" y1="7181.49" x2="40841.7" y2="14029.9" gradientUnits="userSpaceOnUse">
<stop/>
<stop offset="0.99" stop-opacity="0"/>
</linearGradient>
<linearGradient id="paint11_linear_70_10" x1="10042.6" y1="4146.64" x2="10021.8" y2="4467.9" gradientUnits="userSpaceOnUse">
<stop/>
<stop offset="0.99" stop-opacity="0"/>
</linearGradient>
<linearGradient id="paint12_linear_70_10" x1="9962.69" y1="1018.89" x2="6434.92" y2="755.99" gradientUnits="userSpaceOnUse">
<stop/>
<stop offset="0.99" stop-opacity="0"/>
</linearGradient>
<linearGradient id="paint13_linear_70_10" x1="13523.8" y1="1676.57" x2="9770.66" y2="1312.62" gradientUnits="userSpaceOnUse">
<stop stop-color="white"/>
<stop offset="0.99" stop-opacity="0"/>
</linearGradient>
<linearGradient id="paint14_linear_70_10" x1="6120.19" y1="-1191.34" x2="6056.17" y2="529.549" gradientUnits="userSpaceOnUse">
<stop/>
<stop offset="0.99" stop-opacity="0"/>
</linearGradient>
<linearGradient id="paint15_linear_70_10" x1="7506.87" y1="12710.2" x2="-15115.9" y2="45432.3" gradientUnits="userSpaceOnUse">
<stop stop-color="#E3C6C6"/>
<stop offset="0.99" stop-opacity="0"/>
</linearGradient>
<linearGradient id="paint16_linear_70_10" x1="247.654" y1="1659.11" x2="58.7868" y2="1720.57" gradientUnits="userSpaceOnUse">
<stop/>
<stop offset="0.99" stop-opacity="0"/>
</linearGradient>
<linearGradient id="paint17_linear_70_10" x1="8157.55" y1="9383.96" x2="28870.7" y2="34548.7" gradientUnits="userSpaceOnUse">
<stop stop-color="#FBC0C0"/>
<stop offset="0.99"/>
</linearGradient>
<linearGradient id="paint18_linear_70_10" x1="231.191" y1="81.5544" x2="272.979" y2="81.5544" gradientUnits="userSpaceOnUse">
<stop stop-color="#ECC4D7"/>
<stop offset="0.42" stop-color="#EFD4D1"/>
<stop offset="1" stop-color="#F2EAC9"/>
</linearGradient>
<linearGradient id="paint19_linear_70_10" x1="15957.6" y1="5405.93" x2="18154.3" y2="5405.93" gradientUnits="userSpaceOnUse">
<stop stop-color="#ECC4D7"/>
<stop offset="0.42" stop-color="#EFD4D1"/>
<stop offset="1" stop-color="#F2EAC9"/>
</linearGradient>
<linearGradient id="paint20_linear_70_10" x1="15380.8" y1="3639.51" x2="16774.8" y2="3639.51" gradientUnits="userSpaceOnUse">
<stop stop-color="#ECC4D7"/>
<stop offset="0.42" stop-color="#EFD4D1"/>
<stop offset="1" stop-color="#F2EAC9"/>
</linearGradient>
<linearGradient id="paint21_linear_70_10" x1="128010" y1="40813.5" x2="95240.1" y2="69737" gradientUnits="userSpaceOnUse">
<stop/>
<stop offset="0.99" stop-opacity="0"/>
</linearGradient>
<linearGradient id="paint22_linear_70_10" x1="13686.2" y1="20685" x2="8108.38" y2="21795.8" gradientUnits="userSpaceOnUse">
<stop stop-color="white"/>
<stop offset="0.99" stop-opacity="0"/>
</linearGradient>
<linearGradient id="paint23_linear_70_10" x1="720.071" y1="426.566" x2="718.444" y2="425.962" gradientUnits="userSpaceOnUse">
<stop/>
<stop offset="0.99" stop-opacity="0"/>
</linearGradient>
<clipPath id="clip0_70_10">
<rect width="500" height="410" fill="white"/>
</clipPath>
</defs>
</svg>
