<svg width="30" height="30" viewBox="0 0 30 30" fill="none" xmlns="http://www.w3.org/2000/svg">
<g clip-path="url(#clip0_76_49)">
<path d="M6.64863 18.1293L5.60438 22.0277L1.78764 22.1084C0.646992 19.9928 0 17.5722 0 15C0 12.5126 0.604922 10.167 1.67719 8.10159H1.67801L5.07598 8.72456L6.56449 12.1021C6.25295 13.0104 6.08314 13.9854 6.08314 15C6.08326 16.101 6.28271 17.156 6.64863 18.1293Z" fill="white"/>
<path d="M29.738 12.1978C29.9102 13.1052 30.0001 14.0423 30.0001 15C30.0001 16.0739 29.8872 17.1214 29.6721 18.1319C28.9419 21.5703 27.0339 24.5728 24.3908 26.6975L24.39 26.6967L20.11 26.4783L19.5043 22.697C21.2581 21.6684 22.6287 20.0588 23.3507 18.1319H15.3298V12.1978H23.4677H29.738Z" fill="white"/>
<path d="M24.39 26.6968L24.3909 26.6976C21.8203 28.7638 18.5549 30.0001 15.0002 30.0001C9.28784 30.0001 4.32138 26.8072 1.78784 22.1086L6.64884 18.1295C7.91558 21.5102 11.1768 23.9168 15.0002 23.9168C16.6436 23.9168 18.1832 23.4726 19.5043 22.697L24.39 26.6968Z" fill="white"/>
<path d="M24.5745 3.45328L19.7152 7.43156C18.3479 6.57691 16.7316 6.0832 15.0001 6.0832C11.0902 6.0832 7.76789 8.60021 6.56461 12.1022L1.67807 8.10164H1.67725C4.17369 3.28846 9.20279 0 15.0001 0C18.6396 0 21.9767 1.29645 24.5745 3.45328Z" fill="white"/>
</g>
<defs>
<clipPath id="clip0_76_49">
<rect width="30" height="30" fill="white"/>
</clipPath>
</defs>
</svg>
