<svg width="500" height="427" viewBox="0 0 500 427" fill="none" xmlns="http://www.w3.org/2000/svg">
<g clip-path="url(#clip0_82_4)">
<path opacity="0.18" d="M490.191 287.304C486.558 301.627 480.255 315.921 474.733 328.668C453.753 376.803 418.351 409.721 362.92 402.992C336.206 399.742 310.059 390.771 283.159 391.636C257.424 392.431 232.924 402.126 208.48 410.203C163.057 425.236 112.764 434.86 67.8373 418.309C22.9106 401.757 -12.023 350.84 3.96044 305.701C16.3951 270.469 55.2749 246.835 59.3204 209.701C64.6435 161.438 7.52335 119.805 19.5748 72.7061C24.6991 52.8759 41.1936 38.1132 58.6674 27.4671C98.8105 2.92415 148.166 -5.18112 194.285 3.16546C238.147 11.0436 274.642 47.9787 318.845 49.682C347.348 50.7609 374.773 34.5645 403.163 37.2331C438.281 40.6257 464.03 71.7267 480.454 102.97C485.741 112.723 490.163 122.921 493.669 133.446C500.493 154.895 501.878 177.704 497.701 199.821C493.442 222.533 493.953 243.825 493.3 267.119C493.013 273.942 491.971 280.711 490.191 287.304Z" fill="white"/>
<path d="M185.981 379.273C184.249 379.812 182.305 380.692 181.865 382.41C187.316 385.873 194.058 386.668 200.503 386.498C206.947 386.328 213.377 385.192 219.836 385.149C228.353 385.149 237.949 386.668 244.791 381.501C241.752 379.577 238.263 378.481 234.67 378.322C235.933 370.373 191.035 377.697 185.981 379.273Z" fill="url(#paint0_linear_82_4)"/>
<path d="M76.5528 284.579C74.2533 284.579 71.0736 285.743 71.6414 287.971L176.584 296.488C188.934 297.496 201.297 298.49 213.704 298.49C232.441 298.49 251.093 296.19 269.788 295.111C287.389 294.103 305.019 294.174 322.635 294.26C338.945 294.345 359.002 297.283 374.844 293.01C377.228 292.372 379.627 290.455 379.471 288C379.4 286.864 378.804 285.686 379.244 284.635C379.5 284.12 379.905 283.694 380.408 283.415C383.659 281.413 387.804 282.975 391.551 283.798C397.516 285.095 403.745 284.303 409.195 281.555C410.217 281.13 411.087 280.408 411.694 279.483C411.983 279.015 412.087 278.457 411.988 277.917C411.888 277.376 411.591 276.892 411.154 276.559C410.713 276.34 410.227 276.229 409.735 276.232L377.612 273.734C376.426 273.55 375.213 273.657 374.077 274.046C372.814 274.6 372.885 276.076 371.863 276.686C370.202 277.666 366.426 277.141 364.524 277.254C359.655 277.524 354.786 277.794 349.903 278.035C340.185 278.499 330.447 278.891 320.69 279.213C300.818 279.88 280.845 280.278 260.93 280.633C221.539 281.271 182.134 281.612 142.758 283.131C120.685 283.954 98.6259 284.096 76.5528 284.579Z" fill="url(#paint1_linear_82_4)"/>
<path d="M157.251 65.8784C155.403 65.2367 153.386 65.2872 151.573 66.0203C150.403 66.4375 149.334 67.0952 148.435 67.9509C147.535 68.8066 146.824 69.8414 146.349 70.9885C146.34 71.1377 146.299 71.2831 146.229 71.415C146.159 71.547 146.061 71.6626 145.943 71.7539C145.825 71.8453 145.688 71.9104 145.543 71.9448C145.398 71.9793 145.247 71.9823 145.1 71.9538C143.034 71.949 141.041 72.7131 139.507 74.0972C137.719 75.7296 137.719 77.7311 137.477 80.0732C137.184 79.926 136.861 79.8492 136.533 79.8492C136.206 79.8492 135.882 79.926 135.589 80.0732C135.005 80.3615 134.472 80.7453 134.014 81.2088C133.231 81.8376 132.604 82.6393 132.183 83.551C131.615 85.0982 132.254 86.8016 132.282 88.4482C132.292 88.522 132.286 88.5971 132.264 88.6682C132.242 88.7393 132.204 88.8047 132.154 88.8599C132.096 88.8849 132.033 88.8978 131.97 88.8978C131.906 88.8978 131.843 88.8849 131.785 88.8599C131.345 88.7747 130.948 88.5476 130.508 88.505C129.993 88.5098 129.496 88.6939 129.102 89.0255C128.708 89.3571 128.442 89.8155 128.35 90.3219C128.183 91.3387 128.236 92.3795 128.506 93.3738C128.77 94.3688 128.74 95.4188 128.421 96.3974C128.081 97.0401 127.634 97.6208 127.101 98.1149C125.561 99.5497 124.56 101.468 124.262 103.552C124.178 104.558 124.45 105.563 125.028 106.391C125.326 106.799 125.724 107.124 126.184 107.333C126.644 107.542 127.151 107.628 127.654 107.583C130.011 107.271 130.834 103.963 133.077 103.182C135.32 102.402 137.832 99.7615 139.28 97.6749C140.444 95.9999 141.58 94.0552 143.539 93.4164C144.183 93.2794 144.805 93.0499 145.384 92.7351C145.769 92.4344 146.088 92.0575 146.321 91.6279C147.132 90.4319 147.759 89.1208 148.18 87.7385C148.89 85.0131 148.18 81.947 149.5 79.4345C149.877 78.7137 150.402 78.0807 151.041 77.5768C151.679 77.0729 152.417 76.7095 153.205 76.5103C153.872 76.34 154.625 76.2974 155.235 76.1129C156.007 75.8901 156.736 75.5399 157.393 75.0767C158.256 74.5802 158.999 73.899 159.568 73.0818C160.138 72.2646 160.519 71.3317 160.686 70.3498C160.814 68.3483 159.011 66.5597 157.251 65.8784Z" fill="#7A7A7A"/>
<path d="M163.057 69.2425C163.766 69.5163 164.354 70.034 164.716 70.7027C165.078 71.3714 165.189 72.1472 165.03 72.8906C164.787 73.4917 164.425 74.0374 163.965 74.4946L161.396 77.3336L160.331 73.3874C160.221 72.647 159.854 71.9687 159.295 71.4711C158.93 71.262 158.516 71.1519 158.096 71.1519C157.675 71.1519 157.261 71.262 156.896 71.4711C156.144 71.8544 155.477 72.4506 154.809 72.8906C154.625 73.0042 154.369 73.1319 154.171 73.0184C153.972 72.9048 153.944 72.4932 154.043 72.2093C155.264 68.8309 159.934 67.894 163.057 69.2425Z" fill="#473F47"/>
<path d="M164.802 176.031C164.88 177.359 165.322 178.641 166.08 179.735C167.23 181.155 169.146 181.865 170.736 182.901C170.899 182.984 171.043 183.102 171.156 183.247C171.269 183.392 171.348 183.559 171.389 183.738C171.379 183.911 171.319 184.078 171.216 184.217C171.112 184.355 170.97 184.461 170.807 184.519C170.47 184.614 170.117 184.638 169.771 184.59C168.149 184.336 166.514 184.179 164.873 184.122C164.05 184.122 163.099 184.207 162.574 183.568C162.236 183.027 162.119 182.376 162.247 181.751C162.393 179.403 162.201 177.047 161.679 174.753C161.505 174.193 161.443 173.605 161.495 173.021C161.548 172.751 161.671 172.5 161.851 172.292C162.032 172.084 162.263 171.928 162.523 171.837C162.783 171.747 163.062 171.726 163.332 171.777C163.603 171.828 163.855 171.948 164.064 172.127C165.001 172.936 164.689 174.938 164.802 176.031Z" fill="#FCBDBA"/>
<path d="M138.542 184.817C138.349 186.133 138.516 187.477 139.025 188.707C139.862 190.396 141.608 191.404 142.957 192.738C143.103 192.85 143.221 192.993 143.302 193.158C143.384 193.323 143.426 193.505 143.425 193.689C143.383 193.856 143.292 194.007 143.162 194.121C143.033 194.235 142.872 194.307 142.701 194.328C142.355 194.363 142.006 194.32 141.679 194.2C140.137 193.637 138.563 193.163 136.966 192.78C136.157 192.639 135.206 192.497 134.823 191.787C134.59 191.194 134.59 190.535 134.823 189.942C135.439 187.666 135.726 185.314 135.675 182.958C135.617 182.375 135.675 181.786 135.845 181.226C135.952 180.972 136.123 180.751 136.342 180.584C136.56 180.417 136.819 180.311 137.092 180.275C137.364 180.239 137.642 180.275 137.896 180.38C138.151 180.484 138.373 180.654 138.542 180.871C139.351 181.822 138.641 183.724 138.542 184.817Z" fill="#FCBDBA"/>
<path d="M133.375 120.94C133.375 120.94 146.917 141.04 155.789 147.045C155.618 149.054 155.661 151.077 155.916 153.077C156.371 156.328 157.946 159.181 158.457 162.375L160.161 173.121C160.232 173.603 160.374 174.185 160.842 174.356C161.124 174.446 161.426 174.446 161.708 174.356L165.455 173.334C165.231 166.877 165.368 160.413 165.867 153.972C166.174 151.367 166.241 148.739 166.066 146.122C165.441 140.444 160.785 135.376 157.549 130.82C155.604 128.066 153.518 123.95 150.792 121.863C148.521 120.131 145.313 120.954 142.46 121.238C140.32 121.443 138.161 121.289 136.072 120.784C135.645 120.584 135.175 120.494 134.704 120.521C134.233 120.548 133.776 120.692 133.375 120.94Z" fill="#473F47"/>
<path d="M128.222 120.813C128.222 120.813 133.488 144.475 139.578 153.305C138.693 155.122 137.994 157.024 137.491 158.982C137.155 160.585 136.961 162.214 136.909 163.851L135.689 183.611C137.576 183.71 139.465 183.469 141.267 182.901L148.194 165.484C149.517 162.709 150.298 159.708 150.494 156.64C150.494 150.707 144.816 129.046 144.149 127.953C142.658 125.497 139.379 125.114 136.626 124.319C134.558 123.734 132.604 122.803 130.848 121.565C129.982 121.025 129.202 120.5 128.222 120.813Z" fill="#7A7A7A"/>
<path d="M176.839 102.388C179.725 103.719 182.928 104.211 186.08 103.807C187.005 103.552 187.974 103.504 188.919 103.665C188.508 104.247 188.11 105.085 188.692 105.581C188.87 105.698 189.076 105.766 189.288 105.78C190.054 105.879 190.832 105.796 191.559 105.539C191.903 105.368 192.283 105.286 192.667 105.298C193.005 105.382 193.296 105.596 193.477 105.894C193.658 106.191 193.713 106.549 193.632 106.887C193.431 107.563 192.986 108.14 192.383 108.506C191.408 109.151 190.279 109.526 189.111 109.591C187.944 109.655 186.78 109.408 185.74 108.875C185.143 108.548 184.59 108.137 183.979 107.81C182.805 107.275 181.564 106.902 180.289 106.703C176.557 105.93 172.889 104.877 169.316 103.552C168.775 103.423 168.265 103.185 167.819 102.853C167.372 102.521 166.998 102.102 166.718 101.621C165.995 99.8325 167.329 96.8374 169.458 98.0014C171.928 99.4351 174.157 101.28 176.839 102.388Z" fill="#FCBDBA"/>
<path d="M159.21 92.1957C163.425 94.9514 168.127 96.8784 173.064 97.8736C173.277 97.8736 173.532 98.0156 173.589 98.2285C173.612 98.3735 173.576 98.5215 173.49 98.6402C172.482 100.67 171.207 102.555 169.7 104.247C169.538 104.462 169.329 104.637 169.089 104.758C168.853 104.827 168.606 104.848 168.362 104.818C168.118 104.789 167.883 104.711 167.67 104.588C164.481 103.31 161.358 101.891 158.301 100.329C155.581 99.1362 153.157 97.3574 151.204 95.1198C150.229 93.9587 149.652 92.5161 149.557 91.0033C149.557 89.3283 151.09 86.319 153.205 87.1423C154.156 87.5114 154.994 88.6895 155.718 89.3567C156.822 90.3737 157.989 91.3218 159.21 92.1957Z" fill="#F05454"/>
<path d="M159.21 92.1957C163.425 94.9514 168.127 96.8784 173.064 97.8736C173.277 97.8736 173.532 98.0156 173.589 98.2285C173.612 98.3735 173.576 98.5215 173.49 98.6402C172.482 100.67 171.207 102.555 169.7 104.247C169.538 104.462 169.329 104.637 169.089 104.758C168.853 104.827 168.606 104.848 168.362 104.818C168.118 104.789 167.883 104.711 167.67 104.588C164.481 103.31 161.358 101.891 158.301 100.329C155.581 99.1362 153.157 97.3574 151.204 95.1198C150.229 93.9587 149.652 92.5161 149.557 91.0033C149.557 89.3283 151.09 86.319 153.205 87.1423C154.156 87.5114 154.994 88.6895 155.718 89.3567C156.822 90.3737 157.989 91.3218 159.21 92.1957Z" fill="url(#paint2_linear_82_4)"/>
<path d="M218.629 83.7355C219.388 84.6919 219.84 85.8545 219.928 87.0719C220.016 88.2892 219.736 89.5048 219.123 90.5604C218.51 91.6159 217.593 92.4624 216.493 92.9895C215.392 93.5167 214.158 93.7001 212.951 93.5158C212.951 93.5158 206.237 93.6719 207.756 100.003L220.531 116.27L204.264 129.046C197.933 130.564 197.777 123.85 197.777 123.85C197.951 122.645 197.759 121.415 197.227 120.32C196.695 119.225 195.846 118.314 194.791 117.706C193.737 117.098 192.524 116.82 191.309 116.908C190.095 116.996 188.934 117.446 187.978 118.2C187.022 118.955 186.314 119.978 185.946 121.139C185.577 122.299 185.565 123.544 185.911 124.711C186.257 125.879 186.945 126.916 187.886 127.688C188.827 128.461 189.978 128.934 191.191 129.046C196.968 130.948 194.725 136.569 194.725 136.569L178.458 149.344L145.398 107.37L161.509 94.5946C167.84 93.0758 167.996 99.7899 167.996 99.7899C167.845 100.785 167.944 101.803 168.284 102.75C168.624 103.698 169.194 104.546 169.943 105.219C170.692 105.892 171.597 106.368 172.575 106.605C173.554 106.841 174.576 106.831 175.549 106.575C176.523 106.319 177.418 105.824 178.153 105.137C178.888 104.449 179.441 103.589 179.762 102.635C180.083 101.681 180.161 100.662 179.991 99.6697C179.82 98.6775 179.405 97.7432 178.784 96.9509C178.266 96.3 177.622 95.7607 176.89 95.3655C176.158 94.9703 175.354 94.7274 174.526 94.6514C168.805 92.7635 171.048 87.0855 171.048 87.0855L187.472 74.1256L200.247 90.4071C200.247 90.4071 205.925 92.6499 207.77 86.8726C207.892 85.6628 208.373 84.5172 209.152 83.5833C209.93 82.6493 210.971 81.9699 212.139 81.6324C213.307 81.295 214.55 81.3149 215.706 81.6898C216.863 82.0646 217.881 82.7771 218.629 83.7355Z" fill="#8E3333"/>
<path d="M218.629 83.7355C219.388 84.6919 219.84 85.8545 219.928 87.0719C220.016 88.2892 219.736 89.5048 219.123 90.5604C218.51 91.6159 217.593 92.4624 216.493 92.9895C215.392 93.5167 214.158 93.7001 212.951 93.5158C212.951 93.5158 206.237 93.6719 207.756 100.003L220.531 116.27L204.264 129.046C197.933 130.564 197.777 123.85 197.777 123.85C197.951 122.645 197.759 121.415 197.227 120.32C196.695 119.225 195.846 118.314 194.791 117.706C193.737 117.098 192.524 116.82 191.309 116.908C190.095 116.996 188.934 117.446 187.978 118.2C187.022 118.955 186.314 119.978 185.946 121.139C185.577 122.299 185.565 123.544 185.911 124.711C186.257 125.879 186.945 126.916 187.886 127.688C188.827 128.461 189.978 128.934 191.191 129.046C196.968 130.948 194.725 136.569 194.725 136.569L178.458 149.344L145.398 107.37L161.509 94.5946C167.84 93.0758 167.996 99.7899 167.996 99.7899C167.845 100.785 167.944 101.803 168.284 102.75C168.624 103.698 169.194 104.546 169.943 105.219C170.692 105.892 171.597 106.368 172.575 106.605C173.554 106.841 174.576 106.831 175.549 106.575C176.523 106.319 177.418 105.824 178.153 105.137C178.888 104.449 179.441 103.589 179.762 102.635C180.083 101.681 180.161 100.662 179.991 99.6697C179.82 98.6775 179.405 97.7432 178.784 96.9509C178.266 96.3 177.622 95.7607 176.89 95.3655C176.158 94.9703 175.354 94.7274 174.526 94.6514C168.805 92.7635 171.048 87.0855 171.048 87.0855L187.472 74.1256L200.247 90.4071C200.247 90.4071 205.925 92.6499 207.77 86.8726C207.892 85.6628 208.373 84.5172 209.152 83.5833C209.93 82.6493 210.971 81.9699 212.139 81.6324C213.307 81.295 214.55 81.3149 215.706 81.6898C216.863 82.0646 217.881 82.7771 218.629 83.7355Z" fill="url(#paint3_linear_82_4)"/>
<path d="M164.873 120.756C168.351 123.595 171.971 126.647 176.229 127.385C177.049 127.568 177.896 127.586 178.723 127.437C179.549 127.289 180.337 126.976 181.041 126.519C181.284 126.374 181.482 126.165 181.612 125.914C181.743 125.663 181.801 125.381 181.779 125.099C181.623 124.404 180.772 124.163 180.076 124.035C176.823 123.59 173.699 122.468 170.906 120.742C169.87 120.008 168.888 119.202 167.968 118.328L161.055 112.168C160.97 112.065 160.864 111.983 160.744 111.926C160.624 111.87 160.492 111.841 160.359 111.841C160.075 111.841 159.905 112.168 159.777 112.423C159.349 113.295 159.025 114.215 158.812 115.163C158.599 116.199 158.812 116.341 159.706 116.937C161.495 118.149 163.217 119.421 164.873 120.756Z" fill="url(#paint4_linear_82_4)"/>
<path d="M168.081 115.56C170.487 117.665 173.44 119.043 176.598 119.535C177.538 119.548 178.463 119.766 179.309 120.174C178.727 120.614 178.103 121.366 178.543 121.948C178.684 122.11 178.865 122.232 179.068 122.303C179.776 122.605 180.543 122.741 181.311 122.7C181.691 122.643 182.079 122.672 182.446 122.786C182.595 122.872 182.725 122.987 182.829 123.124C182.932 123.261 183.008 123.417 183.052 123.583C183.095 123.749 183.106 123.922 183.082 124.092C183.059 124.262 183.002 124.426 182.915 124.574C182.544 125.175 181.953 125.608 181.268 125.781C180.153 126.132 178.965 126.178 177.826 125.913C176.688 125.649 175.641 125.083 174.795 124.276C174.299 123.793 173.887 123.24 173.376 122.771C172.399 121.929 171.31 121.226 170.14 120.685C166.773 118.896 163.546 116.856 160.487 114.581C160.004 114.307 159.582 113.938 159.245 113.497C158.908 113.055 158.665 112.55 158.528 112.012C158.329 110.081 160.444 107.569 162.176 109.3C164.192 111.345 165.824 113.687 168.081 115.56Z" fill="#FCBDBA"/>
<path d="M128.222 123.85C128.477 124.155 128.797 124.398 129.159 124.56C130.588 125.375 132.072 126.086 133.602 126.689C137.578 128.112 141.929 128.077 145.881 126.59C147.462 126.021 148.946 125.212 150.281 124.191C150.788 123.846 151.214 123.396 151.53 122.871C151.907 122.015 152.026 121.068 151.871 120.145C151.516 115.362 150.991 110.422 151.871 105.78C152.154 104.186 152.631 102.632 153.291 101.153C154.44 99.1345 155.391 97.0095 156.13 94.8076C156.383 93.4544 156.337 92.0623 155.997 90.7285C155.656 89.3947 155.028 88.1514 154.157 87.0856C152.311 84.7292 148.933 82.6426 145.952 83.7072C142.509 85.0047 139.522 87.2851 137.364 90.2652C135.011 93.6025 133.146 97.2592 131.828 101.124C131.26 102.643 130.707 104.162 130.267 105.723C129.327 109.501 128.719 113.353 128.45 117.235C128.293 118.854 128.152 120.472 127.981 122.09C127.847 122.687 127.933 123.312 128.222 123.85Z" fill="#F05454"/>
<path d="M145.881 126.59C147.462 126.021 148.946 125.212 150.281 124.191C150.788 123.846 151.214 123.396 151.53 122.871C151.907 122.015 152.025 121.068 151.871 120.145C151.516 115.362 150.991 110.422 151.871 105.78C151.303 105.212 150.664 104.701 150.04 104.19C148.62 103.026 146.576 100.727 144.518 100.883C145.015 103.055 145.412 105.269 145.71 107.484C146.009 109.698 145.895 111.998 146.25 114.184C146.721 118.051 146.63 121.967 145.98 125.809C145.92 126.065 145.886 126.327 145.881 126.59Z" fill="url(#paint5_linear_82_4)"/>
<path d="M163.156 108.108C163.267 108.165 163.365 108.243 163.446 108.338C163.526 108.433 163.587 108.543 163.624 108.662C163.628 108.898 163.542 109.126 163.383 109.3C162.093 111.121 160.475 112.685 158.613 113.914C158.434 114.057 158.217 114.145 157.989 114.169C157.727 114.141 157.482 114.026 157.293 113.843C154.454 111.671 151.615 109.584 148.847 107.313C147.057 106.043 145.477 104.501 144.163 102.742C143.198 101.155 142.462 99.4397 141.977 97.6465C140.288 92.3234 145.398 90.0097 148.819 93.9133C153.333 99.0802 157.449 104.119 163.156 108.108Z" fill="#F05454"/>
<path d="M162.46 183.767C162.386 183.591 162.36 183.398 162.385 183.208C162.41 183.019 162.485 182.839 162.602 182.688C162.914 182.39 163.425 182.532 163.823 182.688C164.701 183.114 165.618 183.451 166.563 183.696C167.514 183.946 168.523 183.84 169.402 183.398C169.884 183.114 170.353 182.688 170.906 182.731C171.185 182.772 171.451 182.874 171.687 183.029C172.539 183.47 173.453 183.782 174.398 183.951C174.796 183.985 175.18 184.112 175.519 184.32C175.622 184.393 175.697 184.498 175.732 184.618C175.732 184.902 175.463 185.115 175.193 185.215C172.24 186.364 168.933 185.939 165.782 185.598C165.429 185.548 165.07 185.548 164.717 185.598C164.192 185.697 163.553 185.967 163.113 185.598C162.736 185.057 162.511 184.424 162.46 183.767Z" fill="#473F47"/>
<path d="M134.425 191.858C134.379 191.674 134.38 191.482 134.427 191.298C134.474 191.115 134.566 190.946 134.695 190.807C135.05 190.552 135.533 190.807 135.916 190.964C136.741 191.488 137.61 191.939 138.514 192.312C139.429 192.652 140.437 192.652 141.353 192.312C141.864 192.099 142.375 191.73 142.928 191.844C143.197 191.922 143.447 192.052 143.666 192.227C144.448 192.799 145.315 193.245 146.236 193.547C146.631 193.629 147.001 193.804 147.314 194.058C147.36 194.097 147.398 194.144 147.425 194.198C147.452 194.252 147.467 194.31 147.471 194.37C147.471 194.654 147.158 194.825 146.874 194.896C143.794 195.676 140.572 194.896 137.492 194.115C137.145 194.014 136.787 193.962 136.427 193.959C135.902 193.959 135.235 194.186 134.837 193.703C134.55 193.131 134.408 192.497 134.425 191.858Z" fill="#473F47"/>
<path d="M160.714 78.9802C160.473 79.7609 160.232 80.5417 160.033 81.3366C159.808 82.5222 159.495 83.6894 159.096 84.8285C158.894 85.3966 158.571 85.9141 158.149 86.3454C157.728 86.7767 157.218 87.1115 156.655 87.3268C156.08 87.5104 155.457 87.4653 154.915 87.2008C154.373 86.9364 153.954 86.4731 153.745 85.9073C153.063 86.0635 152.822 86.901 152.836 87.6107C152.95 88.3051 152.82 89.0175 152.467 89.6264C151.828 90.3787 150.579 90.0664 149.742 89.527C148.474 88.6727 147.488 87.4612 146.909 86.046C146.331 84.6309 146.185 83.0758 146.491 81.5779C147.187 78.4124 147.158 74.6224 148.961 71.8828C149.609 70.9583 150.434 70.1718 151.388 69.569C152.225 68.9566 153.2 68.5615 154.227 68.4192C154.946 68.3771 155.668 68.4344 156.371 68.5896C159.38 69.1006 161.935 69.5406 161.949 72.99C161.857 75.0395 161.44 77.0613 160.714 78.9802Z" fill="#FCBDBA"/>
<path d="M157.009 73.4017C156.541 73.4017 156.002 73.2881 155.59 73.572C155.178 73.8559 155.15 74.4947 154.894 74.9915C154.398 75.9142 153.134 76.0419 152.183 76.5245C151.607 76.8328 151.127 77.2942 150.797 77.8577C150.466 78.4212 150.298 79.0651 150.309 79.7184C150.328 79.3004 150.224 78.8862 150.011 78.526C149.955 78.4407 149.881 78.3678 149.795 78.312C149.709 78.2561 149.613 78.2183 149.512 78.2011C149.411 78.1838 149.307 78.1873 149.208 78.2115C149.108 78.2356 149.014 78.2799 148.933 78.3415C148.805 78.4932 148.73 78.6827 148.72 78.8809C148.681 79.2863 148.747 79.6948 148.911 80.0675C149.075 80.4402 149.332 80.7647 149.657 81.0101C149.362 81.6188 148.899 82.1306 148.323 82.4852C147.747 82.8398 147.082 83.0224 146.406 83.0116C145.979 83.0218 145.561 82.8811 145.228 82.6141C145.018 82.3982 144.862 82.1355 144.773 81.8476C143.964 79.5764 145.199 77.1491 145.497 74.7502C145.526 73.9031 145.664 73.0633 145.909 72.2519C146.172 71.6787 146.532 71.1553 146.974 70.7046C148.299 69.1134 150.053 67.9359 152.027 67.3121C153.929 66.7869 157.705 67.0566 159.195 68.5612C159.534 68.9918 159.747 69.5068 159.813 70.0504C159.879 70.5939 159.795 71.1451 159.57 71.6441C159.344 72.1431 158.987 72.5708 158.535 72.8806C158.084 73.1905 157.556 73.3707 157.009 73.4017Z" fill="#7A7A7A"/>
<path d="M156.172 288.894V262.335C159.664 254.755 166.548 259.922 166.548 259.922C167.623 261.049 169.011 261.827 170.532 262.158C172.053 262.488 173.639 262.356 175.084 261.777C176.529 261.198 177.768 260.199 178.641 258.91C179.513 257.62 179.979 256.099 179.979 254.542C179.979 252.986 179.513 251.464 178.641 250.175C177.768 248.886 176.529 247.887 175.084 247.308C173.639 246.729 172.053 246.597 170.532 246.927C169.011 247.258 167.623 248.036 166.548 249.163C160.047 253.421 156.172 246.749 156.172 246.749V220.177H182.73C182.73 220.177 189.459 216.301 185.144 209.8C184.017 208.725 183.239 207.338 182.908 205.817C182.578 204.295 182.71 202.71 183.289 201.264C183.868 199.819 184.867 198.58 186.156 197.708C187.445 196.835 188.967 196.369 190.523 196.369C192.08 196.369 193.601 196.835 194.891 197.708C196.18 198.58 197.179 199.819 197.758 201.264C198.337 202.71 198.469 204.295 198.139 205.817C197.808 207.338 197.03 208.725 195.903 209.8C195.903 209.8 190.736 216.685 198.316 220.177H224.875V288.894H156.172Z" fill="url(#paint6_linear_82_4)"/>
<path d="M105.283 287.474H100.485L149.6 157.79C149.765 157.371 150.052 157.012 150.424 156.759C150.796 156.506 151.236 156.371 151.686 156.371C152.05 156.37 152.408 156.458 152.73 156.626C153.052 156.795 153.328 157.039 153.535 157.338C153.741 157.637 153.872 157.981 153.916 158.342C153.96 158.703 153.916 159.069 153.787 159.408L105.283 287.474Z" fill="#F05454"/>
<path d="M134.056 287.474H129.258L178.912 156.342H183.71L134.056 287.474Z" fill="#F05454"/>
<path d="M171.162 176.825H145.781L147.059 173.447H172.439L171.162 176.825Z" fill="#F05454"/>
<path d="M163.355 197.422H137.974L139.266 194.044H164.646L163.355 197.422Z" fill="#F05454"/>
<path d="M155.562 218.019H130.181L131.459 214.626H156.839L155.562 218.019Z" fill="#F05454"/>
<path d="M147.769 238.602H122.388L123.666 235.223H149.046L147.769 238.602Z" fill="#F05454"/>
<path d="M139.961 259.198H114.581L115.873 255.82H141.239L139.961 259.198Z" fill="#F05454"/>
<path d="M147.186 176.825L140.657 194.044H164.689L163.411 197.422H139.422L132.906 214.626H156.882L155.604 218.005H131.586L125.071 235.223H149.074L147.797 238.602H123.793L117.264 255.82H141.253L139.961 259.198H115.986L105.283 287.474H100.485L149.6 157.79C149.813 157.345 150.167 156.983 150.607 156.76C151.047 156.536 151.549 156.464 152.034 156.555C152.519 156.645 152.96 156.893 153.29 157.26C153.62 157.627 153.82 158.093 153.858 158.585C153.858 158.856 153.81 159.125 153.716 159.38L148.393 173.447H172.368L171.091 176.825H147.186Z" fill="url(#paint7_linear_82_4)"/>
<path d="M134.056 287.474H129.258L178.912 156.342H183.71L134.056 287.474Z" fill="url(#paint8_linear_82_4)"/>
<path d="M372.09 175.349C371.381 175.949 370.531 176.359 369.62 176.542C368.784 176.577 367.95 176.426 367.179 176.102L355.369 172.17C354.476 172.865 353.881 173.872 353.701 174.989C353.522 176.106 353.773 177.249 354.403 178.188C355.561 179.456 357.067 180.355 358.733 180.772L366.838 183.682C368.709 184.556 370.75 185.003 372.815 184.99C374.88 184.978 376.916 184.507 378.776 183.611C381.189 182.802 383.843 181.794 385.007 179.523C386.171 177.251 385.32 174.242 385.66 171.588C386.109 169.902 386.426 168.184 386.611 166.449C386.611 164.959 385.391 162.716 383.616 163.028C382.083 163.298 381.061 165.966 380.252 167.088C377.971 170.244 375.218 173.03 372.09 175.349Z" fill="white"/>
<path d="M353.892 171.502C353.769 171.183 353.581 170.893 353.339 170.651C353.219 170.529 353.067 170.445 352.9 170.41C352.734 170.375 352.56 170.389 352.402 170.452C352.247 170.547 352.122 170.685 352.042 170.848C351.961 171.011 351.929 171.194 351.948 171.375C351.959 171.439 351.957 171.504 351.943 171.568C351.928 171.631 351.901 171.691 351.862 171.744C351.777 171.829 351.621 171.744 351.493 171.744C350.159 171.488 348.796 171.289 347.434 171.148C347.287 171.118 347.136 171.129 346.996 171.179C346.855 171.229 346.731 171.317 346.636 171.432C346.542 171.547 346.48 171.686 346.458 171.833C346.436 171.98 346.454 172.131 346.511 172.269C346.659 172.721 346.885 173.144 347.178 173.518C347.874 174.654 348.129 176.144 349.236 176.882C349.913 177.278 350.701 177.443 351.479 177.351C352.26 177.351 353.026 177.166 353.807 177.209C354.323 177.319 354.861 177.259 355.34 177.038C355.519 176.905 355.661 176.728 355.753 176.524C355.845 176.321 355.883 176.097 355.865 175.874C355.783 175.173 355.535 174.502 355.142 173.916C354.701 173.149 354.29 172.326 353.892 171.502Z" fill="#FDB9A9"/>
<path d="M386.824 260.405C382.31 259.383 383.19 265.785 381.998 268.169C381.243 269.394 380.283 270.479 379.159 271.377C378.052 272.299 377.329 273.599 377.129 275.026C377.103 275.291 377.157 275.558 377.285 275.792C377.515 276.073 377.837 276.264 378.194 276.332C380.775 277.085 383.547 276.81 385.93 275.565C387.046 275.039 387.973 274.181 388.584 273.109C389.079 271.954 389.312 270.703 389.266 269.447C389.408 266.778 390.6 261.242 386.824 260.405Z" fill="#FDB9A9"/>
<path d="M382.822 273.606C382.822 273.606 369.961 274.16 375.412 278.191C380.863 282.222 388.996 277.212 389.791 276.289C390.586 275.366 389.933 273.791 389.933 273.791L382.822 273.606Z" fill="#F05454"/>
<path d="M389.223 275.38C388.088 276.8 382.041 278.659 379.358 278.461C376.675 278.262 374.276 277.041 374.546 275.295C374.815 273.549 379.528 269.532 380.422 269.546C381.317 269.56 382.012 271.619 383.801 272.045C384.6 272.177 385.42 272.103 386.182 271.83C386.945 271.557 387.625 271.093 388.159 270.483C388.318 270.27 388.545 270.116 388.802 270.047C389.059 269.977 389.333 269.996 389.578 270.1C389.952 270.943 390.115 271.864 390.053 272.784C389.992 273.704 389.707 274.595 389.223 275.38Z" fill="white"/>
<path d="M402.34 262.932C397.826 261.881 398.706 268.297 397.513 270.668C396.759 271.897 395.799 272.987 394.674 273.89C393.569 274.806 392.845 276.102 392.645 277.524C392.621 277.794 392.675 278.065 392.801 278.305C393.035 278.581 393.354 278.771 393.709 278.844C396.291 279.592 399.061 279.317 401.445 278.077C402.559 277.541 403.485 276.68 404.1 275.608C404.592 274.456 404.825 273.211 404.781 271.96C404.923 269.262 406.115 263.741 402.34 262.932Z" fill="#FDB9A9"/>
<path d="M398.336 276.076C398.336 276.076 385.476 276.615 390.926 280.675C396.377 284.735 404.511 279.681 405.306 278.759C406.101 277.836 405.448 276.261 405.448 276.261L398.336 276.076Z" fill="#F05454"/>
<path d="M404.738 277.822C403.603 279.241 397.556 281.115 394.873 280.916C392.19 280.718 389.791 279.497 390.061 277.751C390.331 276.005 395.043 271.988 395.937 272.073C396.832 272.158 397.527 274.146 399.316 274.557C400.114 274.693 400.933 274.622 401.696 274.351C402.459 274.08 403.14 273.618 403.674 273.01C403.832 272.795 404.058 272.639 404.316 272.57C404.574 272.5 404.848 272.52 405.093 272.627C405.453 273.458 405.608 274.364 405.546 275.267C405.485 276.171 405.208 277.047 404.738 277.822Z" fill="white"/>
<path d="M390.686 204.548L396.733 268.198L405.448 267.119C408.898 251.59 408.046 205.13 408.046 205.13L390.686 204.548Z" fill="#473F47"/>
<path d="M396.732 202.83L390.685 266.466L381.941 265.387C376.959 225.131 381.075 200.091 381.075 200.091L396.732 202.83Z" fill="#7A7A7A"/>
<path d="M381.87 179.821C381.757 178.657 381.444 177.493 381.331 176.3C381.047 173.902 381.09 171.476 381.458 169.089C381.869 166.543 382.639 164.067 383.744 161.736C384.737 159.721 386.583 158.897 388.598 157.847C390.313 156.925 392.17 156.297 394.092 155.987C395.444 155.864 396.807 155.94 398.137 156.214C402.254 156.995 407.662 159.053 410.473 162.361C412.588 164.788 412.829 168.28 412.9 171.502C412.985 175.945 412.9 180.388 412.616 184.831C412.616 185.47 412.545 186.109 412.488 186.762C412.259 191.705 411.512 196.61 410.26 201.397C410.025 202.892 409.215 204.237 408.003 205.144C404.781 207.018 399.869 205.982 396.391 205.499C391.778 204.846 387.051 204.165 382.963 201.922C382.115 201.558 381.428 200.897 381.033 200.062C380.829 199.012 380.963 197.924 381.416 196.954C382.835 192.411 381.728 187.628 381.728 182.986C381.728 182.149 381.828 181.297 381.828 180.445C381.87 180.246 381.87 180.033 381.87 179.821Z" fill="white"/>
<path d="M396.349 188.039C397.443 188.72 398.65 189.201 399.912 189.459C403.674 190.552 407.535 191.134 411.268 192.298C411.522 192.347 411.757 192.465 411.949 192.639C412.102 192.874 412.172 193.154 412.148 193.433C412.166 194.527 412.002 195.615 411.665 196.656C411.556 197.175 411.257 197.635 410.828 197.947C410.282 198.146 409.684 198.146 409.139 197.947L395.072 194.967C394.065 194.709 393.03 194.585 391.991 194.597C390.761 194.741 389.554 195.041 388.4 195.492C386.243 196.183 384.022 196.658 381.771 196.911C381.891 194.226 382.218 191.554 382.75 188.919C382.957 188.141 383.252 187.388 383.631 186.677C384.084 185.974 384.618 185.326 385.22 184.746C387.492 182.376 389.067 179.409 391.367 177.038C392.573 175.789 394.078 174.994 395.143 173.66C395.568 173.121 399.259 168.479 398.904 167.982C399.614 168.862 401.374 167.982 402.013 168.891C402.41 169.458 402.013 170.225 401.644 170.807C398.924 175.361 397.026 180.358 396.037 185.57C395.753 186.776 395.327 187.202 396.349 188.039Z" fill="url(#paint9_linear_82_4)"/>
<path d="M384.88 129.769C386.185 130.608 387.21 131.817 387.824 133.241C388.438 134.666 388.612 136.241 388.326 137.766C388.039 139.29 387.304 140.694 386.215 141.799C385.125 142.903 383.731 143.657 382.211 143.964C382.211 143.964 374.148 147.002 378.676 154.014L401.076 168.28L386.881 190.68C379.869 195.208 376.831 187.145 376.831 187.145C376.526 185.623 375.772 184.227 374.667 183.137C373.562 182.046 372.156 181.312 370.629 181.027C369.103 180.743 367.527 180.921 366.103 181.54C364.679 182.159 363.473 183.19 362.64 184.5C361.807 185.81 361.385 187.339 361.428 188.891C361.472 190.443 361.978 191.947 362.883 193.208C363.788 194.47 365.05 195.431 366.506 195.97C367.962 196.509 369.546 196.599 371.054 196.23C378.861 196.074 378.52 203.838 378.52 203.838L364.325 226.238L306.354 189.331L320.477 167.13C327.49 162.616 330.527 170.665 330.527 170.665C330.828 172.193 331.58 173.596 332.685 174.692C333.791 175.789 335.199 176.529 336.729 176.818C338.26 177.106 339.841 176.93 341.27 176.311C342.699 175.693 343.91 174.66 344.747 173.346C345.583 172.033 346.007 170.499 345.964 168.943C345.92 167.386 345.411 165.878 344.503 164.613C343.594 163.349 342.328 162.385 340.867 161.847C339.405 161.309 337.816 161.221 336.305 161.594C328.497 161.751 328.852 153.986 328.852 153.986L343.246 131.359L365.66 145.639C365.66 145.639 373.424 145.98 373.268 138.173C373.02 137.147 372.98 136.083 373.151 135.042C373.322 134.001 373.699 133.004 374.262 132.112C375.38 130.418 377.114 129.226 379.096 128.788C381.078 128.351 383.152 128.703 384.88 129.769Z" fill="#F05454"/>
<path d="M419.444 175.661C420.026 176.675 420.501 177.745 420.864 178.855C421.322 180.802 421.371 182.823 421.006 184.789C420.834 186.716 420.142 188.561 419.004 190.126C416.605 192.965 412.319 193.235 408.599 192.88C404.378 192.49 400.209 191.653 396.165 190.382C395.789 190.297 395.435 190.132 395.129 189.899C394.801 189.528 394.576 189.078 394.476 188.593C394.166 187.416 393.961 186.215 393.865 185.002C398.124 183.781 402.836 184.775 407.279 184.122C407.582 184.12 407.88 184.047 408.149 183.907C408.417 183.767 408.649 183.566 408.824 183.319C408.999 183.071 409.112 182.786 409.155 182.486C409.197 182.186 409.167 181.881 409.068 181.595C408.855 179.097 407.308 176.911 406.584 174.498C405.875 172.175 405.934 169.686 406.754 167.4C406.998 166.595 407.414 165.851 407.973 165.222C408.532 164.592 409.22 164.091 409.991 163.752C411.765 163.17 412.446 164.561 413.426 165.867C415.68 168.973 417.692 172.247 419.444 175.661Z" fill="white"/>
<path d="M392.091 183.412C391.924 183.276 391.722 183.187 391.509 183.156C391.346 183.173 391.19 183.234 391.057 183.331C390.925 183.428 390.821 183.559 390.757 183.71C390.632 184.016 390.49 184.315 390.331 184.604C390.117 184.841 389.854 185.027 389.559 185.147C389.264 185.267 388.945 185.32 388.627 185.3C387.99 185.236 387.348 185.236 386.711 185.3C386.475 185.348 386.255 185.455 386.072 185.612C385.898 185.783 385.775 185.999 385.717 186.237C385.609 186.719 385.623 187.22 385.756 187.696C385.89 188.172 386.14 188.607 386.484 188.962C387.177 189.665 388.029 190.19 388.968 190.495C389.926 190.918 390.988 191.047 392.02 190.864C392.586 190.7 393.126 190.456 393.624 190.14L395.696 188.99C395.869 188.909 396.024 188.793 396.151 188.65C396.605 188.082 395.98 186.379 395.569 185.811C394.533 184.846 393.361 184.038 392.091 183.412Z" fill="#FDB9A9"/>
<path d="M390.7 149.543C390.7 148.322 390.799 147.087 390.927 145.895C391.055 144.702 391.211 143.766 391.409 142.715C391.423 142.404 391.503 142.1 391.646 141.823C391.788 141.546 391.988 141.303 392.233 141.111C393.873 140.131 395.759 139.639 397.669 139.692C398.392 139.641 399.117 139.741 399.799 139.985C400.481 140.229 401.104 140.613 401.63 141.111C402.271 141.926 402.652 142.916 402.723 143.95C402.789 146.637 402.522 149.321 401.928 151.942C401.628 154 401.519 156.081 401.601 158.159C400.595 158.828 399.44 159.238 398.237 159.352C397.678 159.346 397.122 159.255 396.591 159.082C396.295 159.015 396.033 158.844 395.852 158.599C395.789 158.372 395.789 158.131 395.852 157.904C395.866 157.686 395.866 157.468 395.852 157.251C395.935 156.035 395.912 154.814 395.781 153.603C395.784 153.55 395.775 153.497 395.755 153.448C395.736 153.399 395.706 153.355 395.668 153.319C395.59 153.291 395.505 153.291 395.427 153.319H395.086C394.482 153.383 393.873 153.383 393.269 153.319C392.542 153.248 391.866 152.915 391.367 152.382C390.79 151.555 390.551 150.54 390.7 149.543Z" fill="#FDB9A9"/>
<path d="M393.226 141.764C392.8 141.764 392.417 141.991 392.048 141.764C391.662 141.444 391.323 141.071 391.04 140.657C390.362 139.757 390.029 138.644 390.103 137.52C390.13 137.011 390.297 136.52 390.586 136.1C390.901 135.719 391.306 135.421 391.764 135.235C392.645 134.801 393.624 134.61 394.603 134.681C396.021 134.865 397.344 135.497 398.379 136.484C398.597 136.711 398.864 136.886 399.16 136.995C399.431 137.052 399.712 137.052 399.983 136.995C401.779 136.843 403.565 137.393 404.965 138.528C405.76 139.223 406.385 140.118 407.208 140.728C408.032 141.338 408.841 141.565 409.266 142.346C409.444 142.709 409.516 143.115 409.474 143.517C409.431 143.918 409.275 144.3 409.025 144.617C408.497 145.24 407.77 145.661 406.967 145.81C407.055 146.041 407.096 146.287 407.088 146.534C407.08 146.781 407.023 147.024 406.92 147.249C406.817 147.473 406.67 147.675 406.488 147.843C406.306 148.01 406.092 148.139 405.86 148.223C405.532 148.273 405.215 148.378 404.923 148.535C404.724 148.691 404.639 148.933 404.44 149.089C403.972 149.472 403.361 149.6 403.163 150.253C403.103 150.528 403.08 150.809 403.092 151.09C403.057 151.507 402.888 151.9 402.609 152.212C402.425 152.41 402.098 152.907 401.828 152.964C401.559 153.021 401.317 152.694 401.232 152.41C400.899 151.207 400.984 149.926 401.473 148.776C401.825 148.222 402.03 147.587 402.07 146.931C402.07 146.278 401.133 145.767 400.65 146.15C400.168 146.534 400.139 147.456 399.628 147.272C399.945 146.354 399.922 145.353 399.562 144.452C399.203 143.55 398.531 142.808 397.669 142.36C396.713 142.068 395.716 141.929 394.717 141.949C394.25 141.85 393.774 141.798 393.297 141.793L393.226 141.764Z" fill="#7A7A7A"/>
<path d="M395.086 153.347C396.495 153.079 397.874 152.67 399.202 152.126C399.322 153.245 399.053 154.371 398.44 155.314C397.828 156.258 396.909 156.962 395.838 157.308C395.945 156.094 395.945 154.873 395.838 153.659C395.837 153.554 395.796 153.453 395.725 153.376C395.647 153.347 395.561 153.347 395.483 153.376H395.157L395.086 153.347Z" fill="#DE9F93"/>
<path d="M350.642 163.553C350.857 163.862 350.996 164.217 351.048 164.589C351.1 164.962 351.063 165.341 350.94 165.697C350.693 166.407 350.334 167.074 349.875 167.67L347.647 170.963C347.065 171.815 346.227 172.78 345.248 172.695C342.806 172.524 341.727 166.193 342.636 164.32C343.686 161.978 349.038 161.552 350.642 163.553Z" fill="#FDB9A9"/>
<path d="M362.14 220.177V288.894H293.437V262.321C293.437 262.321 297.312 255.593 303.813 259.908C304.888 261.034 306.275 261.813 307.797 262.144C309.318 262.474 310.904 262.341 312.349 261.762C313.794 261.184 315.033 260.185 315.905 258.896C316.778 257.606 317.244 256.085 317.244 254.528C317.244 252.971 316.778 251.45 315.905 250.161C315.033 248.871 313.794 247.873 312.349 247.294C310.904 246.715 309.318 246.582 307.797 246.913C306.275 247.243 304.888 248.022 303.813 249.148C303.813 249.148 296.928 254.315 293.437 246.735V220.177H319.995C327.575 216.685 322.408 209.8 322.408 209.8C321.282 208.725 320.503 207.338 320.173 205.817C319.842 204.295 319.975 202.71 320.554 201.264C321.133 199.819 322.131 198.58 323.421 197.708C324.71 196.835 326.231 196.369 327.788 196.369C329.345 196.369 330.866 196.835 332.156 197.708C333.445 198.58 334.443 199.819 335.022 201.264C335.601 202.71 335.734 204.295 335.403 205.817C335.073 207.338 334.294 208.725 333.168 209.8C328.91 216.301 335.581 220.177 335.581 220.177H362.14Z" fill="#8E3333"/>
<path d="M248.552 185.811C248.547 187.367 248.078 188.886 247.203 190.173C246.329 191.461 245.09 192.458 243.646 193.036C242.201 193.614 240.616 193.747 239.095 193.418C237.574 193.09 236.186 192.314 235.109 191.191C228.608 186.932 224.733 193.604 224.733 193.604V220.177H293.436V151.459H224.733V178.018C228.225 185.598 235.109 180.431 235.109 180.431C236.186 179.308 237.574 178.532 239.095 178.203C240.616 177.874 242.201 178.008 243.646 178.586C245.09 179.164 246.329 180.161 247.203 181.448C248.078 182.735 248.547 184.255 248.552 185.811Z" fill="#963535"/>
<path d="M253.705 230.553C252.578 231.628 251.8 233.015 251.469 234.537C251.139 236.058 251.271 237.644 251.85 239.089C252.429 240.534 253.428 241.773 254.717 242.645C256.006 243.518 257.528 243.984 259.085 243.984C260.641 243.984 262.163 243.518 263.452 242.645C264.741 241.773 265.74 240.534 266.319 239.089C266.898 237.644 267.03 236.058 266.7 234.537C266.369 233.015 265.591 231.628 264.464 230.553C264.464 230.553 259.297 223.669 266.878 220.177H251.277C251.277 220.177 258.02 224.052 253.705 230.553Z" fill="#8E3333"/>
<path d="M224.733 151.459V178.018C228.225 185.598 235.109 180.431 235.109 180.431C236.184 179.305 237.572 178.526 239.093 178.195C240.614 177.865 242.2 177.998 243.645 178.577C245.09 179.155 246.329 180.154 247.202 181.443C248.074 182.733 248.54 184.254 248.54 185.811C248.54 187.368 248.074 188.889 247.202 190.178C246.329 191.468 245.09 192.466 243.645 193.045C242.2 193.624 240.614 193.757 239.093 193.426C237.572 193.096 236.184 192.317 235.109 191.191C228.608 186.932 224.733 193.604 224.733 193.604V220.177H251.277C251.277 220.177 258.006 224.052 253.69 230.553C252.564 231.628 251.785 233.015 251.455 234.537C251.124 236.058 251.257 237.644 251.836 239.089C252.415 240.534 253.413 241.773 254.703 242.645C255.992 243.518 257.513 243.984 259.07 243.984C260.627 243.984 262.148 243.518 263.438 242.645C264.727 241.773 265.726 240.534 266.305 239.089C266.883 237.644 267.016 236.058 266.686 234.537C266.355 233.015 265.576 231.628 264.45 230.553C264.45 230.553 259.283 223.669 266.863 220.177H293.436V151.459H224.733Z" fill="url(#paint10_linear_82_4)"/>
<path d="M224.733 220.177V288.894H293.436V262.321C293.436 262.321 297.311 255.593 303.813 259.908C304.887 261.034 306.275 261.813 307.796 262.143C309.318 262.474 310.903 262.341 312.348 261.762C313.794 261.183 315.032 260.185 315.905 258.896C316.777 257.606 317.244 256.085 317.244 254.528C317.244 252.971 316.777 251.45 315.905 250.161C315.032 248.871 313.794 247.873 312.348 247.294C310.903 246.715 309.318 246.582 307.796 246.913C306.275 247.243 304.887 248.022 303.813 249.148C303.813 249.148 296.928 254.315 293.436 246.735V220.177H266.892C259.312 223.669 264.479 230.553 264.479 230.553C265.605 231.628 266.384 233.015 266.714 234.537C267.045 236.058 266.912 237.644 266.333 239.089C265.754 240.534 264.755 241.773 263.466 242.645C262.177 243.518 260.656 243.984 259.099 243.984C257.542 243.984 256.021 243.518 254.731 242.645C253.442 241.773 252.443 240.534 251.864 239.089C251.286 237.644 251.153 236.058 251.483 234.537C251.814 233.015 252.592 231.628 253.719 230.553C257.977 224.052 251.306 220.177 251.306 220.177H224.733Z" fill="#F05454"/>
<path d="M156.172 288.894V262.335C159.664 254.755 166.548 259.922 166.548 259.922C167.623 261.049 169.011 261.827 170.532 262.158C172.053 262.488 173.639 262.356 175.084 261.777C176.529 261.198 177.768 260.199 178.641 258.91C179.513 257.62 179.979 256.099 179.979 254.542C179.979 252.986 179.513 251.464 178.641 250.175C177.768 248.886 176.529 247.887 175.084 247.308C173.639 246.729 172.053 246.597 170.532 246.927C169.011 247.258 167.623 248.036 166.548 249.163C160.047 253.421 156.172 246.749 156.172 246.749V220.177H182.73C182.73 220.177 189.459 216.301 185.144 209.8C184.017 208.725 183.239 207.338 182.908 205.817C182.578 204.295 182.71 202.71 183.289 201.264C183.868 199.819 184.867 198.58 186.156 197.708C187.445 196.835 188.967 196.369 190.523 196.369C192.08 196.369 193.601 196.835 194.891 197.708C196.18 198.58 197.179 199.819 197.758 201.264C198.337 202.71 198.469 204.295 198.139 205.817C197.808 207.338 197.03 208.725 195.903 209.8C195.903 209.8 190.736 216.685 198.316 220.177H224.875V288.894H156.172Z" fill="#8E3333"/>
<path d="M248.637 185.825C248.633 187.381 248.163 188.9 247.289 190.188C246.415 191.475 245.176 192.472 243.731 193.05C242.286 193.628 240.702 193.761 239.181 193.433C237.66 193.104 236.272 192.328 235.195 191.205C235.195 191.205 228.31 186.038 224.818 193.618V220.177H198.26C190.68 216.685 195.847 209.8 195.847 209.8C196.973 208.725 197.751 207.338 198.082 205.816C198.413 204.295 198.28 202.71 197.701 201.264C197.122 199.819 196.124 198.58 194.834 197.708C193.545 196.835 192.024 196.369 190.467 196.369C188.91 196.369 187.389 196.835 186.099 197.708C184.81 198.58 183.811 199.819 183.232 201.264C182.654 202.71 182.521 204.295 182.851 205.816C183.182 207.338 183.96 208.725 185.087 209.8C189.345 216.301 182.674 220.177 182.674 220.177H156.172V151.459H182.475C190.055 154.951 184.888 161.836 184.888 161.836C183.762 162.91 182.983 164.298 182.653 165.819C182.322 167.341 182.455 168.926 183.034 170.371C183.613 171.817 184.611 173.055 185.901 173.928C187.19 174.8 188.711 175.267 190.268 175.267C191.825 175.267 193.346 174.8 194.635 173.928C195.925 173.055 196.923 171.817 197.502 170.371C198.081 168.926 198.214 167.341 197.883 165.819C197.553 164.298 196.774 162.91 195.648 161.836C191.389 155.334 198.061 151.459 198.061 151.459H224.875V178.032C224.875 178.032 228.75 184.76 235.251 180.445C236.328 179.322 237.716 178.546 239.237 178.217C240.758 177.889 242.343 178.022 243.788 178.6C245.232 179.178 246.471 180.175 247.346 181.462C248.22 182.75 248.689 184.269 248.694 185.825H248.637Z" fill="#F05454"/>
<path d="M265.473 317.866C265.497 319.424 265.054 320.954 264.201 322.258C263.347 323.562 262.122 324.58 260.684 325.18C259.246 325.781 257.661 325.936 256.133 325.627C254.606 325.318 253.206 324.557 252.115 323.444C252.115 323.444 245.16 318.377 241.781 325.999L242.165 352.558L215.606 352.941C207.969 349.563 213.037 342.607 213.037 342.607C214.142 341.517 214.897 340.121 215.202 338.598C215.508 337.076 215.35 335.497 214.751 334.065C214.151 332.632 213.137 331.412 211.838 330.561C210.539 329.71 209.015 329.268 207.462 329.29C205.91 329.313 204.399 329.799 203.126 330.688C201.852 331.576 200.873 332.825 200.316 334.274C199.758 335.723 199.647 337.306 199.996 338.819C200.346 340.332 201.14 341.706 202.277 342.763C206.692 349.194 200.02 353.168 200.02 353.168L173.461 353.552L172.468 284.834L198.771 284.465C206.408 287.844 201.34 294.799 201.34 294.799C200.234 295.889 199.48 297.285 199.175 298.808C198.869 300.33 199.026 301.909 199.626 303.342C200.226 304.774 201.24 305.994 202.539 306.845C203.838 307.696 205.362 308.139 206.914 308.116C208.467 308.094 209.977 307.607 211.251 306.719C212.525 305.831 213.503 304.581 214.061 303.132C214.619 301.683 214.73 300.1 214.381 298.587C214.031 297.074 213.237 295.7 212.1 294.643C207.685 288.213 214.357 284.238 214.357 284.238L241.171 283.855L241.554 310.428C241.554 310.428 245.529 317.099 251.959 312.685C252.688 311.907 253.567 311.285 254.543 310.855C255.519 310.426 256.571 310.198 257.637 310.186C259.693 310.171 261.671 310.97 263.139 312.409C264.607 313.848 265.446 315.81 265.473 317.866Z" fill="#F05454"/>
<path d="M182.092 285.09C181.141 286.14 180.403 288.454 181.907 289.433C182.446 289.724 183.043 289.889 183.653 289.916L191.688 290.895C191.446 290.895 195.648 338.235 197.295 348.299C197.493 349.492 197.99 350.982 199.197 351.138C199.559 351.117 199.91 351.01 200.223 350.828C200.536 350.646 200.802 350.392 201 350.088C202.159 348.271 202.82 346.18 202.916 344.027C204.912 328.575 205.86 313.005 205.755 297.425C205.755 294.345 205.641 291.123 204.108 288.44C203.167 286.98 201.932 285.732 200.483 284.774C199.034 283.816 197.402 283.17 195.691 282.875C191.106 281.839 185.428 281.371 182.092 285.09Z" fill="url(#paint11_linear_82_4)"/>
<path d="M201.425 383.347V383.531C201.766 384.397 202.845 384.681 203.753 384.795C204.611 384.889 205.474 384.927 206.336 384.908C206.75 384.923 207.163 384.866 207.557 384.738C207.918 384.579 208.257 384.374 208.565 384.127L211.049 382.282C211.747 381.801 212.386 381.239 212.951 380.607C213.511 379.958 213.805 379.121 213.775 378.265C213.745 377.842 213.586 377.438 213.319 377.108C213.053 376.778 212.692 376.538 212.284 376.42C211.766 376.356 211.241 376.356 210.723 376.42C210.146 376.493 209.56 376.399 209.036 376.147C208.512 375.895 208.073 375.497 207.77 375C207.667 374.537 207.419 374.119 207.06 373.808C206.699 373.632 206.289 373.582 205.896 373.666C205.035 373.709 204.184 373.876 203.37 374.163C202.959 374.31 202.587 374.546 202.28 374.856C201.973 375.165 201.739 375.54 201.595 375.951C201.508 376.333 201.47 376.724 201.482 377.115C201.532 377.923 201.532 378.734 201.482 379.542C201.369 380.551 201.312 381.565 201.312 382.58C201.319 382.839 201.358 383.096 201.425 383.347Z" fill="white"/>
<path d="M225.514 383.673C223.841 384.439 222.12 385.093 220.361 385.632C219.661 385.934 218.877 385.979 218.147 385.76C217.86 385.621 217.607 385.422 217.404 385.178C217.201 384.933 217.052 384.647 216.969 384.34C216.815 383.714 216.753 383.068 216.784 382.424C216.893 381.427 217.097 380.443 217.394 379.486C217.551 378.591 217.678 377.697 217.792 376.803C217.976 375.511 218.147 374.233 218.303 372.956L222.774 373.907C223.243 374.006 223.683 375.809 223.967 376.192C224.175 376.475 224.443 376.707 224.753 376.871C225.062 377.036 225.405 377.129 225.755 377.143C226.517 377.033 227.285 376.972 228.055 376.959C228.551 377.075 228.994 377.353 229.316 377.749C229.637 378.144 229.817 378.635 229.829 379.145C229.825 379.651 229.716 380.151 229.508 380.613C229.301 381.075 228.999 381.489 228.623 381.828C227.87 382.509 227.006 383.057 226.068 383.446L225.514 383.673Z" fill="white"/>
<path d="M225.585 378.677C224.411 379.344 223.192 379.927 221.937 380.422H221.823C219.751 381.232 217.437 377.981 217.437 377.981C217.437 377.981 214.513 359.925 214.598 352.43C214.697 347.292 213.476 339.967 211.645 326.681C211.191 340.251 208.891 346.213 209.473 351.082C210.368 358.477 209.303 376.845 209.303 376.845C209.303 376.845 207.344 380.422 205.201 379.94H205.073C203.783 379.646 202.516 379.257 201.283 378.776C201.283 378.776 198.785 353.481 198.785 346.809C198.785 340.137 199.069 334.161 199.069 334.161L197.763 313.039L203.327 304.948L203.781 304.764L204.207 304.338L210.382 299.81C210.382 299.81 210.382 300.86 210.268 302.649L215.066 305.218L215.52 305.559L215.989 305.672L224.023 307.092C224.023 307.092 226.124 339.499 226.862 346.128C227.6 352.757 225.585 378.677 225.585 378.677Z" fill="#473F47"/>
<path d="M263.4 265.714C263.499 265.643 263.618 265.603 263.741 265.6C264.067 265.6 264.081 266.125 263.968 266.438C263.671 267.308 263.24 268.127 262.69 268.865C262.512 269.049 262.406 269.291 262.392 269.546C262.392 269.802 262.619 269.986 262.789 270.171C263.312 270.777 263.683 271.498 263.873 272.275C264.063 273.053 264.066 273.864 263.882 274.642C263.489 276.197 262.679 277.615 261.54 278.745C261.266 279.094 260.925 279.385 260.538 279.602C260.151 279.819 259.724 279.957 259.283 280.008C257.75 280.008 255.834 278.12 255.224 276.814C255.001 276.162 254.953 275.463 255.082 274.786C255.211 274.109 255.515 273.477 255.962 272.953C257.773 269.937 260.336 267.443 263.4 265.714Z" fill="#A67C52"/>
<path d="M218.927 250.809C219.424 251.32 220.191 251.845 219.978 252.513C219.864 252.867 219.481 253.08 219.197 253.336C218.496 254.079 218.119 255.069 218.147 256.09C218.177 257.105 218.033 258.118 217.721 259.085C217.544 259.563 217.207 259.966 216.767 260.224C216.327 260.483 215.812 260.582 215.308 260.504C214.726 260.348 214.144 259.837 213.576 260.078C213.008 260.32 213.008 260.788 212.781 261.186C212.471 261.675 212.03 262.067 211.508 262.318C210.986 262.569 210.404 262.668 209.828 262.605C208.69 262.434 207.592 262.054 206.592 261.484C206.167 261.314 205.798 261.029 205.527 260.66C205.362 260.301 205.322 259.896 205.414 259.511C205.765 258.355 206.338 257.28 207.103 256.345C208.327 254.459 209.063 252.298 209.246 250.057C209.36 248.495 209.246 246.778 210.254 245.571C211.674 243.925 214.896 243.939 216.585 245.145C218.274 246.352 217.366 249.205 218.927 250.809Z" fill="#A67C52"/>
<path d="M216.912 243.74C216.714 244.129 216.415 244.458 216.046 244.691C215.293 245.131 214.626 245.642 213.945 246.111C213.258 246.564 212.774 247.266 212.596 248.07C212.298 249.489 213.093 251.107 212.596 252.541C212.412 252.839 211.943 252.654 211.759 252.371C211.574 252.087 211.461 251.732 211.177 251.561C210.68 251.278 210.084 251.76 209.871 252.285C209.651 252.896 209.676 253.568 209.94 254.161C210.205 254.754 210.689 255.221 211.29 255.465C211.219 255.919 210.637 256.104 210.169 256.047C209.707 255.92 209.229 255.858 208.749 255.863C207.685 256.061 207.33 257.58 206.223 257.736C205.856 257.712 205.5 257.603 205.183 257.418C204.865 257.234 204.594 256.978 204.392 256.672L203.1 255.252C202.892 254.976 202.664 254.715 202.419 254.471C202.12 254.244 201.638 254.23 201.397 253.96C201.155 253.691 201.397 253.052 201.141 252.711C201.02 252.585 200.869 252.492 200.701 252.442C200.329 252.254 200.034 251.944 199.863 251.564C199.692 251.184 199.658 250.757 199.764 250.355C199.799 250.254 199.799 250.144 199.764 250.043C199.764 249.901 199.565 249.844 199.423 249.773C199.032 249.519 198.743 249.133 198.611 248.686C198.478 248.238 198.509 247.758 198.7 247.331C198.915 246.842 199.224 246.398 199.608 246.025C199.743 245.817 199.936 245.651 200.162 245.548C200.388 245.445 200.639 245.409 200.886 245.443L201.098 243.584C201.093 243.269 201.158 242.957 201.288 242.67C201.418 242.383 201.61 242.128 201.851 241.925C202.091 241.721 202.374 241.573 202.678 241.492C202.982 241.411 203.301 241.398 203.611 241.455L203.185 239.922C203.107 239.726 203.107 239.507 203.185 239.311C203.302 239.176 203.463 239.085 203.639 239.056C204.135 238.915 204.644 238.829 205.158 238.8C204.974 238.37 204.831 237.923 204.732 237.466C204.7 237.4 204.688 237.326 204.698 237.253C204.708 237.181 204.739 237.113 204.788 237.058C204.836 237.003 204.9 236.964 204.971 236.945C205.042 236.927 205.117 236.93 205.187 236.955C205.375 236.983 205.566 236.983 205.754 236.955C205.754 236.955 205.47 235.649 205.456 235.535C205.37 235.125 205.447 234.698 205.669 234.343C205.824 234.166 206.021 234.031 206.242 233.949C206.462 233.868 206.7 233.842 206.933 233.875C207.393 233.956 207.835 234.12 208.238 234.357C208.238 233.86 208.849 233.605 209.346 233.562C210.302 233.509 211.257 233.698 212.12 234.112C212.984 234.527 213.729 235.153 214.285 235.933C214.377 236.07 214.482 236.198 214.598 236.316C214.825 236.461 215.074 236.566 215.336 236.628C215.739 236.807 216.097 237.073 216.384 237.406C216.671 237.74 216.881 238.134 216.997 238.559C217.209 239.403 217.295 240.273 217.252 241.142C217.285 241.81 217.222 242.479 217.068 243.13C217.04 243.339 216.987 243.543 216.912 243.74Z" fill="#7A7A7A"/>
<path d="M209.857 259.837C211.039 260.332 212.187 260.906 213.292 261.555C213.633 261.738 213.929 261.995 214.158 262.307C214.28 262.478 214.355 262.678 214.375 262.888C214.395 263.097 214.359 263.308 214.272 263.499C213.973 264.025 213.264 263.84 212.724 263.641C210.223 262.793 207.583 262.427 204.945 262.562C204.769 262.592 204.588 262.571 204.423 262.504C204.257 262.436 204.114 262.324 204.009 262.179C203.947 262.005 203.924 261.82 203.942 261.636C203.959 261.452 204.016 261.274 204.108 261.115C205.457 258.403 207.657 258.843 209.857 259.837Z" fill="white"/>
<path d="M258.446 280.76C257.933 282.035 257.176 283.197 256.217 284.181C255.295 285.217 254.344 286.211 253.378 287.176C251.046 289.431 248.586 291.549 246.011 293.521C244.262 295.067 242.177 296.185 239.922 296.786C239.007 297 238.049 296.941 237.168 296.616C236.451 296.258 235.802 295.778 235.252 295.196C234.599 294.544 227.019 285.814 226.891 285.814C226.461 286.044 226.128 286.422 225.954 286.878C224.859 289.147 224.181 291.595 223.952 294.103C223.86 295.223 223.86 296.348 223.952 297.468C224.25 301.286 225.585 305.218 224.265 308.824C224.001 309.585 223.564 310.276 222.987 310.839C222.432 311.325 221.792 311.705 221.099 311.961C219.876 312.462 218.599 312.823 217.295 313.039C216.55 313.177 215.795 313.257 215.038 313.281C212.199 313.394 209.502 312.855 206.72 312.983C204.363 313.11 202.021 313.721 199.622 313.636C199.284 313.701 198.935 313.693 198.601 313.611C198.266 313.53 197.952 313.376 197.683 313.162C197.413 312.947 197.193 312.677 197.037 312.369C196.882 312.061 196.796 311.723 196.783 311.379C195.864 306.324 195.389 301.199 195.364 296.062C195.364 294.274 195.265 292.471 195.151 290.683C195.052 289.164 195.463 285.303 193.732 285.005C189.331 284.153 184.76 285.232 180.317 284.607C180.441 281.7 181.676 278.951 183.767 276.928C184.792 276.062 185.906 275.305 187.088 274.671C188.45 273.696 189.672 272.54 190.722 271.236C193.741 267.508 197.565 264.514 201.908 262.477C202.6 262.138 203.328 261.881 204.08 261.711H204.264C204.373 261.698 204.482 261.698 204.591 261.711C205.54 261.631 206.496 261.689 207.43 261.881C213.763 262.932 220.029 264.354 226.195 266.14C227.009 266.322 227.78 266.66 228.466 267.133C228.946 267.566 229.357 268.069 229.687 268.624C231.419 271.236 233.108 273.876 234.854 276.488C236.359 278.73 237.835 281.541 240.049 283.188C244.87 281.228 249.42 278.662 253.591 275.551C254.173 275.111 254.926 274.628 255.593 274.926C255.815 275.025 256.013 275.171 256.175 275.352C257.807 276.772 259.241 278.333 258.446 280.76Z" fill="white"/>
</g>
<defs>
<linearGradient id="paint0_linear_82_4" x1="211.291" y1="342.21" x2="214.229" y2="398.691" gradientUnits="userSpaceOnUse">
<stop offset="0.01"/>
<stop offset="0.08" stop-opacity="0.69"/>
<stop offset="0.21" stop-opacity="0.32"/>
<stop offset="1" stop-opacity="0"/>
</linearGradient>
<linearGradient id="paint1_linear_82_4" x1="67749.6" y1="3151.23" x2="67765.4" y2="6699.5" gradientUnits="userSpaceOnUse">
<stop offset="0.01"/>
<stop offset="0.08" stop-opacity="0.69"/>
<stop offset="0.21" stop-opacity="0.32"/>
<stop offset="1" stop-opacity="0"/>
</linearGradient>
<linearGradient id="paint2_linear_82_4" x1="-48746.4" y1="22502.9" x2="-48310.2" y2="22673" gradientUnits="userSpaceOnUse">
<stop offset="0.01"/>
<stop offset="0.08" stop-opacity="0.69"/>
<stop offset="0.21" stop-opacity="0.32"/>
<stop offset="1" stop-opacity="0"/>
</linearGradient>
<linearGradient id="paint3_linear_82_4" x1="234.305" y1="200.533" x2="111.225" y2="-49.3585" gradientUnits="userSpaceOnUse">
<stop offset="0.01"/>
<stop offset="0.08" stop-opacity="0.69"/>
<stop offset="0.21" stop-opacity="0.32"/>
<stop offset="1" stop-opacity="0"/>
</linearGradient>
<linearGradient id="paint4_linear_82_4" x1="3640.11" y1="1513.63" x2="3738.42" y2="2221.59" gradientUnits="userSpaceOnUse">
<stop offset="0.01"/>
<stop offset="0.08" stop-opacity="0.69"/>
<stop offset="0.21" stop-opacity="0.32"/>
<stop offset="1" stop-opacity="0"/>
</linearGradient>
<linearGradient id="paint5_linear_82_4" x1="-19523.9" y1="-3496.77" x2="-19732.3" y2="-3344.44" gradientUnits="userSpaceOnUse">
<stop offset="0.01"/>
<stop offset="0.08" stop-opacity="0.69"/>
<stop offset="0.21" stop-opacity="0.32"/>
<stop offset="1" stop-opacity="0"/>
</linearGradient>
<linearGradient id="paint6_linear_82_4" x1="11822" y1="12022.9" x2="11633.8" y2="28556.1" gradientUnits="userSpaceOnUse">
<stop offset="0.01"/>
<stop offset="0.08" stop-opacity="0.69"/>
<stop offset="0.21" stop-opacity="0.32"/>
<stop offset="1" stop-opacity="0"/>
</linearGradient>
<linearGradient id="paint7_linear_82_4" x1="11851.9" y1="20858.3" x2="5523.62" y2="22850.6" gradientUnits="userSpaceOnUse">
<stop offset="0.01"/>
<stop offset="0.08" stop-opacity="0.69"/>
<stop offset="0.21" stop-opacity="0.32"/>
<stop offset="1" stop-opacity="0"/>
</linearGradient>
<linearGradient id="paint8_linear_82_4" x1="7259.14" y1="19099.7" x2="-1481.23" y2="21181.1" gradientUnits="userSpaceOnUse">
<stop offset="0.01"/>
<stop offset="0.08" stop-opacity="0.69"/>
<stop offset="0.21" stop-opacity="0.32"/>
<stop offset="1" stop-opacity="0"/>
</linearGradient>
<linearGradient id="paint9_linear_82_4" x1="9112.54" y1="3085.45" x2="11065.5" y2="7711.1" gradientUnits="userSpaceOnUse">
<stop offset="0.01"/>
<stop offset="0.08" stop-opacity="0.69"/>
<stop offset="0.21" stop-opacity="0.32"/>
<stop offset="1" stop-opacity="0"/>
</linearGradient>
<linearGradient id="paint10_linear_82_4" x1="13908.3" y1="23570.4" x2="19339.2" y2="1886.76" gradientUnits="userSpaceOnUse">
<stop offset="0.01"/>
<stop offset="0.08" stop-opacity="0.69"/>
<stop offset="0.21" stop-opacity="0.32"/>
<stop offset="1" stop-opacity="0"/>
</linearGradient>
<linearGradient id="paint11_linear_82_4" x1="3758.77" y1="15041.1" x2="7858.15" y2="16636.8" gradientUnits="userSpaceOnUse">
<stop offset="0.01"/>
<stop offset="0.08" stop-opacity="0.69"/>
<stop offset="0.21" stop-opacity="0.32"/>
<stop offset="1" stop-opacity="0"/>
</linearGradient>
<clipPath id="clip0_82_4">
<rect width="500" height="426.939" fill="white"/>
</clipPath>
</defs>
</svg>
